%TF.GenerationSoftware,KiCad,Pcbnew,9.0.3-9.0.3-0~ubuntu24.04.1*%
%TF.CreationDate,2025-12-16T09:39:44+00:00*%
%TF.ProjectId,SuperNinePin,53757065-724e-4696-9e65-50696e2e6b69,rev?*%
%TF.SameCoordinates,Original*%
%TF.FileFunction,Soldermask,Top*%
%TF.FilePolarity,Negative*%
%FSLAX46Y46*%
G04 Gerber Fmt 4.6, Leading zero omitted, Abs format (unit mm)*
G04 Created by KiCad (PCBNEW 9.0.3-9.0.3-0~ubuntu24.04.1) date 2025-12-16 09:39:44*
%MOMM*%
%LPD*%
G01*
G04 APERTURE LIST*
G04 Aperture macros list*
%AMRoundRect*
0 Rectangle with rounded corners*
0 $1 Rounding radius*
0 $2 $3 $4 $5 $6 $7 $8 $9 X,Y pos of 4 corners*
0 Add a 4 corners polygon primitive as box body*
4,1,4,$2,$3,$4,$5,$6,$7,$8,$9,$2,$3,0*
0 Add four circle primitives for the rounded corners*
1,1,$1+$1,$2,$3*
1,1,$1+$1,$4,$5*
1,1,$1+$1,$6,$7*
1,1,$1+$1,$8,$9*
0 Add four rect primitives between the rounded corners*
20,1,$1+$1,$2,$3,$4,$5,0*
20,1,$1+$1,$4,$5,$6,$7,0*
20,1,$1+$1,$6,$7,$8,$9,0*
20,1,$1+$1,$8,$9,$2,$3,0*%
G04 Aperture macros list end*
%ADD10C,1.600000*%
%ADD11RoundRect,0.250000X0.550000X-0.550000X0.550000X0.550000X-0.550000X0.550000X-0.550000X-0.550000X0*%
%ADD12C,2.500000*%
%ADD13R,1.500000X1.500000*%
%ADD14C,1.500000*%
%ADD15R,1.800000X1.800000*%
%ADD16C,1.800000*%
%ADD17C,4.000000*%
%ADD18R,1.600000X1.600000*%
%ADD19C,1.200000*%
G04 APERTURE END LIST*
D10*
%TO.C,C7*%
X175748000Y-65659000D03*
X173248000Y-65659000D03*
%TD*%
D11*
%TO.C,U2*%
X172085000Y-63246000D03*
D10*
X174625000Y-63246000D03*
X177165000Y-63246000D03*
X179705000Y-63246000D03*
X182245000Y-63246000D03*
X184785000Y-63246000D03*
X187325000Y-63246000D03*
X189865000Y-63246000D03*
X192405000Y-63246000D03*
X194945000Y-63246000D03*
X194945000Y-55626000D03*
X192405000Y-55626000D03*
X189865000Y-55626000D03*
X187325000Y-55626000D03*
X184785000Y-55626000D03*
X182245000Y-55626000D03*
X179705000Y-55626000D03*
X177165000Y-55626000D03*
X174625000Y-55626000D03*
X172085000Y-55626000D03*
%TD*%
D11*
%TO.C,U1*%
X150241000Y-50927000D03*
D10*
X152781000Y-50927000D03*
X155321000Y-50927000D03*
X157861000Y-50927000D03*
X160401000Y-50927000D03*
X162941000Y-50927000D03*
X165481000Y-50927000D03*
X168021000Y-50927000D03*
X168021000Y-43307000D03*
X165481000Y-43307000D03*
X162941000Y-43307000D03*
X160401000Y-43307000D03*
X157861000Y-43307000D03*
X155321000Y-43307000D03*
X152781000Y-43307000D03*
X150241000Y-43307000D03*
%TD*%
D12*
%TO.C,J2*%
X143357600Y-40895500D03*
X143357600Y-44895500D03*
X143357600Y-48895500D03*
X143357600Y-52895500D03*
X143357600Y-59395500D03*
X143357600Y-63395500D03*
X143357600Y-67395500D03*
%TD*%
D10*
%TO.C,C1*%
X167513000Y-38120000D03*
X167513000Y-40620000D03*
%TD*%
D13*
%TO.C,Q1*%
X163195000Y-67543000D03*
D14*
X165735000Y-67543000D03*
X168275000Y-67543000D03*
%TD*%
D10*
%TO.C,R5*%
X164719000Y-36830000D03*
X154559000Y-36830000D03*
%TD*%
%TO.C,R3*%
X180594000Y-40259000D03*
X170434000Y-40259000D03*
%TD*%
D11*
%TO.C,U3*%
X171958000Y-50927000D03*
D10*
X174498000Y-50927000D03*
X177038000Y-50927000D03*
X179578000Y-50927000D03*
X182118000Y-50927000D03*
X184658000Y-50927000D03*
X187198000Y-50927000D03*
X189738000Y-50927000D03*
X192278000Y-50927000D03*
X194818000Y-50927000D03*
X194818000Y-43307000D03*
X192278000Y-43307000D03*
X189738000Y-43307000D03*
X187198000Y-43307000D03*
X184658000Y-43307000D03*
X182118000Y-43307000D03*
X179578000Y-43307000D03*
X177038000Y-43307000D03*
X174498000Y-43307000D03*
X171958000Y-43307000D03*
%TD*%
D13*
%TO.C,Q3*%
X146685000Y-37571000D03*
D14*
X149225000Y-37571000D03*
X151765000Y-37571000D03*
%TD*%
D10*
%TO.C,R11*%
X198628000Y-54483000D03*
X208788000Y-54483000D03*
%TD*%
%TO.C,R9*%
X198628000Y-61087000D03*
X208788000Y-61087000D03*
%TD*%
%TO.C,R12*%
X198628000Y-51181000D03*
X208788000Y-51181000D03*
%TD*%
%TO.C,R1*%
X150495000Y-66294000D03*
X160655000Y-66294000D03*
%TD*%
%TO.C,R4*%
X180594000Y-36957000D03*
X170434000Y-36957000D03*
%TD*%
%TO.C,R6*%
X191135000Y-40259000D03*
X201295000Y-40259000D03*
%TD*%
%TO.C,R2*%
X150495000Y-69596000D03*
X160655000Y-69596000D03*
%TD*%
%TO.C,R14*%
X198628000Y-44577000D03*
X208788000Y-44577000D03*
%TD*%
D15*
%TO.C,D2*%
X208661000Y-40640000D03*
D16*
X206121000Y-40640000D03*
%TD*%
D10*
%TO.C,R8*%
X146812000Y-43815000D03*
X146812000Y-53975000D03*
%TD*%
%TO.C,C4*%
X149118000Y-40894000D03*
X151618000Y-40894000D03*
%TD*%
D13*
%TO.C,Q2*%
X183642000Y-39878000D03*
D14*
X186182000Y-39878000D03*
X188722000Y-39878000D03*
%TD*%
D10*
%TO.C,R13*%
X198628000Y-47879000D03*
X208788000Y-47879000D03*
%TD*%
%TO.C,R10*%
X198628000Y-57785000D03*
X208788000Y-57785000D03*
%TD*%
D17*
%TO.C,J3*%
X216281000Y-65395500D03*
X216281000Y-40395500D03*
D18*
X213441000Y-58435500D03*
D10*
X213441000Y-55665500D03*
X213441000Y-52895500D03*
X213441000Y-50125500D03*
X213441000Y-47355500D03*
X216281000Y-57050500D03*
X216281000Y-54280500D03*
X216281000Y-51510500D03*
X216281000Y-48740500D03*
%TD*%
D19*
%TO.C,C2*%
X183134000Y-68294000D03*
X183134000Y-66294000D03*
%TD*%
D10*
%TO.C,R15*%
X201295000Y-66294000D03*
X191135000Y-66294000D03*
%TD*%
%TO.C,C6*%
X174792000Y-53340000D03*
X177292000Y-53340000D03*
%TD*%
D11*
%TO.C,U9*%
X150114000Y-63246000D03*
D10*
X152654000Y-63246000D03*
X155194000Y-63246000D03*
X157734000Y-63246000D03*
X160274000Y-63246000D03*
X162814000Y-63246000D03*
X165354000Y-63246000D03*
X167894000Y-63246000D03*
X167894000Y-55626000D03*
X165354000Y-55626000D03*
X162814000Y-55626000D03*
X160274000Y-55626000D03*
X157734000Y-55626000D03*
X155194000Y-55626000D03*
X152654000Y-55626000D03*
X150114000Y-55626000D03*
%TD*%
%TO.C,C5*%
X150134000Y-53340000D03*
X152634000Y-53340000D03*
%TD*%
D15*
%TO.C,D1*%
X206121000Y-65278000D03*
D16*
X208661000Y-65278000D03*
%TD*%
D10*
%TO.C,R7*%
X164719000Y-40259000D03*
X154559000Y-40259000D03*
%TD*%
M02*
