M48
; DRILL file {KiCad 9.0.3-9.0.3-0~ubuntu24.04.1} date 2025-12-16T09:39:48+0000
; FORMAT={-:-/ absolute / metric / decimal}
; #@! TF.CreationDate,2025-12-16T09:39:48+00:00
; #@! TF.GenerationSoftware,Kicad,Pcbnew,9.0.3-9.0.3-0~ubuntu24.04.1
; #@! TF.FileFunction,Plated,1,2,PTH
FMAT,2
METRIC
; #@! TA.AperFunction,Plated,PTH,ComponentDrill
T1C0.600
; #@! TA.AperFunction,Plated,PTH,ComponentDrill
T2C0.800
; #@! TA.AperFunction,Plated,PTH,ComponentDrill
T3C0.900
; #@! TA.AperFunction,Plated,PTH,ComponentDrill
T4C1.000
; #@! TA.AperFunction,Plated,PTH,ComponentDrill
T5C1.250
; #@! TA.AperFunction,Plated,PTH,ComponentDrill
T6C3.200
%
G90
G05
T1
X183.134Y-66.294
X183.134Y-68.294
T2
X146.685Y-37.571
X146.812Y-43.815
X146.812Y-53.975
X149.118Y-40.894
X149.225Y-37.571
X150.114Y-55.626
X150.114Y-63.246
X150.134Y-53.34
X150.241Y-43.307
X150.241Y-50.927
X150.495Y-66.294
X150.495Y-69.596
X151.618Y-40.894
X151.765Y-37.571
X152.634Y-53.34
X152.654Y-55.626
X152.654Y-63.246
X152.781Y-43.307
X152.781Y-50.927
X154.559Y-36.83
X154.559Y-40.259
X155.194Y-55.626
X155.194Y-63.246
X155.321Y-43.307
X155.321Y-50.927
X157.734Y-55.626
X157.734Y-63.246
X157.861Y-43.307
X157.861Y-50.927
X160.274Y-55.626
X160.274Y-63.246
X160.401Y-43.307
X160.401Y-50.927
X160.655Y-66.294
X160.655Y-69.596
X162.814Y-55.626
X162.814Y-63.246
X162.941Y-43.307
X162.941Y-50.927
X163.195Y-67.543
X164.719Y-36.83
X164.719Y-40.259
X165.354Y-55.626
X165.354Y-63.246
X165.481Y-43.307
X165.481Y-50.927
X165.735Y-67.543
X167.513Y-38.12
X167.513Y-40.62
X167.894Y-55.626
X167.894Y-63.246
X168.021Y-43.307
X168.021Y-50.927
X168.275Y-67.543
X170.434Y-36.957
X170.434Y-40.259
X171.958Y-43.307
X171.958Y-50.927
X172.085Y-55.626
X172.085Y-63.246
X173.248Y-65.659
X174.498Y-43.307
X174.498Y-50.927
X174.625Y-55.626
X174.625Y-63.246
X174.792Y-53.34
X175.748Y-65.659
X177.038Y-43.307
X177.038Y-50.927
X177.165Y-55.626
X177.165Y-63.246
X177.292Y-53.34
X179.578Y-43.307
X179.578Y-50.927
X179.705Y-55.626
X179.705Y-63.246
X180.594Y-36.957
X180.594Y-40.259
X182.118Y-43.307
X182.118Y-50.927
X182.245Y-55.626
X182.245Y-63.246
X183.642Y-39.878
X184.658Y-43.307
X184.658Y-50.927
X184.785Y-55.626
X184.785Y-63.246
X186.182Y-39.878
X187.198Y-43.307
X187.198Y-50.927
X187.325Y-55.626
X187.325Y-63.246
X188.722Y-39.878
X189.738Y-43.307
X189.738Y-50.927
X189.865Y-55.626
X189.865Y-63.246
X191.135Y-40.259
X191.135Y-66.294
X192.278Y-43.307
X192.278Y-50.927
X192.405Y-55.626
X192.405Y-63.246
X194.818Y-43.307
X194.818Y-50.927
X194.945Y-55.626
X194.945Y-63.246
X198.628Y-44.577
X198.628Y-47.879
X198.628Y-51.181
X198.628Y-54.483
X198.628Y-57.785
X198.628Y-61.087
X201.295Y-40.259
X201.295Y-66.294
X208.788Y-44.577
X208.788Y-47.879
X208.788Y-51.181
X208.788Y-54.483
X208.788Y-57.785
X208.788Y-61.087
T3
X206.121Y-40.64
X206.121Y-65.278
X208.661Y-40.64
X208.661Y-65.278
T4
X213.441Y-47.355
X213.441Y-50.125
X213.441Y-52.895
X213.441Y-55.665
X213.441Y-58.435
X216.281Y-48.74
X216.281Y-51.511
X216.281Y-54.28
X216.281Y-57.05
T5
X143.358Y-40.895
X143.358Y-44.895
X143.358Y-48.895
X143.358Y-52.895
X143.358Y-59.395
X143.358Y-63.395
X143.358Y-67.395
T6
X216.281Y-40.395
X216.281Y-65.395
M30
