%TF.GenerationSoftware,KiCad,Pcbnew,9.0.3-9.0.3-0~ubuntu24.04.1*%
%TF.CreationDate,2025-12-16T09:39:43+00:00*%
%TF.ProjectId,SuperNinePin,53757065-724e-4696-9e65-50696e2e6b69,rev?*%
%TF.SameCoordinates,Original*%
%TF.FileFunction,Legend,Top*%
%TF.FilePolarity,Positive*%
%FSLAX46Y46*%
G04 Gerber Fmt 4.6, Leading zero omitted, Abs format (unit mm)*
G04 Created by KiCad (PCBNEW 9.0.3-9.0.3-0~ubuntu24.04.1) date 2025-12-16 09:39:43*
%MOMM*%
%LPD*%
G01*
G04 APERTURE LIST*
%ADD10C,0.250000*%
%ADD11C,0.300000*%
%ADD12C,0.150000*%
%ADD13C,0.100000*%
%ADD14C,0.120000*%
%ADD15C,0.010000*%
G04 APERTURE END LIST*
D10*
X210206568Y-65269666D02*
X210968473Y-65269666D01*
X210587520Y-65650619D02*
X210587520Y-64888714D01*
X203856568Y-39107666D02*
X204618473Y-39107666D01*
X204237520Y-39488619D02*
X204237520Y-38726714D01*
D11*
G36*
X174206000Y-33234735D02*
G01*
X174243004Y-33271739D01*
X174287710Y-33361151D01*
X174287710Y-33718904D01*
X174243003Y-33808317D01*
X174205998Y-33845322D01*
X174116586Y-33890028D01*
X173901691Y-33890028D01*
X173873424Y-33875894D01*
X173873424Y-33204162D01*
X173901692Y-33190028D01*
X174116586Y-33190028D01*
X174206000Y-33234735D01*
G37*
G36*
X175540193Y-33223260D02*
G01*
X175566368Y-33275611D01*
X175159139Y-33357057D01*
X175159139Y-33289723D01*
X175192370Y-33223260D01*
X175258835Y-33190028D01*
X175473729Y-33190028D01*
X175540193Y-33223260D01*
G37*
G36*
X181397336Y-33223260D02*
G01*
X181423511Y-33275611D01*
X181016282Y-33357057D01*
X181016282Y-33289723D01*
X181049513Y-33223260D01*
X181115978Y-33190028D01*
X181330872Y-33190028D01*
X181397336Y-33223260D01*
G37*
G36*
X182848857Y-32734735D02*
G01*
X182885861Y-32771739D01*
X182930567Y-32861151D01*
X182930567Y-33004618D01*
X182885860Y-33094031D01*
X182848855Y-33131036D01*
X182759443Y-33175742D01*
X182373424Y-33175742D01*
X182373424Y-32690028D01*
X182759443Y-32690028D01*
X182848857Y-32734735D01*
G37*
G36*
X185397235Y-34853813D02*
G01*
X170549615Y-34853813D01*
X170549615Y-32825742D01*
X170716282Y-32825742D01*
X170716282Y-32968600D01*
X170719164Y-32997864D01*
X170721226Y-33002842D01*
X170721608Y-33008218D01*
X170732118Y-33035682D01*
X170803546Y-33178539D01*
X170811474Y-33191134D01*
X170812990Y-33194793D01*
X170816369Y-33198910D01*
X170819211Y-33203425D01*
X170822205Y-33206021D01*
X170831645Y-33217524D01*
X170903074Y-33288952D01*
X170914574Y-33298390D01*
X170917171Y-33301384D01*
X170921683Y-33304224D01*
X170925804Y-33307606D01*
X170929463Y-33309121D01*
X170942057Y-33317049D01*
X171084913Y-33388478D01*
X171087055Y-33389297D01*
X171087925Y-33389942D01*
X171100196Y-33394326D01*
X171112377Y-33398987D01*
X171113457Y-33399063D01*
X171115616Y-33399835D01*
X171385354Y-33467269D01*
X171491713Y-33520448D01*
X171528717Y-33557453D01*
X171573425Y-33646867D01*
X171573425Y-33718903D01*
X171528717Y-33808317D01*
X171491714Y-33845321D01*
X171402301Y-33890028D01*
X171104911Y-33890028D01*
X170913716Y-33826297D01*
X170885042Y-33819777D01*
X170826662Y-33823927D01*
X170774315Y-33850101D01*
X170735967Y-33894315D01*
X170717459Y-33949840D01*
X170721609Y-34008220D01*
X170747783Y-34060567D01*
X170791997Y-34098915D01*
X170818848Y-34110903D01*
X171033134Y-34182331D01*
X171047646Y-34185630D01*
X171051304Y-34187146D01*
X171056606Y-34187668D01*
X171061808Y-34188851D01*
X171065762Y-34188569D01*
X171080568Y-34190028D01*
X171437710Y-34190028D01*
X171466974Y-34187146D01*
X171471952Y-34185083D01*
X171477328Y-34184702D01*
X171504791Y-34174192D01*
X171647650Y-34102764D01*
X171660244Y-34094835D01*
X171663904Y-34093320D01*
X171668024Y-34089938D01*
X171672535Y-34087099D01*
X171675129Y-34084107D01*
X171686635Y-34074665D01*
X171758063Y-34003236D01*
X171767501Y-33991735D01*
X171770495Y-33989139D01*
X171773335Y-33984626D01*
X171776717Y-33980506D01*
X171778232Y-33976846D01*
X171786160Y-33964253D01*
X171857589Y-33821397D01*
X171868098Y-33793933D01*
X171868479Y-33788558D01*
X171870543Y-33783578D01*
X171873425Y-33754314D01*
X171873425Y-33611457D01*
X171870543Y-33582193D01*
X171868479Y-33577212D01*
X171868098Y-33571838D01*
X171857589Y-33544374D01*
X171786160Y-33401518D01*
X171778232Y-33388924D01*
X171776717Y-33385265D01*
X171773335Y-33381144D01*
X171770495Y-33376632D01*
X171767501Y-33374035D01*
X171758063Y-33362535D01*
X171686635Y-33291106D01*
X171675132Y-33281666D01*
X171672536Y-33278672D01*
X171668021Y-33275830D01*
X171663904Y-33272451D01*
X171660245Y-33270935D01*
X171647650Y-33263007D01*
X171504792Y-33191578D01*
X171502651Y-33190758D01*
X171501781Y-33190114D01*
X171489525Y-33185735D01*
X171477329Y-33181068D01*
X171476245Y-33180991D01*
X171474090Y-33180221D01*
X171204352Y-33112786D01*
X171097992Y-33059606D01*
X171078414Y-33040028D01*
X172216281Y-33040028D01*
X172216281Y-33825742D01*
X172219163Y-33855006D01*
X172221224Y-33859983D01*
X172221607Y-33865361D01*
X172232117Y-33892824D01*
X172303546Y-34035682D01*
X172306626Y-34040576D01*
X172307396Y-34042884D01*
X172309888Y-34045757D01*
X172319211Y-34060568D01*
X172333422Y-34072892D01*
X172345743Y-34087099D01*
X172360550Y-34096420D01*
X172363426Y-34098914D01*
X172365734Y-34099683D01*
X172370628Y-34102764D01*
X172513486Y-34174192D01*
X172540949Y-34184702D01*
X172546324Y-34185083D01*
X172551303Y-34187146D01*
X172580567Y-34190028D01*
X172794853Y-34190028D01*
X172824117Y-34187146D01*
X172829095Y-34185083D01*
X172834471Y-34184702D01*
X172861935Y-34174192D01*
X172910809Y-34149754D01*
X172925803Y-34164748D01*
X172979875Y-34187146D01*
X173038403Y-34187146D01*
X173092475Y-34164748D01*
X173133859Y-34123364D01*
X173156257Y-34069292D01*
X173159139Y-34040028D01*
X173159139Y-33040028D01*
X173573424Y-33040028D01*
X173573424Y-34540028D01*
X173576306Y-34569292D01*
X173598704Y-34623364D01*
X173640088Y-34664748D01*
X173694160Y-34687146D01*
X173752688Y-34687146D01*
X173806760Y-34664748D01*
X173848144Y-34623364D01*
X173870542Y-34569292D01*
X173873424Y-34540028D01*
X173873424Y-34190028D01*
X174151996Y-34190028D01*
X174181260Y-34187146D01*
X174186238Y-34185083D01*
X174191614Y-34184702D01*
X174219078Y-34174192D01*
X174361935Y-34102764D01*
X174374528Y-34094836D01*
X174378188Y-34093321D01*
X174382307Y-34089939D01*
X174386821Y-34087099D01*
X174389417Y-34084105D01*
X174400919Y-34074666D01*
X174472348Y-34003237D01*
X174481789Y-33991732D01*
X174484781Y-33989138D01*
X174487619Y-33984628D01*
X174491003Y-33980506D01*
X174492519Y-33976844D01*
X174500446Y-33964253D01*
X174571874Y-33821395D01*
X174582384Y-33793932D01*
X174582765Y-33788556D01*
X174584828Y-33783578D01*
X174587710Y-33754314D01*
X174587710Y-33325742D01*
X174584828Y-33296478D01*
X174582765Y-33291499D01*
X174582384Y-33286124D01*
X174571874Y-33258661D01*
X174569701Y-33254314D01*
X174859139Y-33254314D01*
X174859139Y-33825742D01*
X174862021Y-33855006D01*
X174864083Y-33859984D01*
X174864465Y-33865360D01*
X174874975Y-33892823D01*
X174946403Y-34035682D01*
X174949482Y-34040574D01*
X174950253Y-34042885D01*
X174952748Y-34045762D01*
X174962068Y-34060567D01*
X174976274Y-34072888D01*
X174988600Y-34087100D01*
X175003404Y-34096418D01*
X175006282Y-34098914D01*
X175008593Y-34099684D01*
X175013486Y-34102764D01*
X175156344Y-34174193D01*
X175183807Y-34184702D01*
X175189182Y-34185083D01*
X175194161Y-34187146D01*
X175223425Y-34190028D01*
X175509139Y-34190028D01*
X175538403Y-34187146D01*
X175543381Y-34185083D01*
X175548757Y-34184702D01*
X175576221Y-34174192D01*
X175719078Y-34102764D01*
X175743964Y-34087099D01*
X175782310Y-34042884D01*
X175800818Y-33987362D01*
X175796670Y-33928982D01*
X175770496Y-33876633D01*
X175726281Y-33838286D01*
X175670758Y-33819778D01*
X175612378Y-33823926D01*
X175584915Y-33834436D01*
X175473729Y-33890028D01*
X175258834Y-33890028D01*
X175192371Y-33856797D01*
X175159139Y-33790333D01*
X175159139Y-33662998D01*
X175752688Y-33544289D01*
X175752689Y-33544289D01*
X175752689Y-33544288D01*
X175752843Y-33544258D01*
X175780973Y-33535693D01*
X175793184Y-33527514D01*
X175806761Y-33521891D01*
X175817262Y-33511389D01*
X175829603Y-33503125D01*
X175837755Y-33490897D01*
X175848145Y-33480507D01*
X175853827Y-33466787D01*
X175862067Y-33454429D01*
X175864919Y-33440011D01*
X175870543Y-33426435D01*
X175873425Y-33397171D01*
X175873425Y-33397019D01*
X175873426Y-33397014D01*
X175873425Y-33397009D01*
X175873425Y-33254314D01*
X175870543Y-33225050D01*
X175868479Y-33220069D01*
X175868098Y-33214695D01*
X175857589Y-33187231D01*
X175786160Y-33044375D01*
X175783424Y-33040028D01*
X176216281Y-33040028D01*
X176216281Y-34040028D01*
X176219163Y-34069292D01*
X176241561Y-34123364D01*
X176282945Y-34164748D01*
X176337017Y-34187146D01*
X176395545Y-34187146D01*
X176449617Y-34164748D01*
X176491001Y-34123364D01*
X176513399Y-34069292D01*
X176516281Y-34040028D01*
X176516281Y-33361152D01*
X176560988Y-33271738D01*
X176597992Y-33234735D01*
X176687406Y-33190028D01*
X176794853Y-33190028D01*
X176824117Y-33187146D01*
X176878189Y-33164748D01*
X176919573Y-33123364D01*
X176941971Y-33069292D01*
X176941971Y-33010764D01*
X176919573Y-32956692D01*
X176878189Y-32915308D01*
X176824117Y-32892910D01*
X176794853Y-32890028D01*
X176651996Y-32890028D01*
X176622732Y-32892910D01*
X176617751Y-32894973D01*
X176612377Y-32895355D01*
X176584913Y-32905864D01*
X176488420Y-32954111D01*
X176449617Y-32915308D01*
X176395545Y-32892910D01*
X176337017Y-32892910D01*
X176282945Y-32915308D01*
X176241561Y-32956692D01*
X176219163Y-33010764D01*
X176216281Y-33040028D01*
X175783424Y-33040028D01*
X175783079Y-33039480D01*
X175782310Y-33037173D01*
X175779817Y-33034298D01*
X175770495Y-33019489D01*
X175756285Y-33007165D01*
X175743964Y-32992958D01*
X175729158Y-32983638D01*
X175726280Y-32981142D01*
X175723968Y-32980371D01*
X175719078Y-32977293D01*
X175576221Y-32905864D01*
X175548758Y-32895355D01*
X175543383Y-32894973D01*
X175538403Y-32892910D01*
X175509139Y-32890028D01*
X175223425Y-32890028D01*
X175194161Y-32892910D01*
X175189183Y-32894971D01*
X175183806Y-32895354D01*
X175156343Y-32905864D01*
X175013485Y-32977293D01*
X175008590Y-32980373D01*
X175006283Y-32981143D01*
X175003408Y-32983635D01*
X174988599Y-32992958D01*
X174976276Y-33007166D01*
X174962068Y-33019489D01*
X174952745Y-33034298D01*
X174950253Y-33037173D01*
X174949483Y-33039480D01*
X174946403Y-33044375D01*
X174874975Y-33187232D01*
X174864465Y-33214696D01*
X174864083Y-33220071D01*
X174862021Y-33225050D01*
X174859139Y-33254314D01*
X174569701Y-33254314D01*
X174500446Y-33115803D01*
X174492517Y-33103208D01*
X174491002Y-33099549D01*
X174487620Y-33095428D01*
X174484781Y-33090918D01*
X174481789Y-33088323D01*
X174472347Y-33076818D01*
X174400918Y-33005390D01*
X174389418Y-32995952D01*
X174386821Y-32992958D01*
X174382304Y-32990115D01*
X174378187Y-32986736D01*
X174374530Y-32985221D01*
X174361935Y-32977293D01*
X174219078Y-32905864D01*
X174191615Y-32895355D01*
X174186240Y-32894973D01*
X174181260Y-32892910D01*
X174151996Y-32890028D01*
X173866282Y-32890028D01*
X173837018Y-32892910D01*
X173832040Y-32894971D01*
X173826663Y-32895354D01*
X173799200Y-32905864D01*
X173792295Y-32909316D01*
X173752688Y-32892910D01*
X173694160Y-32892910D01*
X173640088Y-32915308D01*
X173598704Y-32956692D01*
X173576306Y-33010764D01*
X173573424Y-33040028D01*
X173159139Y-33040028D01*
X173156257Y-33010764D01*
X173133859Y-32956692D01*
X173092475Y-32915308D01*
X173038403Y-32892910D01*
X172979875Y-32892910D01*
X172925803Y-32915308D01*
X172884419Y-32956692D01*
X172862021Y-33010764D01*
X172859139Y-33040028D01*
X172859139Y-33835039D01*
X172848855Y-33845322D01*
X172759443Y-33890028D01*
X172615977Y-33890028D01*
X172549513Y-33856796D01*
X172516281Y-33790332D01*
X172516281Y-33040028D01*
X172513399Y-33010764D01*
X172491001Y-32956692D01*
X172449617Y-32915308D01*
X172395545Y-32892910D01*
X172337017Y-32892910D01*
X172282945Y-32915308D01*
X172241561Y-32956692D01*
X172219163Y-33010764D01*
X172216281Y-33040028D01*
X171078414Y-33040028D01*
X171060987Y-33022601D01*
X171016282Y-32933190D01*
X171016282Y-32861151D01*
X171060987Y-32771740D01*
X171097992Y-32734735D01*
X171187406Y-32690028D01*
X171484799Y-32690028D01*
X171675990Y-32753759D01*
X171704664Y-32760279D01*
X171763044Y-32756130D01*
X171815391Y-32729956D01*
X171853739Y-32685742D01*
X171872247Y-32630218D01*
X171868098Y-32571838D01*
X171852193Y-32540028D01*
X177144852Y-32540028D01*
X177144852Y-34040028D01*
X177147734Y-34069292D01*
X177170132Y-34123364D01*
X177211516Y-34164748D01*
X177265588Y-34187146D01*
X177324116Y-34187146D01*
X177378188Y-34164748D01*
X177419572Y-34123364D01*
X177441970Y-34069292D01*
X177444852Y-34040028D01*
X177444852Y-33104861D01*
X178021759Y-34114449D01*
X178026136Y-34120616D01*
X178027275Y-34123364D01*
X178030074Y-34126163D01*
X178038780Y-34138427D01*
X178054553Y-34150642D01*
X178068659Y-34164748D01*
X178077492Y-34168406D01*
X178085054Y-34174263D01*
X178104302Y-34179512D01*
X178122731Y-34187146D01*
X178132293Y-34187146D01*
X178141518Y-34189662D01*
X178161309Y-34187146D01*
X178181259Y-34187146D01*
X178190092Y-34183486D01*
X178199578Y-34182281D01*
X178216900Y-34172382D01*
X178235331Y-34164748D01*
X178242091Y-34157987D01*
X178250394Y-34153243D01*
X178262607Y-34137471D01*
X178276715Y-34123364D01*
X178280374Y-34114528D01*
X178286229Y-34106969D01*
X178291477Y-34087724D01*
X178299113Y-34069292D01*
X178300586Y-34054327D01*
X178301629Y-34050506D01*
X178301253Y-34047554D01*
X178301995Y-34040028D01*
X178301995Y-33040028D01*
X178716281Y-33040028D01*
X178716281Y-34040028D01*
X178719163Y-34069292D01*
X178741561Y-34123364D01*
X178782945Y-34164748D01*
X178837017Y-34187146D01*
X178895545Y-34187146D01*
X178949617Y-34164748D01*
X178991001Y-34123364D01*
X179013399Y-34069292D01*
X179016281Y-34040028D01*
X179016281Y-33040028D01*
X179430567Y-33040028D01*
X179430567Y-34040028D01*
X179433449Y-34069292D01*
X179455847Y-34123364D01*
X179497231Y-34164748D01*
X179551303Y-34187146D01*
X179609831Y-34187146D01*
X179663903Y-34164748D01*
X179705287Y-34123364D01*
X179727685Y-34069292D01*
X179730567Y-34040028D01*
X179730567Y-33245017D01*
X179740849Y-33234735D01*
X179830263Y-33190028D01*
X179973729Y-33190028D01*
X180040193Y-33223260D01*
X180073425Y-33289724D01*
X180073425Y-34040028D01*
X180076307Y-34069292D01*
X180098705Y-34123364D01*
X180140089Y-34164748D01*
X180194161Y-34187146D01*
X180252689Y-34187146D01*
X180306761Y-34164748D01*
X180348145Y-34123364D01*
X180370543Y-34069292D01*
X180373425Y-34040028D01*
X180373425Y-33254314D01*
X180716282Y-33254314D01*
X180716282Y-33825742D01*
X180719164Y-33855006D01*
X180721226Y-33859984D01*
X180721608Y-33865360D01*
X180732118Y-33892823D01*
X180803546Y-34035682D01*
X180806625Y-34040574D01*
X180807396Y-34042885D01*
X180809891Y-34045762D01*
X180819211Y-34060567D01*
X180833417Y-34072888D01*
X180845743Y-34087100D01*
X180860547Y-34096418D01*
X180863425Y-34098914D01*
X180865736Y-34099684D01*
X180870629Y-34102764D01*
X181013487Y-34174193D01*
X181040950Y-34184702D01*
X181046325Y-34185083D01*
X181051304Y-34187146D01*
X181080568Y-34190028D01*
X181366282Y-34190028D01*
X181395546Y-34187146D01*
X181400524Y-34185083D01*
X181405900Y-34184702D01*
X181433364Y-34174192D01*
X181576221Y-34102764D01*
X181601107Y-34087099D01*
X181639453Y-34042884D01*
X181657961Y-33987362D01*
X181653813Y-33928982D01*
X181627639Y-33876633D01*
X181583424Y-33838286D01*
X181527901Y-33819778D01*
X181469521Y-33823926D01*
X181442058Y-33834436D01*
X181330872Y-33890028D01*
X181115977Y-33890028D01*
X181049514Y-33856797D01*
X181016282Y-33790333D01*
X181016282Y-33662998D01*
X181609831Y-33544289D01*
X181609832Y-33544289D01*
X181609832Y-33544288D01*
X181609986Y-33544258D01*
X181638116Y-33535693D01*
X181650327Y-33527514D01*
X181663904Y-33521891D01*
X181674405Y-33511389D01*
X181686746Y-33503125D01*
X181694898Y-33490897D01*
X181705288Y-33480507D01*
X181710970Y-33466787D01*
X181719210Y-33454429D01*
X181722062Y-33440011D01*
X181727686Y-33426435D01*
X181730568Y-33397171D01*
X181730568Y-33397019D01*
X181730569Y-33397014D01*
X181730568Y-33397009D01*
X181730568Y-33254314D01*
X181727686Y-33225050D01*
X181725622Y-33220069D01*
X181725241Y-33214695D01*
X181714732Y-33187231D01*
X181643303Y-33044375D01*
X181640222Y-33039480D01*
X181639453Y-33037173D01*
X181636960Y-33034298D01*
X181627638Y-33019489D01*
X181613428Y-33007165D01*
X181601107Y-32992958D01*
X181586301Y-32983638D01*
X181583423Y-32981142D01*
X181581111Y-32980371D01*
X181576221Y-32977293D01*
X181433364Y-32905864D01*
X181405901Y-32895355D01*
X181400526Y-32894973D01*
X181395546Y-32892910D01*
X181366282Y-32890028D01*
X181080568Y-32890028D01*
X181051304Y-32892910D01*
X181046326Y-32894971D01*
X181040949Y-32895354D01*
X181013486Y-32905864D01*
X180870628Y-32977293D01*
X180865733Y-32980373D01*
X180863426Y-32981143D01*
X180860551Y-32983635D01*
X180845742Y-32992958D01*
X180833419Y-33007166D01*
X180819211Y-33019489D01*
X180809888Y-33034298D01*
X180807396Y-33037173D01*
X180806626Y-33039480D01*
X180803546Y-33044375D01*
X180732118Y-33187232D01*
X180721608Y-33214696D01*
X180721226Y-33220071D01*
X180719164Y-33225050D01*
X180716282Y-33254314D01*
X180373425Y-33254314D01*
X180370543Y-33225050D01*
X180368479Y-33220069D01*
X180368098Y-33214695D01*
X180357589Y-33187231D01*
X180286160Y-33044375D01*
X180283079Y-33039480D01*
X180282310Y-33037173D01*
X180279817Y-33034298D01*
X180270495Y-33019489D01*
X180256285Y-33007165D01*
X180243964Y-32992958D01*
X180229158Y-32983638D01*
X180226280Y-32981142D01*
X180223968Y-32980371D01*
X180219078Y-32977293D01*
X180076221Y-32905864D01*
X180048758Y-32895355D01*
X180043383Y-32894973D01*
X180038403Y-32892910D01*
X180009139Y-32890028D01*
X179794853Y-32890028D01*
X179765589Y-32892910D01*
X179760608Y-32894973D01*
X179755234Y-32895355D01*
X179727770Y-32905864D01*
X179678896Y-32930301D01*
X179663903Y-32915308D01*
X179609831Y-32892910D01*
X179551303Y-32892910D01*
X179497231Y-32915308D01*
X179455847Y-32956692D01*
X179433449Y-33010764D01*
X179430567Y-33040028D01*
X179016281Y-33040028D01*
X179013399Y-33010764D01*
X178991001Y-32956692D01*
X178949617Y-32915308D01*
X178895545Y-32892910D01*
X178837017Y-32892910D01*
X178782945Y-32915308D01*
X178741561Y-32956692D01*
X178719163Y-33010764D01*
X178716281Y-33040028D01*
X178301995Y-33040028D01*
X178301995Y-32582195D01*
X178647735Y-32582195D01*
X178647735Y-32640721D01*
X178653079Y-32653621D01*
X178670132Y-32694792D01*
X178688787Y-32717523D01*
X178760215Y-32788951D01*
X178782945Y-32807606D01*
X178805342Y-32816882D01*
X178837017Y-32830003D01*
X178895545Y-32830003D01*
X178933779Y-32814165D01*
X178949616Y-32807606D01*
X178949620Y-32807601D01*
X178972346Y-32788952D01*
X179043775Y-32717524D01*
X179062430Y-32694793D01*
X179062431Y-32694792D01*
X179084828Y-32640720D01*
X179084828Y-32582194D01*
X179067363Y-32540028D01*
X182073424Y-32540028D01*
X182073424Y-34040028D01*
X182076306Y-34069292D01*
X182098704Y-34123364D01*
X182140088Y-34164748D01*
X182194160Y-34187146D01*
X182252688Y-34187146D01*
X182306760Y-34164748D01*
X182348144Y-34123364D01*
X182370542Y-34069292D01*
X182373424Y-34040028D01*
X182373424Y-33475742D01*
X182794853Y-33475742D01*
X182824117Y-33472860D01*
X182829095Y-33470797D01*
X182834471Y-33470416D01*
X182861935Y-33459906D01*
X183004792Y-33388478D01*
X183017385Y-33380550D01*
X183021045Y-33379035D01*
X183025164Y-33375653D01*
X183029678Y-33372813D01*
X183032274Y-33369819D01*
X183043776Y-33360380D01*
X183115205Y-33288951D01*
X183124646Y-33277446D01*
X183127638Y-33274852D01*
X183130476Y-33270342D01*
X183133860Y-33266220D01*
X183135376Y-33262558D01*
X183143303Y-33249967D01*
X183214731Y-33107109D01*
X183225241Y-33079646D01*
X183225622Y-33074270D01*
X183227685Y-33069292D01*
X183230567Y-33040028D01*
X183573424Y-33040028D01*
X183573424Y-34040028D01*
X183576306Y-34069292D01*
X183598704Y-34123364D01*
X183640088Y-34164748D01*
X183694160Y-34187146D01*
X183752688Y-34187146D01*
X183806760Y-34164748D01*
X183848144Y-34123364D01*
X183870542Y-34069292D01*
X183873424Y-34040028D01*
X183873424Y-33040028D01*
X184287710Y-33040028D01*
X184287710Y-34040028D01*
X184290592Y-34069292D01*
X184312990Y-34123364D01*
X184354374Y-34164748D01*
X184408446Y-34187146D01*
X184466974Y-34187146D01*
X184521046Y-34164748D01*
X184562430Y-34123364D01*
X184584828Y-34069292D01*
X184587710Y-34040028D01*
X184587710Y-33245017D01*
X184597992Y-33234735D01*
X184687406Y-33190028D01*
X184830872Y-33190028D01*
X184897336Y-33223260D01*
X184930568Y-33289724D01*
X184930568Y-34040028D01*
X184933450Y-34069292D01*
X184955848Y-34123364D01*
X184997232Y-34164748D01*
X185051304Y-34187146D01*
X185109832Y-34187146D01*
X185163904Y-34164748D01*
X185205288Y-34123364D01*
X185227686Y-34069292D01*
X185230568Y-34040028D01*
X185230568Y-33254314D01*
X185227686Y-33225050D01*
X185225622Y-33220069D01*
X185225241Y-33214695D01*
X185214732Y-33187231D01*
X185143303Y-33044375D01*
X185140222Y-33039480D01*
X185139453Y-33037173D01*
X185136960Y-33034298D01*
X185127638Y-33019489D01*
X185113428Y-33007165D01*
X185101107Y-32992958D01*
X185086301Y-32983638D01*
X185083423Y-32981142D01*
X185081111Y-32980371D01*
X185076221Y-32977293D01*
X184933364Y-32905864D01*
X184905901Y-32895355D01*
X184900526Y-32894973D01*
X184895546Y-32892910D01*
X184866282Y-32890028D01*
X184651996Y-32890028D01*
X184622732Y-32892910D01*
X184617751Y-32894973D01*
X184612377Y-32895355D01*
X184584913Y-32905864D01*
X184536039Y-32930301D01*
X184521046Y-32915308D01*
X184466974Y-32892910D01*
X184408446Y-32892910D01*
X184354374Y-32915308D01*
X184312990Y-32956692D01*
X184290592Y-33010764D01*
X184287710Y-33040028D01*
X183873424Y-33040028D01*
X183870542Y-33010764D01*
X183848144Y-32956692D01*
X183806760Y-32915308D01*
X183752688Y-32892910D01*
X183694160Y-32892910D01*
X183640088Y-32915308D01*
X183598704Y-32956692D01*
X183576306Y-33010764D01*
X183573424Y-33040028D01*
X183230567Y-33040028D01*
X183230567Y-32825742D01*
X183227685Y-32796478D01*
X183225622Y-32791499D01*
X183225241Y-32786124D01*
X183214731Y-32758661D01*
X183143303Y-32615803D01*
X183135374Y-32603208D01*
X183133859Y-32599549D01*
X183130477Y-32595428D01*
X183127638Y-32590918D01*
X183124646Y-32588323D01*
X183119617Y-32582195D01*
X183504878Y-32582195D01*
X183504878Y-32640721D01*
X183510222Y-32653621D01*
X183527275Y-32694792D01*
X183545930Y-32717523D01*
X183617358Y-32788951D01*
X183640088Y-32807606D01*
X183662485Y-32816882D01*
X183694160Y-32830003D01*
X183752688Y-32830003D01*
X183790922Y-32814165D01*
X183806759Y-32807606D01*
X183806763Y-32807601D01*
X183829489Y-32788952D01*
X183900918Y-32717524D01*
X183919573Y-32694793D01*
X183919574Y-32694792D01*
X183941971Y-32640720D01*
X183941971Y-32582194D01*
X183919574Y-32528122D01*
X183900919Y-32505391D01*
X183829490Y-32433962D01*
X183806759Y-32415307D01*
X183775085Y-32402187D01*
X183752688Y-32392910D01*
X183694160Y-32392910D01*
X183671763Y-32402187D01*
X183640089Y-32415307D01*
X183640088Y-32415308D01*
X183617357Y-32433963D01*
X183545929Y-32505392D01*
X183527279Y-32528117D01*
X183527275Y-32528122D01*
X183507105Y-32576819D01*
X183504878Y-32582195D01*
X183119617Y-32582195D01*
X183115204Y-32576818D01*
X183043775Y-32505390D01*
X183032275Y-32495952D01*
X183029678Y-32492958D01*
X183025161Y-32490115D01*
X183021044Y-32486736D01*
X183017387Y-32485221D01*
X183004792Y-32477293D01*
X182861935Y-32405864D01*
X182834472Y-32395355D01*
X182829097Y-32394973D01*
X182824117Y-32392910D01*
X182794853Y-32390028D01*
X182223424Y-32390028D01*
X182194160Y-32392910D01*
X182140088Y-32415308D01*
X182098704Y-32456692D01*
X182076306Y-32510764D01*
X182073424Y-32540028D01*
X179067363Y-32540028D01*
X179062431Y-32528122D01*
X179043776Y-32505391D01*
X178972347Y-32433962D01*
X178949616Y-32415307D01*
X178917942Y-32402187D01*
X178895545Y-32392910D01*
X178837017Y-32392910D01*
X178814620Y-32402187D01*
X178782946Y-32415307D01*
X178782945Y-32415308D01*
X178760214Y-32433963D01*
X178688786Y-32505392D01*
X178670136Y-32528117D01*
X178670132Y-32528122D01*
X178649962Y-32576819D01*
X178647735Y-32582195D01*
X178301995Y-32582195D01*
X178301995Y-32540028D01*
X178299113Y-32510764D01*
X178276715Y-32456692D01*
X178235331Y-32415308D01*
X178181259Y-32392910D01*
X178122731Y-32392910D01*
X178068659Y-32415308D01*
X178027275Y-32456692D01*
X178004877Y-32510764D01*
X178001995Y-32540028D01*
X178001995Y-33475192D01*
X177425088Y-32465607D01*
X177420710Y-32459439D01*
X177419572Y-32456692D01*
X177416772Y-32453892D01*
X177408067Y-32441629D01*
X177392295Y-32429415D01*
X177378188Y-32415308D01*
X177369352Y-32411648D01*
X177361793Y-32405794D01*
X177342548Y-32400545D01*
X177324116Y-32392910D01*
X177314554Y-32392910D01*
X177305329Y-32390394D01*
X177285538Y-32392910D01*
X177265588Y-32392910D01*
X177256754Y-32396569D01*
X177247269Y-32397775D01*
X177229946Y-32407673D01*
X177211516Y-32415308D01*
X177204755Y-32422068D01*
X177196453Y-32426813D01*
X177184239Y-32442584D01*
X177170132Y-32456692D01*
X177166472Y-32465527D01*
X177160618Y-32473087D01*
X177155369Y-32492331D01*
X177147734Y-32510764D01*
X177146260Y-32525730D01*
X177145218Y-32529551D01*
X177145593Y-32532502D01*
X177144852Y-32540028D01*
X171852193Y-32540028D01*
X171841924Y-32519490D01*
X171797710Y-32481143D01*
X171770859Y-32469154D01*
X171556573Y-32397726D01*
X171542065Y-32394427D01*
X171538403Y-32392910D01*
X171533094Y-32392387D01*
X171527900Y-32391206D01*
X171523950Y-32391486D01*
X171509139Y-32390028D01*
X171151996Y-32390028D01*
X171122732Y-32392910D01*
X171117751Y-32394973D01*
X171112377Y-32395355D01*
X171084913Y-32405864D01*
X170942057Y-32477293D01*
X170929463Y-32485220D01*
X170925804Y-32486736D01*
X170921683Y-32490117D01*
X170917171Y-32492958D01*
X170914574Y-32495951D01*
X170903074Y-32505390D01*
X170831645Y-32576818D01*
X170822205Y-32588320D01*
X170819211Y-32590917D01*
X170816369Y-32595431D01*
X170812990Y-32599549D01*
X170811474Y-32603207D01*
X170803546Y-32615803D01*
X170732118Y-32758660D01*
X170721608Y-32786124D01*
X170721226Y-32791499D01*
X170719164Y-32796478D01*
X170716282Y-32825742D01*
X170549615Y-32825742D01*
X170549615Y-32223361D01*
X185397235Y-32223361D01*
X185397235Y-34853813D01*
G37*
D12*
X177920667Y-65945104D02*
X177882571Y-65983200D01*
X177882571Y-65983200D02*
X177768286Y-66021295D01*
X177768286Y-66021295D02*
X177692095Y-66021295D01*
X177692095Y-66021295D02*
X177577809Y-65983200D01*
X177577809Y-65983200D02*
X177501619Y-65907009D01*
X177501619Y-65907009D02*
X177463524Y-65830819D01*
X177463524Y-65830819D02*
X177425428Y-65678438D01*
X177425428Y-65678438D02*
X177425428Y-65564152D01*
X177425428Y-65564152D02*
X177463524Y-65411771D01*
X177463524Y-65411771D02*
X177501619Y-65335580D01*
X177501619Y-65335580D02*
X177577809Y-65259390D01*
X177577809Y-65259390D02*
X177692095Y-65221295D01*
X177692095Y-65221295D02*
X177768286Y-65221295D01*
X177768286Y-65221295D02*
X177882571Y-65259390D01*
X177882571Y-65259390D02*
X177920667Y-65297485D01*
X178187333Y-65221295D02*
X178720667Y-65221295D01*
X178720667Y-65221295D02*
X178377809Y-66021295D01*
X182905476Y-58998295D02*
X182905476Y-59645914D01*
X182905476Y-59645914D02*
X182943571Y-59722104D01*
X182943571Y-59722104D02*
X182981666Y-59760200D01*
X182981666Y-59760200D02*
X183057857Y-59798295D01*
X183057857Y-59798295D02*
X183210238Y-59798295D01*
X183210238Y-59798295D02*
X183286428Y-59760200D01*
X183286428Y-59760200D02*
X183324523Y-59722104D01*
X183324523Y-59722104D02*
X183362619Y-59645914D01*
X183362619Y-59645914D02*
X183362619Y-58998295D01*
X183705475Y-59074485D02*
X183743571Y-59036390D01*
X183743571Y-59036390D02*
X183819761Y-58998295D01*
X183819761Y-58998295D02*
X184010237Y-58998295D01*
X184010237Y-58998295D02*
X184086428Y-59036390D01*
X184086428Y-59036390D02*
X184124523Y-59074485D01*
X184124523Y-59074485D02*
X184162618Y-59150676D01*
X184162618Y-59150676D02*
X184162618Y-59226866D01*
X184162618Y-59226866D02*
X184124523Y-59341152D01*
X184124523Y-59341152D02*
X183667380Y-59798295D01*
X183667380Y-59798295D02*
X184162618Y-59798295D01*
X189585942Y-60776295D02*
X190043085Y-60776295D01*
X189814513Y-61576295D02*
X189814513Y-60776295D01*
X190309752Y-61576295D02*
X190309752Y-60776295D01*
X190309752Y-60776295D02*
X190614514Y-60776295D01*
X190614514Y-60776295D02*
X190690704Y-60814390D01*
X190690704Y-60814390D02*
X190728799Y-60852485D01*
X190728799Y-60852485D02*
X190766895Y-60928676D01*
X190766895Y-60928676D02*
X190766895Y-61042961D01*
X190766895Y-61042961D02*
X190728799Y-61119152D01*
X190728799Y-61119152D02*
X190690704Y-61157247D01*
X190690704Y-61157247D02*
X190614514Y-61195342D01*
X190614514Y-61195342D02*
X190309752Y-61195342D01*
X191109752Y-61576295D02*
X191109752Y-60776295D01*
X191947847Y-61500104D02*
X191909751Y-61538200D01*
X191909751Y-61538200D02*
X191795466Y-61576295D01*
X191795466Y-61576295D02*
X191719275Y-61576295D01*
X191719275Y-61576295D02*
X191604989Y-61538200D01*
X191604989Y-61538200D02*
X191528799Y-61462009D01*
X191528799Y-61462009D02*
X191490704Y-61385819D01*
X191490704Y-61385819D02*
X191452608Y-61233438D01*
X191452608Y-61233438D02*
X191452608Y-61119152D01*
X191452608Y-61119152D02*
X191490704Y-60966771D01*
X191490704Y-60966771D02*
X191528799Y-60890580D01*
X191528799Y-60890580D02*
X191604989Y-60814390D01*
X191604989Y-60814390D02*
X191719275Y-60776295D01*
X191719275Y-60776295D02*
X191795466Y-60776295D01*
X191795466Y-60776295D02*
X191909751Y-60814390D01*
X191909751Y-60814390D02*
X191947847Y-60852485D01*
X192633561Y-60776295D02*
X192481180Y-60776295D01*
X192481180Y-60776295D02*
X192404989Y-60814390D01*
X192404989Y-60814390D02*
X192366894Y-60852485D01*
X192366894Y-60852485D02*
X192290704Y-60966771D01*
X192290704Y-60966771D02*
X192252608Y-61119152D01*
X192252608Y-61119152D02*
X192252608Y-61423914D01*
X192252608Y-61423914D02*
X192290704Y-61500104D01*
X192290704Y-61500104D02*
X192328799Y-61538200D01*
X192328799Y-61538200D02*
X192404989Y-61576295D01*
X192404989Y-61576295D02*
X192557370Y-61576295D01*
X192557370Y-61576295D02*
X192633561Y-61538200D01*
X192633561Y-61538200D02*
X192671656Y-61500104D01*
X192671656Y-61500104D02*
X192709751Y-61423914D01*
X192709751Y-61423914D02*
X192709751Y-61233438D01*
X192709751Y-61233438D02*
X192671656Y-61157247D01*
X192671656Y-61157247D02*
X192633561Y-61119152D01*
X192633561Y-61119152D02*
X192557370Y-61081057D01*
X192557370Y-61081057D02*
X192404989Y-61081057D01*
X192404989Y-61081057D02*
X192328799Y-61119152D01*
X192328799Y-61119152D02*
X192290704Y-61157247D01*
X192290704Y-61157247D02*
X192252608Y-61233438D01*
X193433561Y-60776295D02*
X193052609Y-60776295D01*
X193052609Y-60776295D02*
X193014513Y-61157247D01*
X193014513Y-61157247D02*
X193052609Y-61119152D01*
X193052609Y-61119152D02*
X193128799Y-61081057D01*
X193128799Y-61081057D02*
X193319275Y-61081057D01*
X193319275Y-61081057D02*
X193395466Y-61119152D01*
X193395466Y-61119152D02*
X193433561Y-61157247D01*
X193433561Y-61157247D02*
X193471656Y-61233438D01*
X193471656Y-61233438D02*
X193471656Y-61423914D01*
X193471656Y-61423914D02*
X193433561Y-61500104D01*
X193433561Y-61500104D02*
X193395466Y-61538200D01*
X193395466Y-61538200D02*
X193319275Y-61576295D01*
X193319275Y-61576295D02*
X193128799Y-61576295D01*
X193128799Y-61576295D02*
X193052609Y-61538200D01*
X193052609Y-61538200D02*
X193014513Y-61500104D01*
X193852609Y-61576295D02*
X194004990Y-61576295D01*
X194004990Y-61576295D02*
X194081180Y-61538200D01*
X194081180Y-61538200D02*
X194119276Y-61500104D01*
X194119276Y-61500104D02*
X194195466Y-61385819D01*
X194195466Y-61385819D02*
X194233561Y-61233438D01*
X194233561Y-61233438D02*
X194233561Y-60928676D01*
X194233561Y-60928676D02*
X194195466Y-60852485D01*
X194195466Y-60852485D02*
X194157371Y-60814390D01*
X194157371Y-60814390D02*
X194081180Y-60776295D01*
X194081180Y-60776295D02*
X193928799Y-60776295D01*
X193928799Y-60776295D02*
X193852609Y-60814390D01*
X193852609Y-60814390D02*
X193814514Y-60852485D01*
X193814514Y-60852485D02*
X193776418Y-60928676D01*
X193776418Y-60928676D02*
X193776418Y-61119152D01*
X193776418Y-61119152D02*
X193814514Y-61195342D01*
X193814514Y-61195342D02*
X193852609Y-61233438D01*
X193852609Y-61233438D02*
X193928799Y-61271533D01*
X193928799Y-61271533D02*
X194081180Y-61271533D01*
X194081180Y-61271533D02*
X194157371Y-61233438D01*
X194157371Y-61233438D02*
X194195466Y-61195342D01*
X194195466Y-61195342D02*
X194233561Y-61119152D01*
X194957371Y-60776295D02*
X194576419Y-60776295D01*
X194576419Y-60776295D02*
X194538323Y-61157247D01*
X194538323Y-61157247D02*
X194576419Y-61119152D01*
X194576419Y-61119152D02*
X194652609Y-61081057D01*
X194652609Y-61081057D02*
X194843085Y-61081057D01*
X194843085Y-61081057D02*
X194919276Y-61119152D01*
X194919276Y-61119152D02*
X194957371Y-61157247D01*
X194957371Y-61157247D02*
X194995466Y-61233438D01*
X194995466Y-61233438D02*
X194995466Y-61423914D01*
X194995466Y-61423914D02*
X194957371Y-61500104D01*
X194957371Y-61500104D02*
X194919276Y-61538200D01*
X194919276Y-61538200D02*
X194843085Y-61576295D01*
X194843085Y-61576295D02*
X194652609Y-61576295D01*
X194652609Y-61576295D02*
X194576419Y-61538200D01*
X194576419Y-61538200D02*
X194538323Y-61500104D01*
X158521476Y-46679295D02*
X158521476Y-47326914D01*
X158521476Y-47326914D02*
X158559571Y-47403104D01*
X158559571Y-47403104D02*
X158597666Y-47441200D01*
X158597666Y-47441200D02*
X158673857Y-47479295D01*
X158673857Y-47479295D02*
X158826238Y-47479295D01*
X158826238Y-47479295D02*
X158902428Y-47441200D01*
X158902428Y-47441200D02*
X158940523Y-47403104D01*
X158940523Y-47403104D02*
X158978619Y-47326914D01*
X158978619Y-47326914D02*
X158978619Y-46679295D01*
X159778618Y-47479295D02*
X159321475Y-47479295D01*
X159550047Y-47479295D02*
X159550047Y-46679295D01*
X159550047Y-46679295D02*
X159473856Y-46793580D01*
X159473856Y-46793580D02*
X159397666Y-46869771D01*
X159397666Y-46869771D02*
X159321475Y-46907866D01*
X162712704Y-49003304D02*
X162674608Y-49041400D01*
X162674608Y-49041400D02*
X162560323Y-49079495D01*
X162560323Y-49079495D02*
X162484132Y-49079495D01*
X162484132Y-49079495D02*
X162369846Y-49041400D01*
X162369846Y-49041400D02*
X162293656Y-48965209D01*
X162293656Y-48965209D02*
X162255561Y-48889019D01*
X162255561Y-48889019D02*
X162217465Y-48736638D01*
X162217465Y-48736638D02*
X162217465Y-48622352D01*
X162217465Y-48622352D02*
X162255561Y-48469971D01*
X162255561Y-48469971D02*
X162293656Y-48393780D01*
X162293656Y-48393780D02*
X162369846Y-48317590D01*
X162369846Y-48317590D02*
X162484132Y-48279495D01*
X162484132Y-48279495D02*
X162560323Y-48279495D01*
X162560323Y-48279495D02*
X162674608Y-48317590D01*
X162674608Y-48317590D02*
X162712704Y-48355685D01*
X163055561Y-49079495D02*
X163055561Y-48279495D01*
X163055561Y-48279495D02*
X163246037Y-48279495D01*
X163246037Y-48279495D02*
X163360323Y-48317590D01*
X163360323Y-48317590D02*
X163436513Y-48393780D01*
X163436513Y-48393780D02*
X163474608Y-48469971D01*
X163474608Y-48469971D02*
X163512704Y-48622352D01*
X163512704Y-48622352D02*
X163512704Y-48736638D01*
X163512704Y-48736638D02*
X163474608Y-48889019D01*
X163474608Y-48889019D02*
X163436513Y-48965209D01*
X163436513Y-48965209D02*
X163360323Y-49041400D01*
X163360323Y-49041400D02*
X163246037Y-49079495D01*
X163246037Y-49079495D02*
X163055561Y-49079495D01*
X164198418Y-48546161D02*
X164198418Y-49079495D01*
X164007942Y-48241400D02*
X163817465Y-48812828D01*
X163817465Y-48812828D02*
X164312704Y-48812828D01*
X164769847Y-48279495D02*
X164846037Y-48279495D01*
X164846037Y-48279495D02*
X164922228Y-48317590D01*
X164922228Y-48317590D02*
X164960323Y-48355685D01*
X164960323Y-48355685D02*
X164998418Y-48431876D01*
X164998418Y-48431876D02*
X165036513Y-48584257D01*
X165036513Y-48584257D02*
X165036513Y-48774733D01*
X165036513Y-48774733D02*
X164998418Y-48927114D01*
X164998418Y-48927114D02*
X164960323Y-49003304D01*
X164960323Y-49003304D02*
X164922228Y-49041400D01*
X164922228Y-49041400D02*
X164846037Y-49079495D01*
X164846037Y-49079495D02*
X164769847Y-49079495D01*
X164769847Y-49079495D02*
X164693656Y-49041400D01*
X164693656Y-49041400D02*
X164655561Y-49003304D01*
X164655561Y-49003304D02*
X164617466Y-48927114D01*
X164617466Y-48927114D02*
X164579370Y-48774733D01*
X164579370Y-48774733D02*
X164579370Y-48584257D01*
X164579370Y-48584257D02*
X164617466Y-48431876D01*
X164617466Y-48431876D02*
X164655561Y-48355685D01*
X164655561Y-48355685D02*
X164693656Y-48317590D01*
X164693656Y-48317590D02*
X164769847Y-48279495D01*
X165722228Y-48279495D02*
X165569847Y-48279495D01*
X165569847Y-48279495D02*
X165493656Y-48317590D01*
X165493656Y-48317590D02*
X165455561Y-48355685D01*
X165455561Y-48355685D02*
X165379371Y-48469971D01*
X165379371Y-48469971D02*
X165341275Y-48622352D01*
X165341275Y-48622352D02*
X165341275Y-48927114D01*
X165341275Y-48927114D02*
X165379371Y-49003304D01*
X165379371Y-49003304D02*
X165417466Y-49041400D01*
X165417466Y-49041400D02*
X165493656Y-49079495D01*
X165493656Y-49079495D02*
X165646037Y-49079495D01*
X165646037Y-49079495D02*
X165722228Y-49041400D01*
X165722228Y-49041400D02*
X165760323Y-49003304D01*
X165760323Y-49003304D02*
X165798418Y-48927114D01*
X165798418Y-48927114D02*
X165798418Y-48736638D01*
X165798418Y-48736638D02*
X165760323Y-48660447D01*
X165760323Y-48660447D02*
X165722228Y-48622352D01*
X165722228Y-48622352D02*
X165646037Y-48584257D01*
X165646037Y-48584257D02*
X165493656Y-48584257D01*
X165493656Y-48584257D02*
X165417466Y-48622352D01*
X165417466Y-48622352D02*
X165379371Y-48660447D01*
X165379371Y-48660447D02*
X165341275Y-48736638D01*
X166293657Y-48279495D02*
X166369847Y-48279495D01*
X166369847Y-48279495D02*
X166446038Y-48317590D01*
X166446038Y-48317590D02*
X166484133Y-48355685D01*
X166484133Y-48355685D02*
X166522228Y-48431876D01*
X166522228Y-48431876D02*
X166560323Y-48584257D01*
X166560323Y-48584257D02*
X166560323Y-48774733D01*
X166560323Y-48774733D02*
X166522228Y-48927114D01*
X166522228Y-48927114D02*
X166484133Y-49003304D01*
X166484133Y-49003304D02*
X166446038Y-49041400D01*
X166446038Y-49041400D02*
X166369847Y-49079495D01*
X166369847Y-49079495D02*
X166293657Y-49079495D01*
X166293657Y-49079495D02*
X166217466Y-49041400D01*
X166217466Y-49041400D02*
X166179371Y-49003304D01*
X166179371Y-49003304D02*
X166141276Y-48927114D01*
X166141276Y-48927114D02*
X166103180Y-48774733D01*
X166103180Y-48774733D02*
X166103180Y-48584257D01*
X166103180Y-48584257D02*
X166141276Y-48431876D01*
X166141276Y-48431876D02*
X166179371Y-48355685D01*
X166179371Y-48355685D02*
X166217466Y-48317590D01*
X166217466Y-48317590D02*
X166293657Y-48279495D01*
X167169847Y-48660447D02*
X167284133Y-48698542D01*
X167284133Y-48698542D02*
X167322228Y-48736638D01*
X167322228Y-48736638D02*
X167360324Y-48812828D01*
X167360324Y-48812828D02*
X167360324Y-48927114D01*
X167360324Y-48927114D02*
X167322228Y-49003304D01*
X167322228Y-49003304D02*
X167284133Y-49041400D01*
X167284133Y-49041400D02*
X167207943Y-49079495D01*
X167207943Y-49079495D02*
X166903181Y-49079495D01*
X166903181Y-49079495D02*
X166903181Y-48279495D01*
X166903181Y-48279495D02*
X167169847Y-48279495D01*
X167169847Y-48279495D02*
X167246038Y-48317590D01*
X167246038Y-48317590D02*
X167284133Y-48355685D01*
X167284133Y-48355685D02*
X167322228Y-48431876D01*
X167322228Y-48431876D02*
X167322228Y-48508066D01*
X167322228Y-48508066D02*
X167284133Y-48584257D01*
X167284133Y-48584257D02*
X167246038Y-48622352D01*
X167246038Y-48622352D02*
X167169847Y-48660447D01*
X167169847Y-48660447D02*
X166903181Y-48660447D01*
X167703181Y-48660447D02*
X167969847Y-48660447D01*
X168084133Y-49079495D02*
X167703181Y-49079495D01*
X167703181Y-49079495D02*
X167703181Y-48279495D01*
X167703181Y-48279495D02*
X168084133Y-48279495D01*
D13*
X145315019Y-53228833D02*
X146029304Y-53228833D01*
X146029304Y-53228833D02*
X146172161Y-53276452D01*
X146172161Y-53276452D02*
X146267400Y-53371690D01*
X146267400Y-53371690D02*
X146315019Y-53514547D01*
X146315019Y-53514547D02*
X146315019Y-53609785D01*
X145410257Y-52800261D02*
X145362638Y-52752642D01*
X145362638Y-52752642D02*
X145315019Y-52657404D01*
X145315019Y-52657404D02*
X145315019Y-52419309D01*
X145315019Y-52419309D02*
X145362638Y-52324071D01*
X145362638Y-52324071D02*
X145410257Y-52276452D01*
X145410257Y-52276452D02*
X145505495Y-52228833D01*
X145505495Y-52228833D02*
X145600733Y-52228833D01*
X145600733Y-52228833D02*
X145743590Y-52276452D01*
X145743590Y-52276452D02*
X146315019Y-52847880D01*
X146315019Y-52847880D02*
X146315019Y-52228833D01*
D12*
X167799104Y-36074332D02*
X167837200Y-36112428D01*
X167837200Y-36112428D02*
X167875295Y-36226713D01*
X167875295Y-36226713D02*
X167875295Y-36302904D01*
X167875295Y-36302904D02*
X167837200Y-36417190D01*
X167837200Y-36417190D02*
X167761009Y-36493380D01*
X167761009Y-36493380D02*
X167684819Y-36531475D01*
X167684819Y-36531475D02*
X167532438Y-36569571D01*
X167532438Y-36569571D02*
X167418152Y-36569571D01*
X167418152Y-36569571D02*
X167265771Y-36531475D01*
X167265771Y-36531475D02*
X167189580Y-36493380D01*
X167189580Y-36493380D02*
X167113390Y-36417190D01*
X167113390Y-36417190D02*
X167075295Y-36302904D01*
X167075295Y-36302904D02*
X167075295Y-36226713D01*
X167075295Y-36226713D02*
X167113390Y-36112428D01*
X167113390Y-36112428D02*
X167151485Y-36074332D01*
X167875295Y-35312428D02*
X167875295Y-35769571D01*
X167875295Y-35540999D02*
X167075295Y-35540999D01*
X167075295Y-35540999D02*
X167189580Y-35617190D01*
X167189580Y-35617190D02*
X167265771Y-35693380D01*
X167265771Y-35693380D02*
X167303866Y-35769571D01*
X170357809Y-67621485D02*
X170281619Y-67583390D01*
X170281619Y-67583390D02*
X170205428Y-67507200D01*
X170205428Y-67507200D02*
X170091142Y-67392914D01*
X170091142Y-67392914D02*
X170014952Y-67354819D01*
X170014952Y-67354819D02*
X169938761Y-67354819D01*
X169976857Y-67545295D02*
X169900666Y-67507200D01*
X169900666Y-67507200D02*
X169824476Y-67431009D01*
X169824476Y-67431009D02*
X169786380Y-67278628D01*
X169786380Y-67278628D02*
X169786380Y-67011961D01*
X169786380Y-67011961D02*
X169824476Y-66859580D01*
X169824476Y-66859580D02*
X169900666Y-66783390D01*
X169900666Y-66783390D02*
X169976857Y-66745295D01*
X169976857Y-66745295D02*
X170129238Y-66745295D01*
X170129238Y-66745295D02*
X170205428Y-66783390D01*
X170205428Y-66783390D02*
X170281619Y-66859580D01*
X170281619Y-66859580D02*
X170319714Y-67011961D01*
X170319714Y-67011961D02*
X170319714Y-67278628D01*
X170319714Y-67278628D02*
X170281619Y-67431009D01*
X170281619Y-67431009D02*
X170205428Y-67507200D01*
X170205428Y-67507200D02*
X170129238Y-67545295D01*
X170129238Y-67545295D02*
X169976857Y-67545295D01*
X171081618Y-67545295D02*
X170624475Y-67545295D01*
X170853047Y-67545295D02*
X170853047Y-66745295D01*
X170853047Y-66745295D02*
X170776856Y-66859580D01*
X170776856Y-66859580D02*
X170700666Y-66935771D01*
X170700666Y-66935771D02*
X170624475Y-66973866D01*
X159505667Y-37192295D02*
X159239000Y-36811342D01*
X159048524Y-37192295D02*
X159048524Y-36392295D01*
X159048524Y-36392295D02*
X159353286Y-36392295D01*
X159353286Y-36392295D02*
X159429476Y-36430390D01*
X159429476Y-36430390D02*
X159467571Y-36468485D01*
X159467571Y-36468485D02*
X159505667Y-36544676D01*
X159505667Y-36544676D02*
X159505667Y-36658961D01*
X159505667Y-36658961D02*
X159467571Y-36735152D01*
X159467571Y-36735152D02*
X159429476Y-36773247D01*
X159429476Y-36773247D02*
X159353286Y-36811342D01*
X159353286Y-36811342D02*
X159048524Y-36811342D01*
X160229476Y-36392295D02*
X159848524Y-36392295D01*
X159848524Y-36392295D02*
X159810428Y-36773247D01*
X159810428Y-36773247D02*
X159848524Y-36735152D01*
X159848524Y-36735152D02*
X159924714Y-36697057D01*
X159924714Y-36697057D02*
X160115190Y-36697057D01*
X160115190Y-36697057D02*
X160191381Y-36735152D01*
X160191381Y-36735152D02*
X160229476Y-36773247D01*
X160229476Y-36773247D02*
X160267571Y-36849438D01*
X160267571Y-36849438D02*
X160267571Y-37039914D01*
X160267571Y-37039914D02*
X160229476Y-37116104D01*
X160229476Y-37116104D02*
X160191381Y-37154200D01*
X160191381Y-37154200D02*
X160115190Y-37192295D01*
X160115190Y-37192295D02*
X159924714Y-37192295D01*
X159924714Y-37192295D02*
X159848524Y-37154200D01*
X159848524Y-37154200D02*
X159810428Y-37116104D01*
X175380667Y-40621295D02*
X175114000Y-40240342D01*
X174923524Y-40621295D02*
X174923524Y-39821295D01*
X174923524Y-39821295D02*
X175228286Y-39821295D01*
X175228286Y-39821295D02*
X175304476Y-39859390D01*
X175304476Y-39859390D02*
X175342571Y-39897485D01*
X175342571Y-39897485D02*
X175380667Y-39973676D01*
X175380667Y-39973676D02*
X175380667Y-40087961D01*
X175380667Y-40087961D02*
X175342571Y-40164152D01*
X175342571Y-40164152D02*
X175304476Y-40202247D01*
X175304476Y-40202247D02*
X175228286Y-40240342D01*
X175228286Y-40240342D02*
X174923524Y-40240342D01*
X175647333Y-39821295D02*
X176142571Y-39821295D01*
X176142571Y-39821295D02*
X175875905Y-40126057D01*
X175875905Y-40126057D02*
X175990190Y-40126057D01*
X175990190Y-40126057D02*
X176066381Y-40164152D01*
X176066381Y-40164152D02*
X176104476Y-40202247D01*
X176104476Y-40202247D02*
X176142571Y-40278438D01*
X176142571Y-40278438D02*
X176142571Y-40468914D01*
X176142571Y-40468914D02*
X176104476Y-40545104D01*
X176104476Y-40545104D02*
X176066381Y-40583200D01*
X176066381Y-40583200D02*
X175990190Y-40621295D01*
X175990190Y-40621295D02*
X175761619Y-40621295D01*
X175761619Y-40621295D02*
X175685428Y-40583200D01*
X175685428Y-40583200D02*
X175647333Y-40545104D01*
X182778476Y-46679295D02*
X182778476Y-47326914D01*
X182778476Y-47326914D02*
X182816571Y-47403104D01*
X182816571Y-47403104D02*
X182854666Y-47441200D01*
X182854666Y-47441200D02*
X182930857Y-47479295D01*
X182930857Y-47479295D02*
X183083238Y-47479295D01*
X183083238Y-47479295D02*
X183159428Y-47441200D01*
X183159428Y-47441200D02*
X183197523Y-47403104D01*
X183197523Y-47403104D02*
X183235619Y-47326914D01*
X183235619Y-47326914D02*
X183235619Y-46679295D01*
X183540380Y-46679295D02*
X184035618Y-46679295D01*
X184035618Y-46679295D02*
X183768952Y-46984057D01*
X183768952Y-46984057D02*
X183883237Y-46984057D01*
X183883237Y-46984057D02*
X183959428Y-47022152D01*
X183959428Y-47022152D02*
X183997523Y-47060247D01*
X183997523Y-47060247D02*
X184035618Y-47136438D01*
X184035618Y-47136438D02*
X184035618Y-47326914D01*
X184035618Y-47326914D02*
X183997523Y-47403104D01*
X183997523Y-47403104D02*
X183959428Y-47441200D01*
X183959428Y-47441200D02*
X183883237Y-47479295D01*
X183883237Y-47479295D02*
X183654666Y-47479295D01*
X183654666Y-47479295D02*
X183578475Y-47441200D01*
X183578475Y-47441200D02*
X183540380Y-47403104D01*
X189433542Y-48228695D02*
X189890685Y-48228695D01*
X189662113Y-49028695D02*
X189662113Y-48228695D01*
X190157352Y-49028695D02*
X190157352Y-48228695D01*
X190157352Y-48228695D02*
X190462114Y-48228695D01*
X190462114Y-48228695D02*
X190538304Y-48266790D01*
X190538304Y-48266790D02*
X190576399Y-48304885D01*
X190576399Y-48304885D02*
X190614495Y-48381076D01*
X190614495Y-48381076D02*
X190614495Y-48495361D01*
X190614495Y-48495361D02*
X190576399Y-48571552D01*
X190576399Y-48571552D02*
X190538304Y-48609647D01*
X190538304Y-48609647D02*
X190462114Y-48647742D01*
X190462114Y-48647742D02*
X190157352Y-48647742D01*
X190957352Y-49028695D02*
X190957352Y-48228695D01*
X191795447Y-48952504D02*
X191757351Y-48990600D01*
X191757351Y-48990600D02*
X191643066Y-49028695D01*
X191643066Y-49028695D02*
X191566875Y-49028695D01*
X191566875Y-49028695D02*
X191452589Y-48990600D01*
X191452589Y-48990600D02*
X191376399Y-48914409D01*
X191376399Y-48914409D02*
X191338304Y-48838219D01*
X191338304Y-48838219D02*
X191300208Y-48685838D01*
X191300208Y-48685838D02*
X191300208Y-48571552D01*
X191300208Y-48571552D02*
X191338304Y-48419171D01*
X191338304Y-48419171D02*
X191376399Y-48342980D01*
X191376399Y-48342980D02*
X191452589Y-48266790D01*
X191452589Y-48266790D02*
X191566875Y-48228695D01*
X191566875Y-48228695D02*
X191643066Y-48228695D01*
X191643066Y-48228695D02*
X191757351Y-48266790D01*
X191757351Y-48266790D02*
X191795447Y-48304885D01*
X192481161Y-48228695D02*
X192328780Y-48228695D01*
X192328780Y-48228695D02*
X192252589Y-48266790D01*
X192252589Y-48266790D02*
X192214494Y-48304885D01*
X192214494Y-48304885D02*
X192138304Y-48419171D01*
X192138304Y-48419171D02*
X192100208Y-48571552D01*
X192100208Y-48571552D02*
X192100208Y-48876314D01*
X192100208Y-48876314D02*
X192138304Y-48952504D01*
X192138304Y-48952504D02*
X192176399Y-48990600D01*
X192176399Y-48990600D02*
X192252589Y-49028695D01*
X192252589Y-49028695D02*
X192404970Y-49028695D01*
X192404970Y-49028695D02*
X192481161Y-48990600D01*
X192481161Y-48990600D02*
X192519256Y-48952504D01*
X192519256Y-48952504D02*
X192557351Y-48876314D01*
X192557351Y-48876314D02*
X192557351Y-48685838D01*
X192557351Y-48685838D02*
X192519256Y-48609647D01*
X192519256Y-48609647D02*
X192481161Y-48571552D01*
X192481161Y-48571552D02*
X192404970Y-48533457D01*
X192404970Y-48533457D02*
X192252589Y-48533457D01*
X192252589Y-48533457D02*
X192176399Y-48571552D01*
X192176399Y-48571552D02*
X192138304Y-48609647D01*
X192138304Y-48609647D02*
X192100208Y-48685838D01*
X193281161Y-48228695D02*
X192900209Y-48228695D01*
X192900209Y-48228695D02*
X192862113Y-48609647D01*
X192862113Y-48609647D02*
X192900209Y-48571552D01*
X192900209Y-48571552D02*
X192976399Y-48533457D01*
X192976399Y-48533457D02*
X193166875Y-48533457D01*
X193166875Y-48533457D02*
X193243066Y-48571552D01*
X193243066Y-48571552D02*
X193281161Y-48609647D01*
X193281161Y-48609647D02*
X193319256Y-48685838D01*
X193319256Y-48685838D02*
X193319256Y-48876314D01*
X193319256Y-48876314D02*
X193281161Y-48952504D01*
X193281161Y-48952504D02*
X193243066Y-48990600D01*
X193243066Y-48990600D02*
X193166875Y-49028695D01*
X193166875Y-49028695D02*
X192976399Y-49028695D01*
X192976399Y-49028695D02*
X192900209Y-48990600D01*
X192900209Y-48990600D02*
X192862113Y-48952504D01*
X193700209Y-49028695D02*
X193852590Y-49028695D01*
X193852590Y-49028695D02*
X193928780Y-48990600D01*
X193928780Y-48990600D02*
X193966876Y-48952504D01*
X193966876Y-48952504D02*
X194043066Y-48838219D01*
X194043066Y-48838219D02*
X194081161Y-48685838D01*
X194081161Y-48685838D02*
X194081161Y-48381076D01*
X194081161Y-48381076D02*
X194043066Y-48304885D01*
X194043066Y-48304885D02*
X194004971Y-48266790D01*
X194004971Y-48266790D02*
X193928780Y-48228695D01*
X193928780Y-48228695D02*
X193776399Y-48228695D01*
X193776399Y-48228695D02*
X193700209Y-48266790D01*
X193700209Y-48266790D02*
X193662114Y-48304885D01*
X193662114Y-48304885D02*
X193624018Y-48381076D01*
X193624018Y-48381076D02*
X193624018Y-48571552D01*
X193624018Y-48571552D02*
X193662114Y-48647742D01*
X193662114Y-48647742D02*
X193700209Y-48685838D01*
X193700209Y-48685838D02*
X193776399Y-48723933D01*
X193776399Y-48723933D02*
X193928780Y-48723933D01*
X193928780Y-48723933D02*
X194004971Y-48685838D01*
X194004971Y-48685838D02*
X194043066Y-48647742D01*
X194043066Y-48647742D02*
X194081161Y-48571552D01*
X194804971Y-48228695D02*
X194424019Y-48228695D01*
X194424019Y-48228695D02*
X194385923Y-48609647D01*
X194385923Y-48609647D02*
X194424019Y-48571552D01*
X194424019Y-48571552D02*
X194500209Y-48533457D01*
X194500209Y-48533457D02*
X194690685Y-48533457D01*
X194690685Y-48533457D02*
X194766876Y-48571552D01*
X194766876Y-48571552D02*
X194804971Y-48609647D01*
X194804971Y-48609647D02*
X194843066Y-48685838D01*
X194843066Y-48685838D02*
X194843066Y-48876314D01*
X194843066Y-48876314D02*
X194804971Y-48952504D01*
X194804971Y-48952504D02*
X194766876Y-48990600D01*
X194766876Y-48990600D02*
X194690685Y-49028695D01*
X194690685Y-49028695D02*
X194500209Y-49028695D01*
X194500209Y-49028695D02*
X194424019Y-48990600D01*
X194424019Y-48990600D02*
X194385923Y-48952504D01*
X144576809Y-38009485D02*
X144500619Y-37971390D01*
X144500619Y-37971390D02*
X144424428Y-37895200D01*
X144424428Y-37895200D02*
X144310142Y-37780914D01*
X144310142Y-37780914D02*
X144233952Y-37742819D01*
X144233952Y-37742819D02*
X144157761Y-37742819D01*
X144195857Y-37933295D02*
X144119666Y-37895200D01*
X144119666Y-37895200D02*
X144043476Y-37819009D01*
X144043476Y-37819009D02*
X144005380Y-37666628D01*
X144005380Y-37666628D02*
X144005380Y-37399961D01*
X144005380Y-37399961D02*
X144043476Y-37247580D01*
X144043476Y-37247580D02*
X144119666Y-37171390D01*
X144119666Y-37171390D02*
X144195857Y-37133295D01*
X144195857Y-37133295D02*
X144348238Y-37133295D01*
X144348238Y-37133295D02*
X144424428Y-37171390D01*
X144424428Y-37171390D02*
X144500619Y-37247580D01*
X144500619Y-37247580D02*
X144538714Y-37399961D01*
X144538714Y-37399961D02*
X144538714Y-37666628D01*
X144538714Y-37666628D02*
X144500619Y-37819009D01*
X144500619Y-37819009D02*
X144424428Y-37895200D01*
X144424428Y-37895200D02*
X144348238Y-37933295D01*
X144348238Y-37933295D02*
X144195857Y-37933295D01*
X144805380Y-37133295D02*
X145300618Y-37133295D01*
X145300618Y-37133295D02*
X145033952Y-37438057D01*
X145033952Y-37438057D02*
X145148237Y-37438057D01*
X145148237Y-37438057D02*
X145224428Y-37476152D01*
X145224428Y-37476152D02*
X145262523Y-37514247D01*
X145262523Y-37514247D02*
X145300618Y-37590438D01*
X145300618Y-37590438D02*
X145300618Y-37780914D01*
X145300618Y-37780914D02*
X145262523Y-37857104D01*
X145262523Y-37857104D02*
X145224428Y-37895200D01*
X145224428Y-37895200D02*
X145148237Y-37933295D01*
X145148237Y-37933295D02*
X144919666Y-37933295D01*
X144919666Y-37933295D02*
X144843475Y-37895200D01*
X144843475Y-37895200D02*
X144805380Y-37857104D01*
X203193714Y-54845295D02*
X202927047Y-54464342D01*
X202736571Y-54845295D02*
X202736571Y-54045295D01*
X202736571Y-54045295D02*
X203041333Y-54045295D01*
X203041333Y-54045295D02*
X203117523Y-54083390D01*
X203117523Y-54083390D02*
X203155618Y-54121485D01*
X203155618Y-54121485D02*
X203193714Y-54197676D01*
X203193714Y-54197676D02*
X203193714Y-54311961D01*
X203193714Y-54311961D02*
X203155618Y-54388152D01*
X203155618Y-54388152D02*
X203117523Y-54426247D01*
X203117523Y-54426247D02*
X203041333Y-54464342D01*
X203041333Y-54464342D02*
X202736571Y-54464342D01*
X203955618Y-54845295D02*
X203498475Y-54845295D01*
X203727047Y-54845295D02*
X203727047Y-54045295D01*
X203727047Y-54045295D02*
X203650856Y-54159580D01*
X203650856Y-54159580D02*
X203574666Y-54235771D01*
X203574666Y-54235771D02*
X203498475Y-54273866D01*
X204717523Y-54845295D02*
X204260380Y-54845295D01*
X204488952Y-54845295D02*
X204488952Y-54045295D01*
X204488952Y-54045295D02*
X204412761Y-54159580D01*
X204412761Y-54159580D02*
X204336571Y-54235771D01*
X204336571Y-54235771D02*
X204260380Y-54273866D01*
X203574667Y-61449295D02*
X203308000Y-61068342D01*
X203117524Y-61449295D02*
X203117524Y-60649295D01*
X203117524Y-60649295D02*
X203422286Y-60649295D01*
X203422286Y-60649295D02*
X203498476Y-60687390D01*
X203498476Y-60687390D02*
X203536571Y-60725485D01*
X203536571Y-60725485D02*
X203574667Y-60801676D01*
X203574667Y-60801676D02*
X203574667Y-60915961D01*
X203574667Y-60915961D02*
X203536571Y-60992152D01*
X203536571Y-60992152D02*
X203498476Y-61030247D01*
X203498476Y-61030247D02*
X203422286Y-61068342D01*
X203422286Y-61068342D02*
X203117524Y-61068342D01*
X203955619Y-61449295D02*
X204108000Y-61449295D01*
X204108000Y-61449295D02*
X204184190Y-61411200D01*
X204184190Y-61411200D02*
X204222286Y-61373104D01*
X204222286Y-61373104D02*
X204298476Y-61258819D01*
X204298476Y-61258819D02*
X204336571Y-61106438D01*
X204336571Y-61106438D02*
X204336571Y-60801676D01*
X204336571Y-60801676D02*
X204298476Y-60725485D01*
X204298476Y-60725485D02*
X204260381Y-60687390D01*
X204260381Y-60687390D02*
X204184190Y-60649295D01*
X204184190Y-60649295D02*
X204031809Y-60649295D01*
X204031809Y-60649295D02*
X203955619Y-60687390D01*
X203955619Y-60687390D02*
X203917524Y-60725485D01*
X203917524Y-60725485D02*
X203879428Y-60801676D01*
X203879428Y-60801676D02*
X203879428Y-60992152D01*
X203879428Y-60992152D02*
X203917524Y-61068342D01*
X203917524Y-61068342D02*
X203955619Y-61106438D01*
X203955619Y-61106438D02*
X204031809Y-61144533D01*
X204031809Y-61144533D02*
X204184190Y-61144533D01*
X204184190Y-61144533D02*
X204260381Y-61106438D01*
X204260381Y-61106438D02*
X204298476Y-61068342D01*
X204298476Y-61068342D02*
X204336571Y-60992152D01*
X203193714Y-51543295D02*
X202927047Y-51162342D01*
X202736571Y-51543295D02*
X202736571Y-50743295D01*
X202736571Y-50743295D02*
X203041333Y-50743295D01*
X203041333Y-50743295D02*
X203117523Y-50781390D01*
X203117523Y-50781390D02*
X203155618Y-50819485D01*
X203155618Y-50819485D02*
X203193714Y-50895676D01*
X203193714Y-50895676D02*
X203193714Y-51009961D01*
X203193714Y-51009961D02*
X203155618Y-51086152D01*
X203155618Y-51086152D02*
X203117523Y-51124247D01*
X203117523Y-51124247D02*
X203041333Y-51162342D01*
X203041333Y-51162342D02*
X202736571Y-51162342D01*
X203955618Y-51543295D02*
X203498475Y-51543295D01*
X203727047Y-51543295D02*
X203727047Y-50743295D01*
X203727047Y-50743295D02*
X203650856Y-50857580D01*
X203650856Y-50857580D02*
X203574666Y-50933771D01*
X203574666Y-50933771D02*
X203498475Y-50971866D01*
X204260380Y-50819485D02*
X204298476Y-50781390D01*
X204298476Y-50781390D02*
X204374666Y-50743295D01*
X204374666Y-50743295D02*
X204565142Y-50743295D01*
X204565142Y-50743295D02*
X204641333Y-50781390D01*
X204641333Y-50781390D02*
X204679428Y-50819485D01*
X204679428Y-50819485D02*
X204717523Y-50895676D01*
X204717523Y-50895676D02*
X204717523Y-50971866D01*
X204717523Y-50971866D02*
X204679428Y-51086152D01*
X204679428Y-51086152D02*
X204222285Y-51543295D01*
X204222285Y-51543295D02*
X204717523Y-51543295D01*
X155441667Y-66656295D02*
X155175000Y-66275342D01*
X154984524Y-66656295D02*
X154984524Y-65856295D01*
X154984524Y-65856295D02*
X155289286Y-65856295D01*
X155289286Y-65856295D02*
X155365476Y-65894390D01*
X155365476Y-65894390D02*
X155403571Y-65932485D01*
X155403571Y-65932485D02*
X155441667Y-66008676D01*
X155441667Y-66008676D02*
X155441667Y-66122961D01*
X155441667Y-66122961D02*
X155403571Y-66199152D01*
X155403571Y-66199152D02*
X155365476Y-66237247D01*
X155365476Y-66237247D02*
X155289286Y-66275342D01*
X155289286Y-66275342D02*
X154984524Y-66275342D01*
X156203571Y-66656295D02*
X155746428Y-66656295D01*
X155975000Y-66656295D02*
X155975000Y-65856295D01*
X155975000Y-65856295D02*
X155898809Y-65970580D01*
X155898809Y-65970580D02*
X155822619Y-66046771D01*
X155822619Y-66046771D02*
X155746428Y-66084866D01*
X175380667Y-37319295D02*
X175114000Y-36938342D01*
X174923524Y-37319295D02*
X174923524Y-36519295D01*
X174923524Y-36519295D02*
X175228286Y-36519295D01*
X175228286Y-36519295D02*
X175304476Y-36557390D01*
X175304476Y-36557390D02*
X175342571Y-36595485D01*
X175342571Y-36595485D02*
X175380667Y-36671676D01*
X175380667Y-36671676D02*
X175380667Y-36785961D01*
X175380667Y-36785961D02*
X175342571Y-36862152D01*
X175342571Y-36862152D02*
X175304476Y-36900247D01*
X175304476Y-36900247D02*
X175228286Y-36938342D01*
X175228286Y-36938342D02*
X174923524Y-36938342D01*
X176066381Y-36785961D02*
X176066381Y-37319295D01*
X175875905Y-36481200D02*
X175685428Y-37052628D01*
X175685428Y-37052628D02*
X176180667Y-37052628D01*
X196081667Y-38251295D02*
X195815000Y-37870342D01*
X195624524Y-38251295D02*
X195624524Y-37451295D01*
X195624524Y-37451295D02*
X195929286Y-37451295D01*
X195929286Y-37451295D02*
X196005476Y-37489390D01*
X196005476Y-37489390D02*
X196043571Y-37527485D01*
X196043571Y-37527485D02*
X196081667Y-37603676D01*
X196081667Y-37603676D02*
X196081667Y-37717961D01*
X196081667Y-37717961D02*
X196043571Y-37794152D01*
X196043571Y-37794152D02*
X196005476Y-37832247D01*
X196005476Y-37832247D02*
X195929286Y-37870342D01*
X195929286Y-37870342D02*
X195624524Y-37870342D01*
X196767381Y-37451295D02*
X196615000Y-37451295D01*
X196615000Y-37451295D02*
X196538809Y-37489390D01*
X196538809Y-37489390D02*
X196500714Y-37527485D01*
X196500714Y-37527485D02*
X196424524Y-37641771D01*
X196424524Y-37641771D02*
X196386428Y-37794152D01*
X196386428Y-37794152D02*
X196386428Y-38098914D01*
X196386428Y-38098914D02*
X196424524Y-38175104D01*
X196424524Y-38175104D02*
X196462619Y-38213200D01*
X196462619Y-38213200D02*
X196538809Y-38251295D01*
X196538809Y-38251295D02*
X196691190Y-38251295D01*
X196691190Y-38251295D02*
X196767381Y-38213200D01*
X196767381Y-38213200D02*
X196805476Y-38175104D01*
X196805476Y-38175104D02*
X196843571Y-38098914D01*
X196843571Y-38098914D02*
X196843571Y-37908438D01*
X196843571Y-37908438D02*
X196805476Y-37832247D01*
X196805476Y-37832247D02*
X196767381Y-37794152D01*
X196767381Y-37794152D02*
X196691190Y-37756057D01*
X196691190Y-37756057D02*
X196538809Y-37756057D01*
X196538809Y-37756057D02*
X196462619Y-37794152D01*
X196462619Y-37794152D02*
X196424524Y-37832247D01*
X196424524Y-37832247D02*
X196386428Y-37908438D01*
X155441667Y-69958295D02*
X155175000Y-69577342D01*
X154984524Y-69958295D02*
X154984524Y-69158295D01*
X154984524Y-69158295D02*
X155289286Y-69158295D01*
X155289286Y-69158295D02*
X155365476Y-69196390D01*
X155365476Y-69196390D02*
X155403571Y-69234485D01*
X155403571Y-69234485D02*
X155441667Y-69310676D01*
X155441667Y-69310676D02*
X155441667Y-69424961D01*
X155441667Y-69424961D02*
X155403571Y-69501152D01*
X155403571Y-69501152D02*
X155365476Y-69539247D01*
X155365476Y-69539247D02*
X155289286Y-69577342D01*
X155289286Y-69577342D02*
X154984524Y-69577342D01*
X155746428Y-69234485D02*
X155784524Y-69196390D01*
X155784524Y-69196390D02*
X155860714Y-69158295D01*
X155860714Y-69158295D02*
X156051190Y-69158295D01*
X156051190Y-69158295D02*
X156127381Y-69196390D01*
X156127381Y-69196390D02*
X156165476Y-69234485D01*
X156165476Y-69234485D02*
X156203571Y-69310676D01*
X156203571Y-69310676D02*
X156203571Y-69386866D01*
X156203571Y-69386866D02*
X156165476Y-69501152D01*
X156165476Y-69501152D02*
X155708333Y-69958295D01*
X155708333Y-69958295D02*
X156203571Y-69958295D01*
X203193714Y-44939295D02*
X202927047Y-44558342D01*
X202736571Y-44939295D02*
X202736571Y-44139295D01*
X202736571Y-44139295D02*
X203041333Y-44139295D01*
X203041333Y-44139295D02*
X203117523Y-44177390D01*
X203117523Y-44177390D02*
X203155618Y-44215485D01*
X203155618Y-44215485D02*
X203193714Y-44291676D01*
X203193714Y-44291676D02*
X203193714Y-44405961D01*
X203193714Y-44405961D02*
X203155618Y-44482152D01*
X203155618Y-44482152D02*
X203117523Y-44520247D01*
X203117523Y-44520247D02*
X203041333Y-44558342D01*
X203041333Y-44558342D02*
X202736571Y-44558342D01*
X203955618Y-44939295D02*
X203498475Y-44939295D01*
X203727047Y-44939295D02*
X203727047Y-44139295D01*
X203727047Y-44139295D02*
X203650856Y-44253580D01*
X203650856Y-44253580D02*
X203574666Y-44329771D01*
X203574666Y-44329771D02*
X203498475Y-44367866D01*
X204641333Y-44405961D02*
X204641333Y-44939295D01*
X204450857Y-44101200D02*
X204260380Y-44672628D01*
X204260380Y-44672628D02*
X204755619Y-44672628D01*
G36*
X206870383Y-37608696D02*
G01*
X206891266Y-37629579D01*
X206916000Y-37679047D01*
X206916000Y-37872209D01*
X206891265Y-37921677D01*
X206870382Y-37942561D01*
X206820914Y-37967295D01*
X206742038Y-37967295D01*
X206692570Y-37942561D01*
X206671686Y-37921676D01*
X206646952Y-37872208D01*
X206646952Y-37679048D01*
X206671686Y-37629580D01*
X206692569Y-37608696D01*
X206742039Y-37583961D01*
X206820914Y-37583961D01*
X206870383Y-37608696D01*
G37*
G36*
X208420813Y-37602958D02*
G01*
X208438446Y-37638224D01*
X208208857Y-37684142D01*
X208208857Y-37640953D01*
X208227853Y-37602959D01*
X208265849Y-37583961D01*
X208382819Y-37583961D01*
X208420813Y-37602958D01*
G37*
G36*
X206146573Y-37342029D02*
G01*
X206167456Y-37362912D01*
X206192191Y-37412381D01*
X206192191Y-37491255D01*
X206167456Y-37540724D01*
X206146573Y-37561608D01*
X206097105Y-37586342D01*
X205885048Y-37586342D01*
X205885048Y-37317295D01*
X206097105Y-37317295D01*
X206146573Y-37342029D01*
G37*
G36*
X209248686Y-38206184D02*
G01*
X205646159Y-38206184D01*
X205646159Y-37242295D01*
X205735048Y-37242295D01*
X205735048Y-38042295D01*
X205736489Y-38056927D01*
X205747688Y-38083963D01*
X205768380Y-38104655D01*
X205795416Y-38115854D01*
X205824680Y-38115854D01*
X205851716Y-38104655D01*
X205872408Y-38083963D01*
X205883607Y-38056927D01*
X205885048Y-38042295D01*
X205885048Y-37736342D01*
X206114810Y-37736342D01*
X206129442Y-37734901D01*
X206131931Y-37733869D01*
X206134619Y-37733679D01*
X206148351Y-37728424D01*
X206224541Y-37690329D01*
X206230840Y-37686364D01*
X206232668Y-37685607D01*
X206234724Y-37683918D01*
X206236984Y-37682497D01*
X206238283Y-37680998D01*
X206244033Y-37676280D01*
X206258971Y-37661342D01*
X206496952Y-37661342D01*
X206496952Y-37889914D01*
X206498393Y-37904546D01*
X206499423Y-37907034D01*
X206499615Y-37909724D01*
X206504870Y-37923456D01*
X206542966Y-37999645D01*
X206546928Y-38005939D01*
X206547687Y-38007771D01*
X206549380Y-38009834D01*
X206550799Y-38012088D01*
X206552293Y-38013384D01*
X206557014Y-38019136D01*
X206595109Y-38057232D01*
X206600860Y-38061952D01*
X206602159Y-38063450D01*
X206604414Y-38064869D01*
X206606474Y-38066560D01*
X206608304Y-38067318D01*
X206614602Y-38071282D01*
X206690792Y-38109377D01*
X206704524Y-38114632D01*
X206707211Y-38114822D01*
X206709701Y-38115854D01*
X206724333Y-38117295D01*
X206838619Y-38117295D01*
X206853251Y-38115854D01*
X206855740Y-38114822D01*
X206858428Y-38114632D01*
X206872160Y-38109377D01*
X206948351Y-38071282D01*
X206954650Y-38067317D01*
X206956478Y-38066560D01*
X206958534Y-38064872D01*
X206960794Y-38063450D01*
X206962094Y-38061950D01*
X206967844Y-38057232D01*
X207005939Y-38019136D01*
X207010656Y-38013387D01*
X207012155Y-38012088D01*
X207013576Y-38009829D01*
X207015266Y-38007771D01*
X207016023Y-38005941D01*
X207019987Y-37999645D01*
X207058082Y-37923455D01*
X207063337Y-37909723D01*
X207063527Y-37907035D01*
X207064559Y-37904546D01*
X207066000Y-37889914D01*
X207066000Y-37661342D01*
X207064559Y-37646710D01*
X207063527Y-37644220D01*
X207063337Y-37641533D01*
X207058082Y-37627801D01*
X207019987Y-37551611D01*
X207016022Y-37545311D01*
X207015265Y-37543484D01*
X207013576Y-37541427D01*
X207012155Y-37539168D01*
X207010656Y-37537868D01*
X207005938Y-37532119D01*
X206988919Y-37515100D01*
X207182919Y-37515100D01*
X207185553Y-37529565D01*
X207337934Y-38062899D01*
X207343339Y-38076573D01*
X207346314Y-38080321D01*
X207348200Y-38084720D01*
X207355337Y-38091685D01*
X207361535Y-38099492D01*
X207365716Y-38101815D01*
X207369143Y-38105159D01*
X207378401Y-38108862D01*
X207387115Y-38113703D01*
X207391869Y-38114249D01*
X207396314Y-38116027D01*
X207406279Y-38115905D01*
X207416187Y-38117044D01*
X207420791Y-38115728D01*
X207425576Y-38115670D01*
X207434739Y-38111742D01*
X207444325Y-38109004D01*
X207448072Y-38106028D01*
X207452473Y-38104143D01*
X207459438Y-38097005D01*
X207467244Y-38090809D01*
X207469567Y-38086627D01*
X207472912Y-38083200D01*
X207479684Y-38070149D01*
X207562429Y-37863286D01*
X207645174Y-38070149D01*
X207651946Y-38083200D01*
X207655290Y-38086627D01*
X207657614Y-38090809D01*
X207665419Y-38097005D01*
X207672385Y-38104143D01*
X207676785Y-38106028D01*
X207680533Y-38109004D01*
X207690116Y-38111741D01*
X207699282Y-38115670D01*
X207704069Y-38115728D01*
X207708671Y-38117043D01*
X207718573Y-38115905D01*
X207728544Y-38116027D01*
X207732988Y-38114249D01*
X207737743Y-38113703D01*
X207746455Y-38108862D01*
X207755715Y-38105159D01*
X207759142Y-38101814D01*
X207763324Y-38099491D01*
X207769520Y-38091685D01*
X207776658Y-38084720D01*
X207778543Y-38080319D01*
X207781519Y-38076572D01*
X207786924Y-38062899D01*
X207912539Y-37623247D01*
X208058857Y-37623247D01*
X208058857Y-37928009D01*
X208060298Y-37942641D01*
X208061328Y-37945129D01*
X208061520Y-37947819D01*
X208066775Y-37961550D01*
X208104871Y-38037741D01*
X208106411Y-38040187D01*
X208106796Y-38041342D01*
X208108043Y-38042780D01*
X208112704Y-38050184D01*
X208119805Y-38056343D01*
X208125969Y-38063450D01*
X208133374Y-38068111D01*
X208134811Y-38069357D01*
X208135964Y-38069741D01*
X208138412Y-38071282D01*
X208214602Y-38109377D01*
X208228334Y-38114632D01*
X208231021Y-38114822D01*
X208233511Y-38115854D01*
X208248143Y-38117295D01*
X208400524Y-38117295D01*
X208415156Y-38115854D01*
X208417645Y-38114822D01*
X208420333Y-38114632D01*
X208434065Y-38109377D01*
X208510256Y-38071282D01*
X208522699Y-38063450D01*
X208541872Y-38041342D01*
X208551126Y-38013581D01*
X208549052Y-37984391D01*
X208535965Y-37958216D01*
X208513857Y-37939043D01*
X208486096Y-37929789D01*
X208456906Y-37931863D01*
X208443174Y-37937118D01*
X208382819Y-37967295D01*
X208265848Y-37967295D01*
X208227854Y-37948298D01*
X208208857Y-37910303D01*
X208208857Y-37837113D01*
X208529518Y-37772982D01*
X208543584Y-37768699D01*
X208549689Y-37764610D01*
X208556478Y-37761798D01*
X208561730Y-37756545D01*
X208567898Y-37752415D01*
X208571972Y-37746303D01*
X208577170Y-37741106D01*
X208580011Y-37734245D01*
X208584131Y-37728067D01*
X208585557Y-37720858D01*
X208588369Y-37714070D01*
X208589810Y-37699438D01*
X208589810Y-37623247D01*
X208588369Y-37608615D01*
X208587337Y-37606125D01*
X208587147Y-37603438D01*
X208581892Y-37589706D01*
X208543797Y-37513516D01*
X208542256Y-37511068D01*
X208541872Y-37509915D01*
X208541045Y-37508961D01*
X208782667Y-37508961D01*
X208782667Y-38042295D01*
X208784108Y-38056927D01*
X208795307Y-38083963D01*
X208815999Y-38104655D01*
X208843035Y-38115854D01*
X208872299Y-38115854D01*
X208899335Y-38104655D01*
X208920027Y-38083963D01*
X208931226Y-38056927D01*
X208932667Y-38042295D01*
X208932667Y-37679047D01*
X208957401Y-37629579D01*
X208978284Y-37608695D01*
X209027753Y-37583961D01*
X209086238Y-37583961D01*
X209100870Y-37582520D01*
X209127906Y-37571321D01*
X209148598Y-37550629D01*
X209159797Y-37523593D01*
X209159797Y-37494329D01*
X209148598Y-37467293D01*
X209127906Y-37446601D01*
X209100870Y-37435402D01*
X209086238Y-37433961D01*
X209010048Y-37433961D01*
X208995416Y-37435402D01*
X208992927Y-37436432D01*
X208990238Y-37436624D01*
X208976506Y-37441879D01*
X208920996Y-37469634D01*
X208920027Y-37467293D01*
X208899335Y-37446601D01*
X208872299Y-37435402D01*
X208843035Y-37435402D01*
X208815999Y-37446601D01*
X208795307Y-37467293D01*
X208784108Y-37494329D01*
X208782667Y-37508961D01*
X208541045Y-37508961D01*
X208540626Y-37508478D01*
X208535965Y-37501073D01*
X208528858Y-37494909D01*
X208522699Y-37487808D01*
X208515295Y-37483147D01*
X208513857Y-37481900D01*
X208512702Y-37481515D01*
X208510256Y-37479975D01*
X208434065Y-37441879D01*
X208420334Y-37436624D01*
X208417644Y-37436432D01*
X208415156Y-37435402D01*
X208400524Y-37433961D01*
X208248143Y-37433961D01*
X208233511Y-37435402D01*
X208231019Y-37436434D01*
X208228333Y-37436625D01*
X208214601Y-37441880D01*
X208138411Y-37479975D01*
X208135963Y-37481515D01*
X208134811Y-37481900D01*
X208133374Y-37483145D01*
X208125969Y-37487808D01*
X208119807Y-37494912D01*
X208112704Y-37501073D01*
X208108043Y-37508476D01*
X208106795Y-37509916D01*
X208106409Y-37511071D01*
X208104871Y-37513516D01*
X208066775Y-37589705D01*
X208061520Y-37603437D01*
X208061328Y-37606126D01*
X208060298Y-37608615D01*
X208058857Y-37623247D01*
X207912539Y-37623247D01*
X207939305Y-37529565D01*
X207941940Y-37515100D01*
X207938599Y-37486028D01*
X207924387Y-37460447D01*
X207901468Y-37442252D01*
X207873330Y-37434212D01*
X207844258Y-37437553D01*
X207818678Y-37451764D01*
X207800482Y-37474683D01*
X207795077Y-37488357D01*
X207702966Y-37810742D01*
X207632065Y-37633488D01*
X207625293Y-37620437D01*
X207624642Y-37619770D01*
X207624277Y-37618917D01*
X207614447Y-37609323D01*
X207604854Y-37599494D01*
X207604000Y-37599128D01*
X207603334Y-37598478D01*
X207590575Y-37593374D01*
X207577957Y-37587967D01*
X207577027Y-37587955D01*
X207576163Y-37587610D01*
X207562429Y-37587777D01*
X207548695Y-37587610D01*
X207547830Y-37587955D01*
X207546901Y-37587967D01*
X207534282Y-37593374D01*
X207521524Y-37598478D01*
X207520857Y-37599128D01*
X207520004Y-37599494D01*
X207510410Y-37609323D01*
X207500581Y-37618917D01*
X207500215Y-37619770D01*
X207499565Y-37620437D01*
X207492793Y-37633488D01*
X207421891Y-37810742D01*
X207329781Y-37488357D01*
X207324376Y-37474684D01*
X207306181Y-37451765D01*
X207280600Y-37437553D01*
X207251528Y-37434213D01*
X207223390Y-37442252D01*
X207200471Y-37460447D01*
X207186259Y-37486028D01*
X207182919Y-37515100D01*
X206988919Y-37515100D01*
X206967843Y-37494024D01*
X206962090Y-37489303D01*
X206960794Y-37487808D01*
X206958539Y-37486388D01*
X206956478Y-37484697D01*
X206954647Y-37483938D01*
X206948351Y-37479975D01*
X206872160Y-37441879D01*
X206858429Y-37436624D01*
X206855739Y-37436432D01*
X206853251Y-37435402D01*
X206838619Y-37433961D01*
X206724333Y-37433961D01*
X206709701Y-37435402D01*
X206707209Y-37436434D01*
X206704523Y-37436625D01*
X206690791Y-37441880D01*
X206614601Y-37479975D01*
X206608303Y-37483939D01*
X206606475Y-37484697D01*
X206604414Y-37486388D01*
X206602159Y-37487808D01*
X206600862Y-37489303D01*
X206595110Y-37494024D01*
X206557015Y-37532119D01*
X206552294Y-37537871D01*
X206550799Y-37539168D01*
X206549379Y-37541422D01*
X206547688Y-37543484D01*
X206546929Y-37545314D01*
X206542966Y-37551611D01*
X206504870Y-37627800D01*
X206499615Y-37641532D01*
X206499423Y-37644221D01*
X206498393Y-37646710D01*
X206496952Y-37661342D01*
X206258971Y-37661342D01*
X206282128Y-37638185D01*
X206286848Y-37632432D01*
X206288344Y-37631136D01*
X206289763Y-37628881D01*
X206291455Y-37626820D01*
X206292213Y-37624989D01*
X206296177Y-37618693D01*
X206334273Y-37542503D01*
X206339528Y-37528771D01*
X206339719Y-37526081D01*
X206340750Y-37523593D01*
X206342191Y-37508961D01*
X206342191Y-37394676D01*
X206340750Y-37380044D01*
X206339719Y-37377555D01*
X206339528Y-37374866D01*
X206334273Y-37361134D01*
X206296177Y-37284944D01*
X206292213Y-37278647D01*
X206291455Y-37276817D01*
X206289763Y-37274755D01*
X206288344Y-37272501D01*
X206286848Y-37271204D01*
X206282128Y-37265452D01*
X206244033Y-37227357D01*
X206238283Y-37222638D01*
X206236984Y-37221140D01*
X206234724Y-37219718D01*
X206232668Y-37218030D01*
X206230840Y-37217272D01*
X206224541Y-37213308D01*
X206148351Y-37175213D01*
X206134619Y-37169958D01*
X206131931Y-37169767D01*
X206129442Y-37168736D01*
X206114810Y-37167295D01*
X205810048Y-37167295D01*
X205795416Y-37168736D01*
X205768380Y-37179935D01*
X205747688Y-37200627D01*
X205736489Y-37227663D01*
X205735048Y-37242295D01*
X205646159Y-37242295D01*
X205646159Y-37078406D01*
X209248686Y-37078406D01*
X209248686Y-38206184D01*
G37*
X147174295Y-49028332D02*
X146793342Y-49294999D01*
X147174295Y-49485475D02*
X146374295Y-49485475D01*
X146374295Y-49485475D02*
X146374295Y-49180713D01*
X146374295Y-49180713D02*
X146412390Y-49104523D01*
X146412390Y-49104523D02*
X146450485Y-49066428D01*
X146450485Y-49066428D02*
X146526676Y-49028332D01*
X146526676Y-49028332D02*
X146640961Y-49028332D01*
X146640961Y-49028332D02*
X146717152Y-49066428D01*
X146717152Y-49066428D02*
X146755247Y-49104523D01*
X146755247Y-49104523D02*
X146793342Y-49180713D01*
X146793342Y-49180713D02*
X146793342Y-49485475D01*
X146717152Y-48571190D02*
X146679057Y-48647380D01*
X146679057Y-48647380D02*
X146640961Y-48685475D01*
X146640961Y-48685475D02*
X146564771Y-48723571D01*
X146564771Y-48723571D02*
X146526676Y-48723571D01*
X146526676Y-48723571D02*
X146450485Y-48685475D01*
X146450485Y-48685475D02*
X146412390Y-48647380D01*
X146412390Y-48647380D02*
X146374295Y-48571190D01*
X146374295Y-48571190D02*
X146374295Y-48418809D01*
X146374295Y-48418809D02*
X146412390Y-48342618D01*
X146412390Y-48342618D02*
X146450485Y-48304523D01*
X146450485Y-48304523D02*
X146526676Y-48266428D01*
X146526676Y-48266428D02*
X146564771Y-48266428D01*
X146564771Y-48266428D02*
X146640961Y-48304523D01*
X146640961Y-48304523D02*
X146679057Y-48342618D01*
X146679057Y-48342618D02*
X146717152Y-48418809D01*
X146717152Y-48418809D02*
X146717152Y-48571190D01*
X146717152Y-48571190D02*
X146755247Y-48647380D01*
X146755247Y-48647380D02*
X146793342Y-48685475D01*
X146793342Y-48685475D02*
X146869533Y-48723571D01*
X146869533Y-48723571D02*
X147021914Y-48723571D01*
X147021914Y-48723571D02*
X147098104Y-48685475D01*
X147098104Y-48685475D02*
X147136200Y-48647380D01*
X147136200Y-48647380D02*
X147174295Y-48571190D01*
X147174295Y-48571190D02*
X147174295Y-48418809D01*
X147174295Y-48418809D02*
X147136200Y-48342618D01*
X147136200Y-48342618D02*
X147098104Y-48304523D01*
X147098104Y-48304523D02*
X147021914Y-48266428D01*
X147021914Y-48266428D02*
X146869533Y-48266428D01*
X146869533Y-48266428D02*
X146793342Y-48304523D01*
X146793342Y-48304523D02*
X146755247Y-48342618D01*
X146755247Y-48342618D02*
X146717152Y-48418809D01*
X146805667Y-41180104D02*
X146767571Y-41218200D01*
X146767571Y-41218200D02*
X146653286Y-41256295D01*
X146653286Y-41256295D02*
X146577095Y-41256295D01*
X146577095Y-41256295D02*
X146462809Y-41218200D01*
X146462809Y-41218200D02*
X146386619Y-41142009D01*
X146386619Y-41142009D02*
X146348524Y-41065819D01*
X146348524Y-41065819D02*
X146310428Y-40913438D01*
X146310428Y-40913438D02*
X146310428Y-40799152D01*
X146310428Y-40799152D02*
X146348524Y-40646771D01*
X146348524Y-40646771D02*
X146386619Y-40570580D01*
X146386619Y-40570580D02*
X146462809Y-40494390D01*
X146462809Y-40494390D02*
X146577095Y-40456295D01*
X146577095Y-40456295D02*
X146653286Y-40456295D01*
X146653286Y-40456295D02*
X146767571Y-40494390D01*
X146767571Y-40494390D02*
X146805667Y-40532485D01*
X147491381Y-40722961D02*
X147491381Y-41256295D01*
X147300905Y-40418200D02*
X147110428Y-40989628D01*
X147110428Y-40989628D02*
X147605667Y-40989628D01*
X186105809Y-36756485D02*
X186029619Y-36718390D01*
X186029619Y-36718390D02*
X185953428Y-36642200D01*
X185953428Y-36642200D02*
X185839142Y-36527914D01*
X185839142Y-36527914D02*
X185762952Y-36489819D01*
X185762952Y-36489819D02*
X185686761Y-36489819D01*
X185724857Y-36680295D02*
X185648666Y-36642200D01*
X185648666Y-36642200D02*
X185572476Y-36566009D01*
X185572476Y-36566009D02*
X185534380Y-36413628D01*
X185534380Y-36413628D02*
X185534380Y-36146961D01*
X185534380Y-36146961D02*
X185572476Y-35994580D01*
X185572476Y-35994580D02*
X185648666Y-35918390D01*
X185648666Y-35918390D02*
X185724857Y-35880295D01*
X185724857Y-35880295D02*
X185877238Y-35880295D01*
X185877238Y-35880295D02*
X185953428Y-35918390D01*
X185953428Y-35918390D02*
X186029619Y-35994580D01*
X186029619Y-35994580D02*
X186067714Y-36146961D01*
X186067714Y-36146961D02*
X186067714Y-36413628D01*
X186067714Y-36413628D02*
X186029619Y-36566009D01*
X186029619Y-36566009D02*
X185953428Y-36642200D01*
X185953428Y-36642200D02*
X185877238Y-36680295D01*
X185877238Y-36680295D02*
X185724857Y-36680295D01*
X186372475Y-35956485D02*
X186410571Y-35918390D01*
X186410571Y-35918390D02*
X186486761Y-35880295D01*
X186486761Y-35880295D02*
X186677237Y-35880295D01*
X186677237Y-35880295D02*
X186753428Y-35918390D01*
X186753428Y-35918390D02*
X186791523Y-35956485D01*
X186791523Y-35956485D02*
X186829618Y-36032676D01*
X186829618Y-36032676D02*
X186829618Y-36108866D01*
X186829618Y-36108866D02*
X186791523Y-36223152D01*
X186791523Y-36223152D02*
X186334380Y-36680295D01*
X186334380Y-36680295D02*
X186829618Y-36680295D01*
X203193714Y-48241295D02*
X202927047Y-47860342D01*
X202736571Y-48241295D02*
X202736571Y-47441295D01*
X202736571Y-47441295D02*
X203041333Y-47441295D01*
X203041333Y-47441295D02*
X203117523Y-47479390D01*
X203117523Y-47479390D02*
X203155618Y-47517485D01*
X203155618Y-47517485D02*
X203193714Y-47593676D01*
X203193714Y-47593676D02*
X203193714Y-47707961D01*
X203193714Y-47707961D02*
X203155618Y-47784152D01*
X203155618Y-47784152D02*
X203117523Y-47822247D01*
X203117523Y-47822247D02*
X203041333Y-47860342D01*
X203041333Y-47860342D02*
X202736571Y-47860342D01*
X203955618Y-48241295D02*
X203498475Y-48241295D01*
X203727047Y-48241295D02*
X203727047Y-47441295D01*
X203727047Y-47441295D02*
X203650856Y-47555580D01*
X203650856Y-47555580D02*
X203574666Y-47631771D01*
X203574666Y-47631771D02*
X203498475Y-47669866D01*
X204222285Y-47441295D02*
X204717523Y-47441295D01*
X204717523Y-47441295D02*
X204450857Y-47746057D01*
X204450857Y-47746057D02*
X204565142Y-47746057D01*
X204565142Y-47746057D02*
X204641333Y-47784152D01*
X204641333Y-47784152D02*
X204679428Y-47822247D01*
X204679428Y-47822247D02*
X204717523Y-47898438D01*
X204717523Y-47898438D02*
X204717523Y-48088914D01*
X204717523Y-48088914D02*
X204679428Y-48165104D01*
X204679428Y-48165104D02*
X204641333Y-48203200D01*
X204641333Y-48203200D02*
X204565142Y-48241295D01*
X204565142Y-48241295D02*
X204336571Y-48241295D01*
X204336571Y-48241295D02*
X204260380Y-48203200D01*
X204260380Y-48203200D02*
X204222285Y-48165104D01*
X203193714Y-58147295D02*
X202927047Y-57766342D01*
X202736571Y-58147295D02*
X202736571Y-57347295D01*
X202736571Y-57347295D02*
X203041333Y-57347295D01*
X203041333Y-57347295D02*
X203117523Y-57385390D01*
X203117523Y-57385390D02*
X203155618Y-57423485D01*
X203155618Y-57423485D02*
X203193714Y-57499676D01*
X203193714Y-57499676D02*
X203193714Y-57613961D01*
X203193714Y-57613961D02*
X203155618Y-57690152D01*
X203155618Y-57690152D02*
X203117523Y-57728247D01*
X203117523Y-57728247D02*
X203041333Y-57766342D01*
X203041333Y-57766342D02*
X202736571Y-57766342D01*
X203955618Y-58147295D02*
X203498475Y-58147295D01*
X203727047Y-58147295D02*
X203727047Y-57347295D01*
X203727047Y-57347295D02*
X203650856Y-57461580D01*
X203650856Y-57461580D02*
X203574666Y-57537771D01*
X203574666Y-57537771D02*
X203498475Y-57575866D01*
X204450857Y-57347295D02*
X204527047Y-57347295D01*
X204527047Y-57347295D02*
X204603238Y-57385390D01*
X204603238Y-57385390D02*
X204641333Y-57423485D01*
X204641333Y-57423485D02*
X204679428Y-57499676D01*
X204679428Y-57499676D02*
X204717523Y-57652057D01*
X204717523Y-57652057D02*
X204717523Y-57842533D01*
X204717523Y-57842533D02*
X204679428Y-57994914D01*
X204679428Y-57994914D02*
X204641333Y-58071104D01*
X204641333Y-58071104D02*
X204603238Y-58109200D01*
X204603238Y-58109200D02*
X204527047Y-58147295D01*
X204527047Y-58147295D02*
X204450857Y-58147295D01*
X204450857Y-58147295D02*
X204374666Y-58109200D01*
X204374666Y-58109200D02*
X204336571Y-58071104D01*
X204336571Y-58071104D02*
X204298476Y-57994914D01*
X204298476Y-57994914D02*
X204260380Y-57842533D01*
X204260380Y-57842533D02*
X204260380Y-57652057D01*
X204260380Y-57652057D02*
X204298476Y-57499676D01*
X204298476Y-57499676D02*
X204336571Y-57423485D01*
X204336571Y-57423485D02*
X204374666Y-57385390D01*
X204374666Y-57385390D02*
X204450857Y-57347295D01*
X210203295Y-53162166D02*
X210774723Y-53162166D01*
X210774723Y-53162166D02*
X210889009Y-53200261D01*
X210889009Y-53200261D02*
X210965200Y-53276452D01*
X210965200Y-53276452D02*
X211003295Y-53390737D01*
X211003295Y-53390737D02*
X211003295Y-53466928D01*
X210203295Y-52857404D02*
X210203295Y-52362166D01*
X210203295Y-52362166D02*
X210508057Y-52628832D01*
X210508057Y-52628832D02*
X210508057Y-52514547D01*
X210508057Y-52514547D02*
X210546152Y-52438356D01*
X210546152Y-52438356D02*
X210584247Y-52400261D01*
X210584247Y-52400261D02*
X210660438Y-52362166D01*
X210660438Y-52362166D02*
X210850914Y-52362166D01*
X210850914Y-52362166D02*
X210927104Y-52400261D01*
X210927104Y-52400261D02*
X210965200Y-52438356D01*
X210965200Y-52438356D02*
X211003295Y-52514547D01*
X211003295Y-52514547D02*
X211003295Y-52743118D01*
X211003295Y-52743118D02*
X210965200Y-52819309D01*
X210965200Y-52819309D02*
X210927104Y-52857404D01*
X180067304Y-67494132D02*
X180105400Y-67532228D01*
X180105400Y-67532228D02*
X180143495Y-67646513D01*
X180143495Y-67646513D02*
X180143495Y-67722704D01*
X180143495Y-67722704D02*
X180105400Y-67836990D01*
X180105400Y-67836990D02*
X180029209Y-67913180D01*
X180029209Y-67913180D02*
X179953019Y-67951275D01*
X179953019Y-67951275D02*
X179800638Y-67989371D01*
X179800638Y-67989371D02*
X179686352Y-67989371D01*
X179686352Y-67989371D02*
X179533971Y-67951275D01*
X179533971Y-67951275D02*
X179457780Y-67913180D01*
X179457780Y-67913180D02*
X179381590Y-67836990D01*
X179381590Y-67836990D02*
X179343495Y-67722704D01*
X179343495Y-67722704D02*
X179343495Y-67646513D01*
X179343495Y-67646513D02*
X179381590Y-67532228D01*
X179381590Y-67532228D02*
X179419685Y-67494132D01*
X179419685Y-67189371D02*
X179381590Y-67151275D01*
X179381590Y-67151275D02*
X179343495Y-67075085D01*
X179343495Y-67075085D02*
X179343495Y-66884609D01*
X179343495Y-66884609D02*
X179381590Y-66808418D01*
X179381590Y-66808418D02*
X179419685Y-66770323D01*
X179419685Y-66770323D02*
X179495876Y-66732228D01*
X179495876Y-66732228D02*
X179572066Y-66732228D01*
X179572066Y-66732228D02*
X179686352Y-66770323D01*
X179686352Y-66770323D02*
X180143495Y-67227466D01*
X180143495Y-67227466D02*
X180143495Y-66732228D01*
X195700714Y-66656295D02*
X195434047Y-66275342D01*
X195243571Y-66656295D02*
X195243571Y-65856295D01*
X195243571Y-65856295D02*
X195548333Y-65856295D01*
X195548333Y-65856295D02*
X195624523Y-65894390D01*
X195624523Y-65894390D02*
X195662618Y-65932485D01*
X195662618Y-65932485D02*
X195700714Y-66008676D01*
X195700714Y-66008676D02*
X195700714Y-66122961D01*
X195700714Y-66122961D02*
X195662618Y-66199152D01*
X195662618Y-66199152D02*
X195624523Y-66237247D01*
X195624523Y-66237247D02*
X195548333Y-66275342D01*
X195548333Y-66275342D02*
X195243571Y-66275342D01*
X196462618Y-66656295D02*
X196005475Y-66656295D01*
X196234047Y-66656295D02*
X196234047Y-65856295D01*
X196234047Y-65856295D02*
X196157856Y-65970580D01*
X196157856Y-65970580D02*
X196081666Y-66046771D01*
X196081666Y-66046771D02*
X196005475Y-66084866D01*
X197186428Y-65856295D02*
X196805476Y-65856295D01*
X196805476Y-65856295D02*
X196767380Y-66237247D01*
X196767380Y-66237247D02*
X196805476Y-66199152D01*
X196805476Y-66199152D02*
X196881666Y-66161057D01*
X196881666Y-66161057D02*
X197072142Y-66161057D01*
X197072142Y-66161057D02*
X197148333Y-66199152D01*
X197148333Y-66199152D02*
X197186428Y-66237247D01*
X197186428Y-66237247D02*
X197224523Y-66313438D01*
X197224523Y-66313438D02*
X197224523Y-66503914D01*
X197224523Y-66503914D02*
X197186428Y-66580104D01*
X197186428Y-66580104D02*
X197148333Y-66618200D01*
X197148333Y-66618200D02*
X197072142Y-66656295D01*
X197072142Y-66656295D02*
X196881666Y-66656295D01*
X196881666Y-66656295D02*
X196805476Y-66618200D01*
X196805476Y-66618200D02*
X196767380Y-66580104D01*
X172586667Y-53626104D02*
X172548571Y-53664200D01*
X172548571Y-53664200D02*
X172434286Y-53702295D01*
X172434286Y-53702295D02*
X172358095Y-53702295D01*
X172358095Y-53702295D02*
X172243809Y-53664200D01*
X172243809Y-53664200D02*
X172167619Y-53588009D01*
X172167619Y-53588009D02*
X172129524Y-53511819D01*
X172129524Y-53511819D02*
X172091428Y-53359438D01*
X172091428Y-53359438D02*
X172091428Y-53245152D01*
X172091428Y-53245152D02*
X172129524Y-53092771D01*
X172129524Y-53092771D02*
X172167619Y-53016580D01*
X172167619Y-53016580D02*
X172243809Y-52940390D01*
X172243809Y-52940390D02*
X172358095Y-52902295D01*
X172358095Y-52902295D02*
X172434286Y-52902295D01*
X172434286Y-52902295D02*
X172548571Y-52940390D01*
X172548571Y-52940390D02*
X172586667Y-52978485D01*
X173272381Y-52902295D02*
X173120000Y-52902295D01*
X173120000Y-52902295D02*
X173043809Y-52940390D01*
X173043809Y-52940390D02*
X173005714Y-52978485D01*
X173005714Y-52978485D02*
X172929524Y-53092771D01*
X172929524Y-53092771D02*
X172891428Y-53245152D01*
X172891428Y-53245152D02*
X172891428Y-53549914D01*
X172891428Y-53549914D02*
X172929524Y-53626104D01*
X172929524Y-53626104D02*
X172967619Y-53664200D01*
X172967619Y-53664200D02*
X173043809Y-53702295D01*
X173043809Y-53702295D02*
X173196190Y-53702295D01*
X173196190Y-53702295D02*
X173272381Y-53664200D01*
X173272381Y-53664200D02*
X173310476Y-53626104D01*
X173310476Y-53626104D02*
X173348571Y-53549914D01*
X173348571Y-53549914D02*
X173348571Y-53359438D01*
X173348571Y-53359438D02*
X173310476Y-53283247D01*
X173310476Y-53283247D02*
X173272381Y-53245152D01*
X173272381Y-53245152D02*
X173196190Y-53207057D01*
X173196190Y-53207057D02*
X173043809Y-53207057D01*
X173043809Y-53207057D02*
X172967619Y-53245152D01*
X172967619Y-53245152D02*
X172929524Y-53283247D01*
X172929524Y-53283247D02*
X172891428Y-53359438D01*
X158394476Y-58998295D02*
X158394476Y-59645914D01*
X158394476Y-59645914D02*
X158432571Y-59722104D01*
X158432571Y-59722104D02*
X158470666Y-59760200D01*
X158470666Y-59760200D02*
X158546857Y-59798295D01*
X158546857Y-59798295D02*
X158699238Y-59798295D01*
X158699238Y-59798295D02*
X158775428Y-59760200D01*
X158775428Y-59760200D02*
X158813523Y-59722104D01*
X158813523Y-59722104D02*
X158851619Y-59645914D01*
X158851619Y-59645914D02*
X158851619Y-58998295D01*
X159270666Y-59798295D02*
X159423047Y-59798295D01*
X159423047Y-59798295D02*
X159499237Y-59760200D01*
X159499237Y-59760200D02*
X159537333Y-59722104D01*
X159537333Y-59722104D02*
X159613523Y-59607819D01*
X159613523Y-59607819D02*
X159651618Y-59455438D01*
X159651618Y-59455438D02*
X159651618Y-59150676D01*
X159651618Y-59150676D02*
X159613523Y-59074485D01*
X159613523Y-59074485D02*
X159575428Y-59036390D01*
X159575428Y-59036390D02*
X159499237Y-58998295D01*
X159499237Y-58998295D02*
X159346856Y-58998295D01*
X159346856Y-58998295D02*
X159270666Y-59036390D01*
X159270666Y-59036390D02*
X159232571Y-59074485D01*
X159232571Y-59074485D02*
X159194475Y-59150676D01*
X159194475Y-59150676D02*
X159194475Y-59341152D01*
X159194475Y-59341152D02*
X159232571Y-59417342D01*
X159232571Y-59417342D02*
X159270666Y-59455438D01*
X159270666Y-59455438D02*
X159346856Y-59493533D01*
X159346856Y-59493533D02*
X159499237Y-59493533D01*
X159499237Y-59493533D02*
X159575428Y-59455438D01*
X159575428Y-59455438D02*
X159613523Y-59417342D01*
X159613523Y-59417342D02*
X159651618Y-59341152D01*
X164236609Y-61347704D02*
X164198513Y-61385800D01*
X164198513Y-61385800D02*
X164084228Y-61423895D01*
X164084228Y-61423895D02*
X164008037Y-61423895D01*
X164008037Y-61423895D02*
X163893751Y-61385800D01*
X163893751Y-61385800D02*
X163817561Y-61309609D01*
X163817561Y-61309609D02*
X163779466Y-61233419D01*
X163779466Y-61233419D02*
X163741370Y-61081038D01*
X163741370Y-61081038D02*
X163741370Y-60966752D01*
X163741370Y-60966752D02*
X163779466Y-60814371D01*
X163779466Y-60814371D02*
X163817561Y-60738180D01*
X163817561Y-60738180D02*
X163893751Y-60661990D01*
X163893751Y-60661990D02*
X164008037Y-60623895D01*
X164008037Y-60623895D02*
X164084228Y-60623895D01*
X164084228Y-60623895D02*
X164198513Y-60661990D01*
X164198513Y-60661990D02*
X164236609Y-60700085D01*
X164579466Y-61423895D02*
X164579466Y-60623895D01*
X164579466Y-60623895D02*
X164769942Y-60623895D01*
X164769942Y-60623895D02*
X164884228Y-60661990D01*
X164884228Y-60661990D02*
X164960418Y-60738180D01*
X164960418Y-60738180D02*
X164998513Y-60814371D01*
X164998513Y-60814371D02*
X165036609Y-60966752D01*
X165036609Y-60966752D02*
X165036609Y-61081038D01*
X165036609Y-61081038D02*
X164998513Y-61233419D01*
X164998513Y-61233419D02*
X164960418Y-61309609D01*
X164960418Y-61309609D02*
X164884228Y-61385800D01*
X164884228Y-61385800D02*
X164769942Y-61423895D01*
X164769942Y-61423895D02*
X164579466Y-61423895D01*
X165722323Y-60890561D02*
X165722323Y-61423895D01*
X165531847Y-60585800D02*
X165341370Y-61157228D01*
X165341370Y-61157228D02*
X165836609Y-61157228D01*
X166293752Y-60623895D02*
X166369942Y-60623895D01*
X166369942Y-60623895D02*
X166446133Y-60661990D01*
X166446133Y-60661990D02*
X166484228Y-60700085D01*
X166484228Y-60700085D02*
X166522323Y-60776276D01*
X166522323Y-60776276D02*
X166560418Y-60928657D01*
X166560418Y-60928657D02*
X166560418Y-61119133D01*
X166560418Y-61119133D02*
X166522323Y-61271514D01*
X166522323Y-61271514D02*
X166484228Y-61347704D01*
X166484228Y-61347704D02*
X166446133Y-61385800D01*
X166446133Y-61385800D02*
X166369942Y-61423895D01*
X166369942Y-61423895D02*
X166293752Y-61423895D01*
X166293752Y-61423895D02*
X166217561Y-61385800D01*
X166217561Y-61385800D02*
X166179466Y-61347704D01*
X166179466Y-61347704D02*
X166141371Y-61271514D01*
X166141371Y-61271514D02*
X166103275Y-61119133D01*
X166103275Y-61119133D02*
X166103275Y-60928657D01*
X166103275Y-60928657D02*
X166141371Y-60776276D01*
X166141371Y-60776276D02*
X166179466Y-60700085D01*
X166179466Y-60700085D02*
X166217561Y-60661990D01*
X166217561Y-60661990D02*
X166293752Y-60623895D01*
X167284228Y-60623895D02*
X166903276Y-60623895D01*
X166903276Y-60623895D02*
X166865180Y-61004847D01*
X166865180Y-61004847D02*
X166903276Y-60966752D01*
X166903276Y-60966752D02*
X166979466Y-60928657D01*
X166979466Y-60928657D02*
X167169942Y-60928657D01*
X167169942Y-60928657D02*
X167246133Y-60966752D01*
X167246133Y-60966752D02*
X167284228Y-61004847D01*
X167284228Y-61004847D02*
X167322323Y-61081038D01*
X167322323Y-61081038D02*
X167322323Y-61271514D01*
X167322323Y-61271514D02*
X167284228Y-61347704D01*
X167284228Y-61347704D02*
X167246133Y-61385800D01*
X167246133Y-61385800D02*
X167169942Y-61423895D01*
X167169942Y-61423895D02*
X166979466Y-61423895D01*
X166979466Y-61423895D02*
X166903276Y-61385800D01*
X166903276Y-61385800D02*
X166865180Y-61347704D01*
X168084228Y-61423895D02*
X167627085Y-61423895D01*
X167855657Y-61423895D02*
X167855657Y-60623895D01*
X167855657Y-60623895D02*
X167779466Y-60738180D01*
X167779466Y-60738180D02*
X167703276Y-60814371D01*
X167703276Y-60814371D02*
X167627085Y-60852466D01*
X154552667Y-53626104D02*
X154514571Y-53664200D01*
X154514571Y-53664200D02*
X154400286Y-53702295D01*
X154400286Y-53702295D02*
X154324095Y-53702295D01*
X154324095Y-53702295D02*
X154209809Y-53664200D01*
X154209809Y-53664200D02*
X154133619Y-53588009D01*
X154133619Y-53588009D02*
X154095524Y-53511819D01*
X154095524Y-53511819D02*
X154057428Y-53359438D01*
X154057428Y-53359438D02*
X154057428Y-53245152D01*
X154057428Y-53245152D02*
X154095524Y-53092771D01*
X154095524Y-53092771D02*
X154133619Y-53016580D01*
X154133619Y-53016580D02*
X154209809Y-52940390D01*
X154209809Y-52940390D02*
X154324095Y-52902295D01*
X154324095Y-52902295D02*
X154400286Y-52902295D01*
X154400286Y-52902295D02*
X154514571Y-52940390D01*
X154514571Y-52940390D02*
X154552667Y-52978485D01*
X155276476Y-52902295D02*
X154895524Y-52902295D01*
X154895524Y-52902295D02*
X154857428Y-53283247D01*
X154857428Y-53283247D02*
X154895524Y-53245152D01*
X154895524Y-53245152D02*
X154971714Y-53207057D01*
X154971714Y-53207057D02*
X155162190Y-53207057D01*
X155162190Y-53207057D02*
X155238381Y-53245152D01*
X155238381Y-53245152D02*
X155276476Y-53283247D01*
X155276476Y-53283247D02*
X155314571Y-53359438D01*
X155314571Y-53359438D02*
X155314571Y-53549914D01*
X155314571Y-53549914D02*
X155276476Y-53626104D01*
X155276476Y-53626104D02*
X155238381Y-53664200D01*
X155238381Y-53664200D02*
X155162190Y-53702295D01*
X155162190Y-53702295D02*
X154971714Y-53702295D01*
X154971714Y-53702295D02*
X154895524Y-53664200D01*
X154895524Y-53664200D02*
X154857428Y-53626104D01*
G36*
X207689429Y-68242029D02*
G01*
X207710312Y-68262912D01*
X207735047Y-68312381D01*
X207735047Y-68391255D01*
X207710312Y-68440724D01*
X207689429Y-68461608D01*
X207639961Y-68486342D01*
X207427904Y-68486342D01*
X207427904Y-68217295D01*
X207639961Y-68217295D01*
X207689429Y-68242029D01*
G37*
G36*
X208696304Y-69106184D02*
G01*
X206122349Y-69106184D01*
X206122349Y-68142295D01*
X206211238Y-68142295D01*
X206211238Y-68942295D01*
X206212679Y-68956927D01*
X206223878Y-68983963D01*
X206244570Y-69004655D01*
X206271606Y-69015854D01*
X206300870Y-69015854D01*
X206327906Y-69004655D01*
X206348598Y-68983963D01*
X206359797Y-68956927D01*
X206361238Y-68942295D01*
X206361238Y-68598247D01*
X206552904Y-68598247D01*
X206567536Y-68596806D01*
X206594572Y-68585607D01*
X206615264Y-68564915D01*
X206626463Y-68537879D01*
X206626463Y-68508615D01*
X206615264Y-68481579D01*
X206594572Y-68460887D01*
X206567536Y-68449688D01*
X206552904Y-68448247D01*
X206361238Y-68448247D01*
X206361238Y-68217295D01*
X206667190Y-68217295D01*
X206681822Y-68215854D01*
X206708858Y-68204655D01*
X206729550Y-68183963D01*
X206740749Y-68156927D01*
X206740749Y-68142295D01*
X206896952Y-68142295D01*
X206896952Y-68942295D01*
X206898393Y-68956927D01*
X206909592Y-68983963D01*
X206930284Y-69004655D01*
X206957320Y-69015854D01*
X206986584Y-69015854D01*
X207013620Y-69004655D01*
X207034312Y-68983963D01*
X207045511Y-68956927D01*
X207046952Y-68942295D01*
X207046952Y-68142295D01*
X207277904Y-68142295D01*
X207277904Y-68942295D01*
X207279345Y-68956927D01*
X207290544Y-68983963D01*
X207311236Y-69004655D01*
X207338272Y-69015854D01*
X207367536Y-69015854D01*
X207394572Y-69004655D01*
X207415264Y-68983963D01*
X207426463Y-68956927D01*
X207427904Y-68942295D01*
X207427904Y-68636342D01*
X207504331Y-68636342D01*
X207748604Y-68985304D01*
X207758176Y-68996465D01*
X207782855Y-69012192D01*
X207811672Y-69017277D01*
X207840243Y-69010948D01*
X207864217Y-68994166D01*
X207879944Y-68969487D01*
X207885029Y-68940669D01*
X207878700Y-68912098D01*
X207871489Y-68899285D01*
X207683855Y-68631237D01*
X207691207Y-68628424D01*
X207767397Y-68590329D01*
X207773696Y-68586364D01*
X207775524Y-68585607D01*
X207777580Y-68583918D01*
X207779840Y-68582497D01*
X207781139Y-68580998D01*
X207786889Y-68576280D01*
X207824984Y-68538185D01*
X207829704Y-68532432D01*
X207831200Y-68531136D01*
X207832619Y-68528881D01*
X207834311Y-68526820D01*
X207835069Y-68524989D01*
X207839033Y-68518693D01*
X207877129Y-68442503D01*
X207882384Y-68428771D01*
X207882575Y-68426081D01*
X207883606Y-68423593D01*
X207885047Y-68408961D01*
X207885047Y-68294676D01*
X207883606Y-68280044D01*
X207882575Y-68277555D01*
X207882384Y-68274866D01*
X207877129Y-68261134D01*
X207839033Y-68184944D01*
X207835069Y-68178647D01*
X207834311Y-68176817D01*
X207832619Y-68174755D01*
X207831200Y-68172501D01*
X207829704Y-68171204D01*
X207824984Y-68165452D01*
X207801827Y-68142295D01*
X208077904Y-68142295D01*
X208077904Y-68942295D01*
X208079345Y-68956927D01*
X208090544Y-68983963D01*
X208111236Y-69004655D01*
X208138272Y-69015854D01*
X208152904Y-69017295D01*
X208533856Y-69017295D01*
X208548488Y-69015854D01*
X208575524Y-69004655D01*
X208596216Y-68983963D01*
X208607415Y-68956927D01*
X208607415Y-68927663D01*
X208596216Y-68900627D01*
X208575524Y-68879935D01*
X208548488Y-68868736D01*
X208533856Y-68867295D01*
X208227904Y-68867295D01*
X208227904Y-68598247D01*
X208419570Y-68598247D01*
X208434202Y-68596806D01*
X208461238Y-68585607D01*
X208481930Y-68564915D01*
X208493129Y-68537879D01*
X208493129Y-68508615D01*
X208481930Y-68481579D01*
X208461238Y-68460887D01*
X208434202Y-68449688D01*
X208419570Y-68448247D01*
X208227904Y-68448247D01*
X208227904Y-68217295D01*
X208533856Y-68217295D01*
X208548488Y-68215854D01*
X208575524Y-68204655D01*
X208596216Y-68183963D01*
X208607415Y-68156927D01*
X208607415Y-68127663D01*
X208596216Y-68100627D01*
X208575524Y-68079935D01*
X208548488Y-68068736D01*
X208533856Y-68067295D01*
X208152904Y-68067295D01*
X208138272Y-68068736D01*
X208111236Y-68079935D01*
X208090544Y-68100627D01*
X208079345Y-68127663D01*
X208077904Y-68142295D01*
X207801827Y-68142295D01*
X207786889Y-68127357D01*
X207781139Y-68122638D01*
X207779840Y-68121140D01*
X207777580Y-68119718D01*
X207775524Y-68118030D01*
X207773696Y-68117272D01*
X207767397Y-68113308D01*
X207691207Y-68075213D01*
X207677475Y-68069958D01*
X207674787Y-68069767D01*
X207672298Y-68068736D01*
X207657666Y-68067295D01*
X207352904Y-68067295D01*
X207338272Y-68068736D01*
X207311236Y-68079935D01*
X207290544Y-68100627D01*
X207279345Y-68127663D01*
X207277904Y-68142295D01*
X207046952Y-68142295D01*
X207045511Y-68127663D01*
X207034312Y-68100627D01*
X207013620Y-68079935D01*
X206986584Y-68068736D01*
X206957320Y-68068736D01*
X206930284Y-68079935D01*
X206909592Y-68100627D01*
X206898393Y-68127663D01*
X206896952Y-68142295D01*
X206740749Y-68142295D01*
X206740749Y-68127663D01*
X206729550Y-68100627D01*
X206708858Y-68079935D01*
X206681822Y-68068736D01*
X206667190Y-68067295D01*
X206286238Y-68067295D01*
X206271606Y-68068736D01*
X206244570Y-68079935D01*
X206223878Y-68100627D01*
X206212679Y-68127663D01*
X206211238Y-68142295D01*
X206122349Y-68142295D01*
X206122349Y-67978406D01*
X208696304Y-67978406D01*
X208696304Y-69106184D01*
G37*
X159505667Y-40621295D02*
X159239000Y-40240342D01*
X159048524Y-40621295D02*
X159048524Y-39821295D01*
X159048524Y-39821295D02*
X159353286Y-39821295D01*
X159353286Y-39821295D02*
X159429476Y-39859390D01*
X159429476Y-39859390D02*
X159467571Y-39897485D01*
X159467571Y-39897485D02*
X159505667Y-39973676D01*
X159505667Y-39973676D02*
X159505667Y-40087961D01*
X159505667Y-40087961D02*
X159467571Y-40164152D01*
X159467571Y-40164152D02*
X159429476Y-40202247D01*
X159429476Y-40202247D02*
X159353286Y-40240342D01*
X159353286Y-40240342D02*
X159048524Y-40240342D01*
X159772333Y-39821295D02*
X160305667Y-39821295D01*
X160305667Y-39821295D02*
X159962809Y-40621295D01*
D14*
%TO.C,C7*%
X173733000Y-64739000D02*
X175263000Y-64739000D01*
X175263000Y-66579000D02*
X173733000Y-66579000D01*
%TO.C,U2*%
X170755000Y-56786000D02*
X170755000Y-58436000D01*
X170755000Y-60436000D02*
X170755000Y-62086000D01*
X170755000Y-62086000D02*
X196275000Y-62086000D01*
X196275000Y-56786000D02*
X170755000Y-56786000D01*
X196275000Y-62086000D02*
X196275000Y-56786000D01*
X170755000Y-58436000D02*
G75*
G02*
X170755000Y-60436000I0J-1000000D01*
G01*
%TO.C,U1*%
X148911000Y-44467000D02*
X148911000Y-46117000D01*
X148911000Y-48117000D02*
X148911000Y-49767000D01*
X148911000Y-49767000D02*
X169351000Y-49767000D01*
X169351000Y-44467000D02*
X148911000Y-44467000D01*
X169351000Y-49767000D02*
X169351000Y-44467000D01*
X148911000Y-46117000D02*
G75*
G02*
X148911000Y-48117000I0J-1000000D01*
G01*
%TO.C,C1*%
X166343000Y-37550000D02*
X166643000Y-37550000D01*
X166343000Y-41190000D02*
X166343000Y-37550000D01*
X166643000Y-41190000D02*
X166343000Y-41190000D01*
X168383000Y-37550000D02*
X168683000Y-37550000D01*
X168683000Y-37550000D02*
X168683000Y-41190000D01*
X168683000Y-41190000D02*
X168383000Y-41190000D01*
%TO.C,Q1*%
X163935000Y-69393000D02*
X167535000Y-69393000D01*
X163378600Y-66444193D02*
G75*
G02*
X165735000Y-64943000I2356400J-1098807D01*
G01*
X163935000Y-69393000D02*
G75*
G02*
X163410816Y-68665795I1800000J1850000D01*
G01*
X165735000Y-64943000D02*
G75*
G02*
X168091400Y-66444193I0J-2600000D01*
G01*
X168059184Y-68665795D02*
G75*
G02*
X167535000Y-69393000I-2324184J1122795D01*
G01*
%TO.C,R5*%
X155599000Y-36830000D02*
X156369000Y-36830000D01*
X163679000Y-36830000D02*
X162909000Y-36830000D01*
X162909000Y-38200000D02*
X156369000Y-38200000D01*
X156369000Y-35460000D01*
X162909000Y-35460000D01*
X162909000Y-38200000D01*
%TO.C,R3*%
X171474000Y-40259000D02*
X172244000Y-40259000D01*
X179554000Y-40259000D02*
X178784000Y-40259000D01*
X178784000Y-41629000D02*
X172244000Y-41629000D01*
X172244000Y-38889000D01*
X178784000Y-38889000D01*
X178784000Y-41629000D01*
%TO.C,U3*%
X170628000Y-44467000D02*
X170628000Y-46117000D01*
X170628000Y-48117000D02*
X170628000Y-49767000D01*
X170628000Y-49767000D02*
X196148000Y-49767000D01*
X196148000Y-44467000D02*
X170628000Y-44467000D01*
X196148000Y-49767000D02*
X196148000Y-44467000D01*
X170628000Y-46117000D02*
G75*
G02*
X170628000Y-48117000I0J-1000000D01*
G01*
%TO.C,Q3*%
X147425000Y-39421000D02*
X151025000Y-39421000D01*
X146868600Y-36472193D02*
G75*
G02*
X149225000Y-34971000I2356400J-1098807D01*
G01*
X147425000Y-39421000D02*
G75*
G02*
X146900816Y-38693795I1800000J1850000D01*
G01*
X149225000Y-34971000D02*
G75*
G02*
X151581400Y-36472193I0J-2600000D01*
G01*
X151549184Y-38693795D02*
G75*
G02*
X151025000Y-39421000I-2324184J1122795D01*
G01*
%TO.C,R11*%
X199668000Y-54483000D02*
X200438000Y-54483000D01*
X207748000Y-54483000D02*
X206978000Y-54483000D01*
X200438000Y-53113000D02*
X206978000Y-53113000D01*
X206978000Y-55853000D01*
X200438000Y-55853000D01*
X200438000Y-53113000D01*
%TO.C,R9*%
X199668000Y-61087000D02*
X200438000Y-61087000D01*
X207748000Y-61087000D02*
X206978000Y-61087000D01*
X200438000Y-59717000D02*
X206978000Y-59717000D01*
X206978000Y-62457000D01*
X200438000Y-62457000D01*
X200438000Y-59717000D01*
%TO.C,R12*%
X199668000Y-51181000D02*
X200438000Y-51181000D01*
X207748000Y-51181000D02*
X206978000Y-51181000D01*
X200438000Y-49811000D02*
X206978000Y-49811000D01*
X206978000Y-52551000D01*
X200438000Y-52551000D01*
X200438000Y-49811000D01*
%TO.C,R1*%
X151535000Y-66294000D02*
X152305000Y-66294000D01*
X159615000Y-66294000D02*
X158845000Y-66294000D01*
X152305000Y-64924000D02*
X158845000Y-64924000D01*
X158845000Y-67664000D01*
X152305000Y-67664000D01*
X152305000Y-64924000D01*
%TO.C,R4*%
X171474000Y-36957000D02*
X172244000Y-36957000D01*
X179554000Y-36957000D02*
X178784000Y-36957000D01*
X178784000Y-38327000D02*
X172244000Y-38327000D01*
X172244000Y-35587000D01*
X178784000Y-35587000D01*
X178784000Y-38327000D01*
%TO.C,R6*%
X192175000Y-40259000D02*
X192945000Y-40259000D01*
X200255000Y-40259000D02*
X199485000Y-40259000D01*
X192945000Y-38889000D02*
X199485000Y-38889000D01*
X199485000Y-41629000D01*
X192945000Y-41629000D01*
X192945000Y-38889000D01*
%TO.C,R2*%
X151535000Y-69596000D02*
X152305000Y-69596000D01*
X159615000Y-69596000D02*
X158845000Y-69596000D01*
X152305000Y-68226000D02*
X158845000Y-68226000D01*
X158845000Y-70966000D01*
X152305000Y-70966000D01*
X152305000Y-68226000D01*
%TO.C,R14*%
X199668000Y-44577000D02*
X200438000Y-44577000D01*
X207748000Y-44577000D02*
X206978000Y-44577000D01*
X200438000Y-43207000D02*
X206978000Y-43207000D01*
X206978000Y-45947000D01*
X200438000Y-45947000D01*
X200438000Y-43207000D01*
%TO.C,D2*%
X208951000Y-39560000D02*
X208951000Y-39404000D01*
X208951000Y-41876000D02*
X208951000Y-41720000D01*
X205719563Y-39560000D02*
G75*
G02*
X208951000Y-39404484I1671437J-1080000D01*
G01*
X206350039Y-39560000D02*
G75*
G02*
X208431961Y-39560000I1040961J-1080000D01*
G01*
X208431961Y-41720000D02*
G75*
G02*
X206350039Y-41720000I-1040961J1080000D01*
G01*
X208951000Y-41875516D02*
G75*
G02*
X205719563Y-41720000I-1560000J1235516D01*
G01*
%TO.C,R8*%
X146812000Y-44855000D02*
X146812000Y-45625000D01*
X146812000Y-52935000D02*
X146812000Y-52165000D01*
X148182000Y-45625000D02*
X145442000Y-45625000D01*
X145442000Y-52165000D01*
X148182000Y-52165000D01*
X148182000Y-45625000D01*
%TO.C,C4*%
X149603000Y-39974000D02*
X151133000Y-39974000D01*
X151133000Y-41814000D02*
X149603000Y-41814000D01*
%TO.C,Q2*%
X184382000Y-41728000D02*
X187982000Y-41728000D01*
X183825600Y-38779193D02*
G75*
G02*
X186182000Y-37278000I2356400J-1098807D01*
G01*
X184382000Y-41728000D02*
G75*
G02*
X183857816Y-41000795I1800000J1850000D01*
G01*
X186182000Y-37278000D02*
G75*
G02*
X188538400Y-38779193I0J-2600000D01*
G01*
X188506184Y-41000795D02*
G75*
G02*
X187982000Y-41728000I-2324184J1122795D01*
G01*
%TO.C,R13*%
X199668000Y-47879000D02*
X200438000Y-47879000D01*
X207748000Y-47879000D02*
X206978000Y-47879000D01*
X200438000Y-46509000D02*
X206978000Y-46509000D01*
X206978000Y-49249000D01*
X200438000Y-49249000D01*
X200438000Y-46509000D01*
%TO.C,R10*%
X199668000Y-57785000D02*
X200438000Y-57785000D01*
X207748000Y-57785000D02*
X206978000Y-57785000D01*
X200438000Y-56415000D02*
X206978000Y-56415000D01*
X206978000Y-59155000D01*
X200438000Y-59155000D01*
X200438000Y-56415000D01*
%TO.C,J3*%
X210686662Y-58185500D02*
X211119675Y-58435500D01*
X210686662Y-58685500D02*
X210686662Y-58185500D01*
X211119675Y-58435500D02*
X210686662Y-58685500D01*
X211581000Y-37410500D02*
X221161000Y-37410500D01*
X211581000Y-68380500D02*
X211581000Y-37410500D01*
X221161000Y-68380500D02*
X211581000Y-68380500D01*
%TO.C,C2*%
X185754000Y-67294000D02*
G75*
G02*
X180514000Y-67294000I-2620000J0D01*
G01*
X180514000Y-67294000D02*
G75*
G02*
X185754000Y-67294000I2620000J0D01*
G01*
%TO.C,R15*%
X192175000Y-66294000D02*
X192945000Y-66294000D01*
X200255000Y-66294000D02*
X199485000Y-66294000D01*
X199485000Y-67664000D02*
X192945000Y-67664000D01*
X192945000Y-64924000D01*
X199485000Y-64924000D01*
X199485000Y-67664000D01*
%TO.C,C6*%
X175277000Y-52420000D02*
X176807000Y-52420000D01*
X176807000Y-54260000D02*
X175277000Y-54260000D01*
%TO.C,U9*%
X148784000Y-56786000D02*
X148784000Y-58436000D01*
X148784000Y-60436000D02*
X148784000Y-62086000D01*
X148784000Y-62086000D02*
X169224000Y-62086000D01*
X169224000Y-56786000D02*
X148784000Y-56786000D01*
X169224000Y-62086000D02*
X169224000Y-56786000D01*
X148784000Y-58436000D02*
G75*
G02*
X148784000Y-60436000I0J-1000000D01*
G01*
%TO.C,C5*%
X150619000Y-52420000D02*
X152149000Y-52420000D01*
X152149000Y-54260000D02*
X150619000Y-54260000D01*
%TO.C,D1*%
X205831000Y-64042000D02*
X205831000Y-64198000D01*
X205831000Y-66358000D02*
X205831000Y-66514000D01*
X205831000Y-64042484D02*
G75*
G02*
X209062437Y-64198000I1560000J-1235516D01*
G01*
X206350039Y-64198000D02*
G75*
G02*
X208431961Y-64198000I1040961J-1080000D01*
G01*
X208431961Y-66358000D02*
G75*
G02*
X206350039Y-66358000I-1040961J1080000D01*
G01*
X209062437Y-66358000D02*
G75*
G02*
X205831000Y-66513516I-1671437J1080000D01*
G01*
D15*
%TO.C,REF\u002A\u002A*%
X204531800Y-72672352D02*
X204549148Y-72679934D01*
X204590556Y-72712728D01*
X204625965Y-72760147D01*
X204647864Y-72810751D01*
X204651429Y-72835698D01*
X204639479Y-72870527D01*
X204613267Y-72888957D01*
X204585164Y-72900116D01*
X204572295Y-72902172D01*
X204566029Y-72887249D01*
X204553656Y-72854775D01*
X204548228Y-72840102D01*
X204517790Y-72789344D01*
X204473720Y-72764027D01*
X204417210Y-72764806D01*
X204413025Y-72765803D01*
X204382855Y-72780107D01*
X204360676Y-72807993D01*
X204345527Y-72852887D01*
X204336450Y-72918215D01*
X204332486Y-73007404D01*
X204332114Y-73054861D01*
X204331930Y-73129671D01*
X204330722Y-73180669D01*
X204327509Y-73213071D01*
X204321309Y-73232095D01*
X204311140Y-73242956D01*
X204296019Y-73250872D01*
X204295146Y-73251270D01*
X204266028Y-73263581D01*
X204251603Y-73268114D01*
X204249386Y-73254409D01*
X204247489Y-73216525D01*
X204246047Y-73159315D01*
X204245198Y-73087627D01*
X204245029Y-73035165D01*
X204245892Y-72933647D01*
X204249270Y-72856632D01*
X204256342Y-72799623D01*
X204268288Y-72758126D01*
X204286290Y-72727643D01*
X204311527Y-72703680D01*
X204336447Y-72686955D01*
X204396371Y-72664697D01*
X204466111Y-72659676D01*
X204531800Y-72672352D01*
G36*
X204531800Y-72672352D02*
G01*
X204549148Y-72679934D01*
X204590556Y-72712728D01*
X204625965Y-72760147D01*
X204647864Y-72810751D01*
X204651429Y-72835698D01*
X204639479Y-72870527D01*
X204613267Y-72888957D01*
X204585164Y-72900116D01*
X204572295Y-72902172D01*
X204566029Y-72887249D01*
X204553656Y-72854775D01*
X204548228Y-72840102D01*
X204517790Y-72789344D01*
X204473720Y-72764027D01*
X204417210Y-72764806D01*
X204413025Y-72765803D01*
X204382855Y-72780107D01*
X204360676Y-72807993D01*
X204345527Y-72852887D01*
X204336450Y-72918215D01*
X204332486Y-73007404D01*
X204332114Y-73054861D01*
X204331930Y-73129671D01*
X204330722Y-73180669D01*
X204327509Y-73213071D01*
X204321309Y-73232095D01*
X204311140Y-73242956D01*
X204296019Y-73250872D01*
X204295146Y-73251270D01*
X204266028Y-73263581D01*
X204251603Y-73268114D01*
X204249386Y-73254409D01*
X204247489Y-73216525D01*
X204246047Y-73159315D01*
X204245198Y-73087627D01*
X204245029Y-73035165D01*
X204245892Y-72933647D01*
X204249270Y-72856632D01*
X204256342Y-72799623D01*
X204268288Y-72758126D01*
X204286290Y-72727643D01*
X204311527Y-72703680D01*
X204336447Y-72686955D01*
X204396371Y-72664697D01*
X204466111Y-72659676D01*
X204531800Y-72672352D01*
G37*
X200595293Y-72641380D02*
X200641872Y-72668323D01*
X200674257Y-72695066D01*
X200697942Y-72723084D01*
X200714259Y-72757348D01*
X200724539Y-72802827D01*
X200730114Y-72864492D01*
X200732316Y-72947311D01*
X200732571Y-73006846D01*
X200732571Y-73225991D01*
X200670886Y-73253644D01*
X200609200Y-73281297D01*
X200601943Y-73041270D01*
X200598944Y-72951628D01*
X200595798Y-72886562D01*
X200591901Y-72841626D01*
X200586647Y-72812370D01*
X200579431Y-72794348D01*
X200569650Y-72783111D01*
X200566512Y-72780679D01*
X200518961Y-72761683D01*
X200470897Y-72769200D01*
X200442286Y-72789143D01*
X200430647Y-72803275D01*
X200422591Y-72821820D01*
X200417471Y-72849934D01*
X200414641Y-72892773D01*
X200413456Y-72955495D01*
X200413257Y-73020861D01*
X200413218Y-73102868D01*
X200411814Y-73160916D01*
X200407114Y-73200065D01*
X200397187Y-73225380D01*
X200380103Y-73241923D01*
X200353932Y-73254756D01*
X200318975Y-73268091D01*
X200280796Y-73282607D01*
X200285341Y-73024989D01*
X200287171Y-72932119D01*
X200289312Y-72863489D01*
X200292381Y-72814311D01*
X200296994Y-72779798D01*
X200303768Y-72755162D01*
X200313319Y-72735616D01*
X200324834Y-72718370D01*
X200380390Y-72663280D01*
X200448180Y-72631422D01*
X200521913Y-72623791D01*
X200595293Y-72641380D01*
G36*
X200595293Y-72641380D02*
G01*
X200641872Y-72668323D01*
X200674257Y-72695066D01*
X200697942Y-72723084D01*
X200714259Y-72757348D01*
X200724539Y-72802827D01*
X200730114Y-72864492D01*
X200732316Y-72947311D01*
X200732571Y-73006846D01*
X200732571Y-73225991D01*
X200670886Y-73253644D01*
X200609200Y-73281297D01*
X200601943Y-73041270D01*
X200598944Y-72951628D01*
X200595798Y-72886562D01*
X200591901Y-72841626D01*
X200586647Y-72812370D01*
X200579431Y-72794348D01*
X200569650Y-72783111D01*
X200566512Y-72780679D01*
X200518961Y-72761683D01*
X200470897Y-72769200D01*
X200442286Y-72789143D01*
X200430647Y-72803275D01*
X200422591Y-72821820D01*
X200417471Y-72849934D01*
X200414641Y-72892773D01*
X200413456Y-72955495D01*
X200413257Y-73020861D01*
X200413218Y-73102868D01*
X200411814Y-73160916D01*
X200407114Y-73200065D01*
X200397187Y-73225380D01*
X200380103Y-73241923D01*
X200353932Y-73254756D01*
X200318975Y-73268091D01*
X200280796Y-73282607D01*
X200285341Y-73024989D01*
X200287171Y-72932119D01*
X200289312Y-72863489D01*
X200292381Y-72814311D01*
X200296994Y-72779798D01*
X200303768Y-72755162D01*
X200313319Y-72735616D01*
X200324834Y-72718370D01*
X200380390Y-72663280D01*
X200448180Y-72631422D01*
X200521913Y-72623791D01*
X200595293Y-72641380D01*
G37*
X202409126Y-72663355D02*
X202475058Y-72687684D01*
X202528473Y-72730717D01*
X202549364Y-72761009D01*
X202572139Y-72816594D01*
X202571666Y-72856786D01*
X202547762Y-72883817D01*
X202538917Y-72888413D01*
X202500730Y-72902744D01*
X202481228Y-72899072D01*
X202474622Y-72875007D01*
X202474286Y-72861714D01*
X202462192Y-72812810D01*
X202430671Y-72778599D01*
X202386859Y-72762076D01*
X202337895Y-72766234D01*
X202298094Y-72787827D01*
X202284650Y-72800144D01*
X202275121Y-72815087D01*
X202268685Y-72837675D01*
X202264517Y-72872928D01*
X202261797Y-72925866D01*
X202259702Y-73001507D01*
X202259160Y-73025457D01*
X202257181Y-73107390D01*
X202254931Y-73165055D01*
X202251557Y-73203208D01*
X202246206Y-73226604D01*
X202238024Y-73239998D01*
X202226159Y-73248145D01*
X202218562Y-73251744D01*
X202186302Y-73264052D01*
X202167311Y-73268114D01*
X202161036Y-73254548D01*
X202157206Y-73213534D01*
X202155800Y-73144599D01*
X202156798Y-73047269D01*
X202157108Y-73032257D01*
X202159301Y-72943459D01*
X202161893Y-72878619D01*
X202165582Y-72832667D01*
X202171064Y-72800535D01*
X202179035Y-72777153D01*
X202190193Y-72757452D01*
X202196030Y-72749010D01*
X202229496Y-72711657D01*
X202266927Y-72682603D01*
X202271509Y-72680067D01*
X202338626Y-72660043D01*
X202409126Y-72663355D01*
G36*
X202409126Y-72663355D02*
G01*
X202475058Y-72687684D01*
X202528473Y-72730717D01*
X202549364Y-72761009D01*
X202572139Y-72816594D01*
X202571666Y-72856786D01*
X202547762Y-72883817D01*
X202538917Y-72888413D01*
X202500730Y-72902744D01*
X202481228Y-72899072D01*
X202474622Y-72875007D01*
X202474286Y-72861714D01*
X202462192Y-72812810D01*
X202430671Y-72778599D01*
X202386859Y-72762076D01*
X202337895Y-72766234D01*
X202298094Y-72787827D01*
X202284650Y-72800144D01*
X202275121Y-72815087D01*
X202268685Y-72837675D01*
X202264517Y-72872928D01*
X202261797Y-72925866D01*
X202259702Y-73001507D01*
X202259160Y-73025457D01*
X202257181Y-73107390D01*
X202254931Y-73165055D01*
X202251557Y-73203208D01*
X202246206Y-73226604D01*
X202238024Y-73239998D01*
X202226159Y-73248145D01*
X202218562Y-73251744D01*
X202186302Y-73264052D01*
X202167311Y-73268114D01*
X202161036Y-73254548D01*
X202157206Y-73213534D01*
X202155800Y-73144599D01*
X202156798Y-73047269D01*
X202157108Y-73032257D01*
X202159301Y-72943459D01*
X202161893Y-72878619D01*
X202165582Y-72832667D01*
X202171064Y-72800535D01*
X202179035Y-72777153D01*
X202190193Y-72757452D01*
X202196030Y-72749010D01*
X202229496Y-72711657D01*
X202266927Y-72682603D01*
X202271509Y-72680067D01*
X202338626Y-72660043D01*
X202409126Y-72663355D01*
G37*
X201255086Y-72564889D02*
X201259339Y-72624213D01*
X201264225Y-72659172D01*
X201270995Y-72674420D01*
X201280902Y-72674615D01*
X201284114Y-72672795D01*
X201326844Y-72659615D01*
X201382427Y-72660385D01*
X201438937Y-72673933D01*
X201474282Y-72691461D01*
X201510521Y-72719461D01*
X201537013Y-72751149D01*
X201555199Y-72791413D01*
X201566522Y-72845143D01*
X201572422Y-72917226D01*
X201574343Y-73012551D01*
X201574377Y-73030837D01*
X201574400Y-73236246D01*
X201528691Y-73252180D01*
X201496227Y-73263020D01*
X201478415Y-73268068D01*
X201477891Y-73268114D01*
X201476137Y-73254428D01*
X201474644Y-73216676D01*
X201473526Y-73159824D01*
X201472897Y-73088834D01*
X201472800Y-73045673D01*
X201472598Y-72960573D01*
X201471558Y-72899581D01*
X201469031Y-72857777D01*
X201464364Y-72830242D01*
X201456907Y-72812056D01*
X201446011Y-72798298D01*
X201439207Y-72791673D01*
X201392472Y-72764975D01*
X201341472Y-72762975D01*
X201295201Y-72785555D01*
X201286644Y-72793707D01*
X201274093Y-72809036D01*
X201265388Y-72827218D01*
X201259831Y-72853509D01*
X201256726Y-72893162D01*
X201255376Y-72951432D01*
X201255086Y-73031773D01*
X201255086Y-73236246D01*
X201209377Y-73252180D01*
X201176913Y-73263020D01*
X201159101Y-73268068D01*
X201158577Y-73268114D01*
X201157237Y-73254223D01*
X201156028Y-73215039D01*
X201155001Y-73154300D01*
X201154202Y-73075741D01*
X201153681Y-72983098D01*
X201153486Y-72880109D01*
X201153486Y-72482942D01*
X201200657Y-72463044D01*
X201247829Y-72443147D01*
X201255086Y-72564889D01*
G36*
X201255086Y-72564889D02*
G01*
X201259339Y-72624213D01*
X201264225Y-72659172D01*
X201270995Y-72674420D01*
X201280902Y-72674615D01*
X201284114Y-72672795D01*
X201326844Y-72659615D01*
X201382427Y-72660385D01*
X201438937Y-72673933D01*
X201474282Y-72691461D01*
X201510521Y-72719461D01*
X201537013Y-72751149D01*
X201555199Y-72791413D01*
X201566522Y-72845143D01*
X201572422Y-72917226D01*
X201574343Y-73012551D01*
X201574377Y-73030837D01*
X201574400Y-73236246D01*
X201528691Y-73252180D01*
X201496227Y-73263020D01*
X201478415Y-73268068D01*
X201477891Y-73268114D01*
X201476137Y-73254428D01*
X201474644Y-73216676D01*
X201473526Y-73159824D01*
X201472897Y-73088834D01*
X201472800Y-73045673D01*
X201472598Y-72960573D01*
X201471558Y-72899581D01*
X201469031Y-72857777D01*
X201464364Y-72830242D01*
X201456907Y-72812056D01*
X201446011Y-72798298D01*
X201439207Y-72791673D01*
X201392472Y-72764975D01*
X201341472Y-72762975D01*
X201295201Y-72785555D01*
X201286644Y-72793707D01*
X201274093Y-72809036D01*
X201265388Y-72827218D01*
X201259831Y-72853509D01*
X201256726Y-72893162D01*
X201255376Y-72951432D01*
X201255086Y-73031773D01*
X201255086Y-73236246D01*
X201209377Y-73252180D01*
X201176913Y-73263020D01*
X201159101Y-73268068D01*
X201158577Y-73268114D01*
X201157237Y-73254223D01*
X201156028Y-73215039D01*
X201155001Y-73154300D01*
X201154202Y-73075741D01*
X201153681Y-72983098D01*
X201153486Y-72880109D01*
X201153486Y-72482942D01*
X201200657Y-72463044D01*
X201247829Y-72443147D01*
X201255086Y-72564889D01*
G37*
X203659033Y-72672263D02*
X203661248Y-72710450D01*
X203662984Y-72768486D01*
X203664099Y-72841780D01*
X203664457Y-72918655D01*
X203664457Y-73178796D01*
X203618526Y-73224727D01*
X203586875Y-73253029D01*
X203559090Y-73264493D01*
X203521115Y-73263768D01*
X203506040Y-73261921D01*
X203458926Y-73256548D01*
X203419956Y-73253469D01*
X203410457Y-73253185D01*
X203378433Y-73255045D01*
X203332632Y-73259714D01*
X203314874Y-73261921D01*
X203271257Y-73265335D01*
X203241945Y-73257920D01*
X203212880Y-73235027D01*
X203202388Y-73224727D01*
X203156457Y-73178796D01*
X203156457Y-72692202D01*
X203193426Y-72675358D01*
X203225259Y-72662882D01*
X203243883Y-72658514D01*
X203248658Y-72672318D01*
X203253121Y-72710886D01*
X203256975Y-72769956D01*
X203259922Y-72845263D01*
X203261343Y-72908886D01*
X203265314Y-73159257D01*
X203299959Y-73164156D01*
X203331468Y-73160731D01*
X203346908Y-73149641D01*
X203351223Y-73128908D01*
X203354908Y-73084745D01*
X203357669Y-73022746D01*
X203359212Y-72948509D01*
X203359435Y-72910306D01*
X203359657Y-72690383D01*
X203405366Y-72674449D01*
X203437718Y-72663615D01*
X203455315Y-72658562D01*
X203455823Y-72658514D01*
X203457588Y-72672248D01*
X203459529Y-72710330D01*
X203461482Y-72768082D01*
X203463284Y-72840827D01*
X203464543Y-72908886D01*
X203468514Y-73159257D01*
X203555600Y-73159257D01*
X203559596Y-72930840D01*
X203563592Y-72702422D01*
X203606047Y-72680468D01*
X203637392Y-72665393D01*
X203655944Y-72658551D01*
X203656479Y-72658514D01*
X203659033Y-72672263D01*
G36*
X203659033Y-72672263D02*
G01*
X203661248Y-72710450D01*
X203662984Y-72768486D01*
X203664099Y-72841780D01*
X203664457Y-72918655D01*
X203664457Y-73178796D01*
X203618526Y-73224727D01*
X203586875Y-73253029D01*
X203559090Y-73264493D01*
X203521115Y-73263768D01*
X203506040Y-73261921D01*
X203458926Y-73256548D01*
X203419956Y-73253469D01*
X203410457Y-73253185D01*
X203378433Y-73255045D01*
X203332632Y-73259714D01*
X203314874Y-73261921D01*
X203271257Y-73265335D01*
X203241945Y-73257920D01*
X203212880Y-73235027D01*
X203202388Y-73224727D01*
X203156457Y-73178796D01*
X203156457Y-72692202D01*
X203193426Y-72675358D01*
X203225259Y-72662882D01*
X203243883Y-72658514D01*
X203248658Y-72672318D01*
X203253121Y-72710886D01*
X203256975Y-72769956D01*
X203259922Y-72845263D01*
X203261343Y-72908886D01*
X203265314Y-73159257D01*
X203299959Y-73164156D01*
X203331468Y-73160731D01*
X203346908Y-73149641D01*
X203351223Y-73128908D01*
X203354908Y-73084745D01*
X203357669Y-73022746D01*
X203359212Y-72948509D01*
X203359435Y-72910306D01*
X203359657Y-72690383D01*
X203405366Y-72674449D01*
X203437718Y-72663615D01*
X203455315Y-72658562D01*
X203455823Y-72658514D01*
X203457588Y-72672248D01*
X203459529Y-72710330D01*
X203461482Y-72768082D01*
X203463284Y-72840827D01*
X203464543Y-72908886D01*
X203468514Y-73159257D01*
X203555600Y-73159257D01*
X203559596Y-72930840D01*
X203563592Y-72702422D01*
X203606047Y-72680468D01*
X203637392Y-72665393D01*
X203655944Y-72658551D01*
X203656479Y-72658514D01*
X203659033Y-72672263D01*
G37*
X198920315Y-72635562D02*
X198988345Y-72671333D01*
X199038551Y-72728901D01*
X199056385Y-72765912D01*
X199070263Y-72821482D01*
X199077367Y-72891696D01*
X199078040Y-72968327D01*
X199072627Y-73043152D01*
X199061470Y-73107942D01*
X199044914Y-73154473D01*
X199039826Y-73162487D01*
X198979555Y-73222307D01*
X198907969Y-73258135D01*
X198830292Y-73268620D01*
X198751748Y-73252410D01*
X198729889Y-73242692D01*
X198687322Y-73212743D01*
X198649963Y-73173033D01*
X198646432Y-73167997D01*
X198632081Y-73143724D01*
X198622594Y-73117778D01*
X198616990Y-73083622D01*
X198614286Y-73034719D01*
X198613499Y-72964535D01*
X198613486Y-72948800D01*
X198613522Y-72943792D01*
X198758629Y-72943792D01*
X198759473Y-73010030D01*
X198762796Y-73053986D01*
X198769783Y-73082379D01*
X198781616Y-73101925D01*
X198787657Y-73108457D01*
X198822386Y-73133280D01*
X198856103Y-73132148D01*
X198890195Y-73110616D01*
X198910529Y-73087629D01*
X198922571Y-73054078D01*
X198929334Y-73001169D01*
X198929798Y-72994999D01*
X198930952Y-72899113D01*
X198918888Y-72827899D01*
X198893770Y-72781794D01*
X198855760Y-72761235D01*
X198842192Y-72760114D01*
X198806564Y-72765752D01*
X198782194Y-72785286D01*
X198767293Y-72822642D01*
X198760075Y-72881750D01*
X198758629Y-72943792D01*
X198613522Y-72943792D01*
X198614026Y-72874013D01*
X198616296Y-72821759D01*
X198621268Y-72785549D01*
X198629913Y-72758899D01*
X198643205Y-72735322D01*
X198646143Y-72730938D01*
X198695513Y-72671849D01*
X198749309Y-72637547D01*
X198814802Y-72623931D01*
X198837042Y-72623265D01*
X198920315Y-72635562D01*
G36*
X198920315Y-72635562D02*
G01*
X198988345Y-72671333D01*
X199038551Y-72728901D01*
X199056385Y-72765912D01*
X199070263Y-72821482D01*
X199077367Y-72891696D01*
X199078040Y-72968327D01*
X199072627Y-73043152D01*
X199061470Y-73107942D01*
X199044914Y-73154473D01*
X199039826Y-73162487D01*
X198979555Y-73222307D01*
X198907969Y-73258135D01*
X198830292Y-73268620D01*
X198751748Y-73252410D01*
X198729889Y-73242692D01*
X198687322Y-73212743D01*
X198649963Y-73173033D01*
X198646432Y-73167997D01*
X198632081Y-73143724D01*
X198622594Y-73117778D01*
X198616990Y-73083622D01*
X198614286Y-73034719D01*
X198613499Y-72964535D01*
X198613486Y-72948800D01*
X198613522Y-72943792D01*
X198758629Y-72943792D01*
X198759473Y-73010030D01*
X198762796Y-73053986D01*
X198769783Y-73082379D01*
X198781616Y-73101925D01*
X198787657Y-73108457D01*
X198822386Y-73133280D01*
X198856103Y-73132148D01*
X198890195Y-73110616D01*
X198910529Y-73087629D01*
X198922571Y-73054078D01*
X198929334Y-73001169D01*
X198929798Y-72994999D01*
X198930952Y-72899113D01*
X198918888Y-72827899D01*
X198893770Y-72781794D01*
X198855760Y-72761235D01*
X198842192Y-72760114D01*
X198806564Y-72765752D01*
X198782194Y-72785286D01*
X198767293Y-72822642D01*
X198760075Y-72881750D01*
X198758629Y-72943792D01*
X198613522Y-72943792D01*
X198614026Y-72874013D01*
X198616296Y-72821759D01*
X198621268Y-72785549D01*
X198629913Y-72758899D01*
X198643205Y-72735322D01*
X198646143Y-72730938D01*
X198695513Y-72671849D01*
X198749309Y-72637547D01*
X198814802Y-72623931D01*
X198837042Y-72623265D01*
X198920315Y-72635562D01*
G37*
X205032795Y-72680566D02*
X205090221Y-72718097D01*
X205117919Y-72751696D01*
X205139862Y-72812664D01*
X205141605Y-72860908D01*
X205137657Y-72925416D01*
X204988886Y-72990534D01*
X204916549Y-73023802D01*
X204869284Y-73050564D01*
X204844707Y-73073744D01*
X204840437Y-73096267D01*
X204854089Y-73121055D01*
X204869143Y-73137486D01*
X204912946Y-73163835D01*
X204960589Y-73165681D01*
X205004345Y-73145146D01*
X205036489Y-73104352D01*
X205042238Y-73089947D01*
X205069776Y-73044956D01*
X205101458Y-73025782D01*
X205144914Y-73009379D01*
X205144914Y-73071566D01*
X205141072Y-73113883D01*
X205126023Y-73149569D01*
X205094480Y-73190543D01*
X205089792Y-73195867D01*
X205054706Y-73232320D01*
X205024547Y-73251883D01*
X204986815Y-73260883D01*
X204955535Y-73263830D01*
X204899585Y-73264565D01*
X204859755Y-73255260D01*
X204834908Y-73241446D01*
X204795856Y-73211067D01*
X204768825Y-73178213D01*
X204751717Y-73136894D01*
X204742438Y-73081121D01*
X204738893Y-73004905D01*
X204738610Y-72966222D01*
X204739572Y-72919847D01*
X204827207Y-72919847D01*
X204828223Y-72944726D01*
X204830756Y-72948800D01*
X204847474Y-72943265D01*
X204883449Y-72928617D01*
X204931531Y-72907790D01*
X204941586Y-72903314D01*
X205002352Y-72872414D01*
X205035832Y-72845257D01*
X205043190Y-72819820D01*
X205025591Y-72794081D01*
X205011056Y-72782709D01*
X204958610Y-72759964D01*
X204909522Y-72763722D01*
X204868427Y-72791484D01*
X204839958Y-72840752D01*
X204830831Y-72879857D01*
X204827207Y-72919847D01*
X204739572Y-72919847D01*
X204740485Y-72875849D01*
X204747396Y-72808984D01*
X204761084Y-72760295D01*
X204783296Y-72724449D01*
X204815774Y-72696113D01*
X204829933Y-72686955D01*
X204894253Y-72663107D01*
X204964673Y-72661606D01*
X205032795Y-72680566D01*
G36*
X205032795Y-72680566D02*
G01*
X205090221Y-72718097D01*
X205117919Y-72751696D01*
X205139862Y-72812664D01*
X205141605Y-72860908D01*
X205137657Y-72925416D01*
X204988886Y-72990534D01*
X204916549Y-73023802D01*
X204869284Y-73050564D01*
X204844707Y-73073744D01*
X204840437Y-73096267D01*
X204854089Y-73121055D01*
X204869143Y-73137486D01*
X204912946Y-73163835D01*
X204960589Y-73165681D01*
X205004345Y-73145146D01*
X205036489Y-73104352D01*
X205042238Y-73089947D01*
X205069776Y-73044956D01*
X205101458Y-73025782D01*
X205144914Y-73009379D01*
X205144914Y-73071566D01*
X205141072Y-73113883D01*
X205126023Y-73149569D01*
X205094480Y-73190543D01*
X205089792Y-73195867D01*
X205054706Y-73232320D01*
X205024547Y-73251883D01*
X204986815Y-73260883D01*
X204955535Y-73263830D01*
X204899585Y-73264565D01*
X204859755Y-73255260D01*
X204834908Y-73241446D01*
X204795856Y-73211067D01*
X204768825Y-73178213D01*
X204751717Y-73136894D01*
X204742438Y-73081121D01*
X204738893Y-73004905D01*
X204738610Y-72966222D01*
X204739572Y-72919847D01*
X204827207Y-72919847D01*
X204828223Y-72944726D01*
X204830756Y-72948800D01*
X204847474Y-72943265D01*
X204883449Y-72928617D01*
X204931531Y-72907790D01*
X204941586Y-72903314D01*
X205002352Y-72872414D01*
X205035832Y-72845257D01*
X205043190Y-72819820D01*
X205025591Y-72794081D01*
X205011056Y-72782709D01*
X204958610Y-72759964D01*
X204909522Y-72763722D01*
X204868427Y-72791484D01*
X204839958Y-72840752D01*
X204830831Y-72879857D01*
X204827207Y-72919847D01*
X204739572Y-72919847D01*
X204740485Y-72875849D01*
X204747396Y-72808984D01*
X204761084Y-72760295D01*
X204783296Y-72724449D01*
X204815774Y-72696113D01*
X204829933Y-72686955D01*
X204894253Y-72663107D01*
X204964673Y-72661606D01*
X205032795Y-72680566D01*
G37*
X203069317Y-72778958D02*
X203069133Y-72887437D01*
X203068419Y-72970887D01*
X203066875Y-73033304D01*
X203064201Y-73078685D01*
X203060094Y-73111029D01*
X203054255Y-73134333D01*
X203046382Y-73152595D01*
X203040421Y-73163018D01*
X202991055Y-73219545D01*
X202928464Y-73254977D01*
X202859213Y-73267690D01*
X202789868Y-73256063D01*
X202748575Y-73235168D01*
X202705225Y-73199022D01*
X202675681Y-73154876D01*
X202657855Y-73097062D01*
X202649663Y-73019913D01*
X202648502Y-72963314D01*
X202648658Y-72959247D01*
X202750057Y-72959247D01*
X202750676Y-73024150D01*
X202753514Y-73067114D01*
X202760040Y-73095222D01*
X202771723Y-73115553D01*
X202785683Y-73130888D01*
X202832565Y-73160490D01*
X202882901Y-73163019D01*
X202930476Y-73138305D01*
X202934179Y-73134956D01*
X202949983Y-73117535D01*
X202959893Y-73096809D01*
X202965258Y-73065962D01*
X202967428Y-73018177D01*
X202967771Y-72965348D01*
X202967027Y-72898981D01*
X202963948Y-72854706D01*
X202957261Y-72825609D01*
X202945696Y-72804773D01*
X202936213Y-72793707D01*
X202892160Y-72765798D01*
X202841424Y-72762443D01*
X202792996Y-72783759D01*
X202783650Y-72791673D01*
X202767740Y-72809247D01*
X202757810Y-72830187D01*
X202752478Y-72861382D01*
X202750363Y-72909722D01*
X202750057Y-72959247D01*
X202648658Y-72959247D01*
X202652010Y-72872168D01*
X202663926Y-72803686D01*
X202686335Y-72752200D01*
X202721324Y-72712043D01*
X202748575Y-72691461D01*
X202798107Y-72669225D01*
X202855516Y-72658904D01*
X202908882Y-72661667D01*
X202938743Y-72672812D01*
X202950461Y-72675983D01*
X202958237Y-72664157D01*
X202963665Y-72632466D01*
X202967771Y-72584193D01*
X202972267Y-72530429D01*
X202978513Y-72498082D01*
X202989876Y-72479585D01*
X203009728Y-72467370D01*
X203022200Y-72461962D01*
X203069371Y-72442201D01*
X203069317Y-72778958D01*
G36*
X203069317Y-72778958D02*
G01*
X203069133Y-72887437D01*
X203068419Y-72970887D01*
X203066875Y-73033304D01*
X203064201Y-73078685D01*
X203060094Y-73111029D01*
X203054255Y-73134333D01*
X203046382Y-73152595D01*
X203040421Y-73163018D01*
X202991055Y-73219545D01*
X202928464Y-73254977D01*
X202859213Y-73267690D01*
X202789868Y-73256063D01*
X202748575Y-73235168D01*
X202705225Y-73199022D01*
X202675681Y-73154876D01*
X202657855Y-73097062D01*
X202649663Y-73019913D01*
X202648502Y-72963314D01*
X202648658Y-72959247D01*
X202750057Y-72959247D01*
X202750676Y-73024150D01*
X202753514Y-73067114D01*
X202760040Y-73095222D01*
X202771723Y-73115553D01*
X202785683Y-73130888D01*
X202832565Y-73160490D01*
X202882901Y-73163019D01*
X202930476Y-73138305D01*
X202934179Y-73134956D01*
X202949983Y-73117535D01*
X202959893Y-73096809D01*
X202965258Y-73065962D01*
X202967428Y-73018177D01*
X202967771Y-72965348D01*
X202967027Y-72898981D01*
X202963948Y-72854706D01*
X202957261Y-72825609D01*
X202945696Y-72804773D01*
X202936213Y-72793707D01*
X202892160Y-72765798D01*
X202841424Y-72762443D01*
X202792996Y-72783759D01*
X202783650Y-72791673D01*
X202767740Y-72809247D01*
X202757810Y-72830187D01*
X202752478Y-72861382D01*
X202750363Y-72909722D01*
X202750057Y-72959247D01*
X202648658Y-72959247D01*
X202652010Y-72872168D01*
X202663926Y-72803686D01*
X202686335Y-72752200D01*
X202721324Y-72712043D01*
X202748575Y-72691461D01*
X202798107Y-72669225D01*
X202855516Y-72658904D01*
X202908882Y-72661667D01*
X202938743Y-72672812D01*
X202950461Y-72675983D01*
X202958237Y-72664157D01*
X202963665Y-72632466D01*
X202967771Y-72584193D01*
X202972267Y-72530429D01*
X202978513Y-72498082D01*
X202989876Y-72479585D01*
X203009728Y-72467370D01*
X203022200Y-72461962D01*
X203069371Y-72442201D01*
X203069317Y-72778958D01*
G37*
X200047503Y-72644839D02*
X200104727Y-72683335D01*
X200148949Y-72738935D01*
X200175367Y-72809686D01*
X200180710Y-72861762D01*
X200180103Y-72883493D01*
X200175022Y-72900131D01*
X200161055Y-72915037D01*
X200133789Y-72931573D01*
X200088812Y-72953098D01*
X200021711Y-72982974D01*
X200021371Y-72983124D01*
X199959607Y-73011413D01*
X199908959Y-73036533D01*
X199874604Y-73055779D01*
X199861718Y-73066448D01*
X199861714Y-73066534D01*
X199873072Y-73089766D01*
X199899631Y-73115374D01*
X199930123Y-73133821D01*
X199945570Y-73137486D01*
X199987715Y-73124812D01*
X200024008Y-73093071D01*
X200041717Y-73058172D01*
X200058752Y-73032445D01*
X200092122Y-73003146D01*
X200131349Y-72977835D01*
X200165956Y-72964071D01*
X200173193Y-72963314D01*
X200181339Y-72975760D01*
X200181830Y-73007572D01*
X200175843Y-73050466D01*
X200164557Y-73096158D01*
X200149150Y-73136361D01*
X200148371Y-73137922D01*
X200102004Y-73202662D01*
X200041911Y-73246697D01*
X199973665Y-73268311D01*
X199902838Y-73265785D01*
X199835004Y-73237404D01*
X199831988Y-73235408D01*
X199778627Y-73187048D01*
X199743540Y-73123952D01*
X199724122Y-73040987D01*
X199721516Y-73017678D01*
X199716901Y-72907655D01*
X199722433Y-72856348D01*
X199861714Y-72856348D01*
X199863524Y-72888353D01*
X199873422Y-72897693D01*
X199898098Y-72890705D01*
X199936995Y-72874187D01*
X199980475Y-72853481D01*
X199981556Y-72852933D01*
X200018409Y-72833549D01*
X200033200Y-72820613D01*
X200029553Y-72807051D01*
X200014195Y-72789232D01*
X199975123Y-72763445D01*
X199933046Y-72761550D01*
X199895303Y-72780317D01*
X199869234Y-72816515D01*
X199861714Y-72856348D01*
X199722433Y-72856348D01*
X199726394Y-72819627D01*
X199750750Y-72749812D01*
X199784656Y-72700902D01*
X199845853Y-72651478D01*
X199913263Y-72626959D01*
X199982080Y-72625397D01*
X200047503Y-72644839D01*
G36*
X200047503Y-72644839D02*
G01*
X200104727Y-72683335D01*
X200148949Y-72738935D01*
X200175367Y-72809686D01*
X200180710Y-72861762D01*
X200180103Y-72883493D01*
X200175022Y-72900131D01*
X200161055Y-72915037D01*
X200133789Y-72931573D01*
X200088812Y-72953098D01*
X200021711Y-72982974D01*
X200021371Y-72983124D01*
X199959607Y-73011413D01*
X199908959Y-73036533D01*
X199874604Y-73055779D01*
X199861718Y-73066448D01*
X199861714Y-73066534D01*
X199873072Y-73089766D01*
X199899631Y-73115374D01*
X199930123Y-73133821D01*
X199945570Y-73137486D01*
X199987715Y-73124812D01*
X200024008Y-73093071D01*
X200041717Y-73058172D01*
X200058752Y-73032445D01*
X200092122Y-73003146D01*
X200131349Y-72977835D01*
X200165956Y-72964071D01*
X200173193Y-72963314D01*
X200181339Y-72975760D01*
X200181830Y-73007572D01*
X200175843Y-73050466D01*
X200164557Y-73096158D01*
X200149150Y-73136361D01*
X200148371Y-73137922D01*
X200102004Y-73202662D01*
X200041911Y-73246697D01*
X199973665Y-73268311D01*
X199902838Y-73265785D01*
X199835004Y-73237404D01*
X199831988Y-73235408D01*
X199778627Y-73187048D01*
X199743540Y-73123952D01*
X199724122Y-73040987D01*
X199721516Y-73017678D01*
X199716901Y-72907655D01*
X199722433Y-72856348D01*
X199861714Y-72856348D01*
X199863524Y-72888353D01*
X199873422Y-72897693D01*
X199898098Y-72890705D01*
X199936995Y-72874187D01*
X199980475Y-72853481D01*
X199981556Y-72852933D01*
X200018409Y-72833549D01*
X200033200Y-72820613D01*
X200029553Y-72807051D01*
X200014195Y-72789232D01*
X199975123Y-72763445D01*
X199933046Y-72761550D01*
X199895303Y-72780317D01*
X199869234Y-72816515D01*
X199861714Y-72856348D01*
X199722433Y-72856348D01*
X199726394Y-72819627D01*
X199750750Y-72749812D01*
X199784656Y-72700902D01*
X199845853Y-72651478D01*
X199913263Y-72626959D01*
X199982080Y-72625397D01*
X200047503Y-72644839D01*
G37*
X201918944Y-72664568D02*
X201975816Y-72685687D01*
X201976467Y-72686093D01*
X202011640Y-72711980D01*
X202037607Y-72742233D01*
X202055870Y-72781658D01*
X202067932Y-72835062D01*
X202075296Y-72907251D01*
X202079464Y-73003032D01*
X202079829Y-73016678D01*
X202085076Y-73222442D01*
X202040916Y-73245278D01*
X202008963Y-73260710D01*
X201989670Y-73268023D01*
X201988778Y-73268114D01*
X201985439Y-73254622D01*
X201982787Y-73218226D01*
X201981156Y-73165052D01*
X201980800Y-73121993D01*
X201980792Y-73052241D01*
X201977603Y-73008437D01*
X201966488Y-72987544D01*
X201942701Y-72986525D01*
X201901496Y-73002341D01*
X201839286Y-73031415D01*
X201793541Y-73055563D01*
X201770013Y-73076513D01*
X201763096Y-73099347D01*
X201763086Y-73100477D01*
X201774499Y-73139812D01*
X201808292Y-73161062D01*
X201860009Y-73164139D01*
X201897261Y-73163606D01*
X201916903Y-73174335D01*
X201929152Y-73200105D01*
X201936202Y-73232937D01*
X201926042Y-73251566D01*
X201922217Y-73254232D01*
X201886201Y-73264940D01*
X201835766Y-73266456D01*
X201783826Y-73259359D01*
X201747022Y-73246388D01*
X201696138Y-73203185D01*
X201667214Y-73143046D01*
X201661486Y-73096062D01*
X201665857Y-73053682D01*
X201681675Y-73019088D01*
X201712997Y-72988363D01*
X201763878Y-72957590D01*
X201838376Y-72922852D01*
X201842914Y-72920888D01*
X201910021Y-72889887D01*
X201951432Y-72864462D01*
X201969181Y-72841614D01*
X201965307Y-72818345D01*
X201941843Y-72791656D01*
X201934827Y-72785514D01*
X201887830Y-72761700D01*
X201839133Y-72762703D01*
X201796722Y-72786051D01*
X201768584Y-72829275D01*
X201765969Y-72837760D01*
X201740508Y-72878908D01*
X201708201Y-72898728D01*
X201661486Y-72918370D01*
X201661486Y-72867550D01*
X201675696Y-72793682D01*
X201717875Y-72725927D01*
X201739824Y-72703261D01*
X201789717Y-72674169D01*
X201853167Y-72661000D01*
X201918944Y-72664568D01*
G36*
X201918944Y-72664568D02*
G01*
X201975816Y-72685687D01*
X201976467Y-72686093D01*
X202011640Y-72711980D01*
X202037607Y-72742233D01*
X202055870Y-72781658D01*
X202067932Y-72835062D01*
X202075296Y-72907251D01*
X202079464Y-73003032D01*
X202079829Y-73016678D01*
X202085076Y-73222442D01*
X202040916Y-73245278D01*
X202008963Y-73260710D01*
X201989670Y-73268023D01*
X201988778Y-73268114D01*
X201985439Y-73254622D01*
X201982787Y-73218226D01*
X201981156Y-73165052D01*
X201980800Y-73121993D01*
X201980792Y-73052241D01*
X201977603Y-73008437D01*
X201966488Y-72987544D01*
X201942701Y-72986525D01*
X201901496Y-73002341D01*
X201839286Y-73031415D01*
X201793541Y-73055563D01*
X201770013Y-73076513D01*
X201763096Y-73099347D01*
X201763086Y-73100477D01*
X201774499Y-73139812D01*
X201808292Y-73161062D01*
X201860009Y-73164139D01*
X201897261Y-73163606D01*
X201916903Y-73174335D01*
X201929152Y-73200105D01*
X201936202Y-73232937D01*
X201926042Y-73251566D01*
X201922217Y-73254232D01*
X201886201Y-73264940D01*
X201835766Y-73266456D01*
X201783826Y-73259359D01*
X201747022Y-73246388D01*
X201696138Y-73203185D01*
X201667214Y-73143046D01*
X201661486Y-73096062D01*
X201665857Y-73053682D01*
X201681675Y-73019088D01*
X201712997Y-72988363D01*
X201763878Y-72957590D01*
X201838376Y-72922852D01*
X201842914Y-72920888D01*
X201910021Y-72889887D01*
X201951432Y-72864462D01*
X201969181Y-72841614D01*
X201965307Y-72818345D01*
X201941843Y-72791656D01*
X201934827Y-72785514D01*
X201887830Y-72761700D01*
X201839133Y-72762703D01*
X201796722Y-72786051D01*
X201768584Y-72829275D01*
X201765969Y-72837760D01*
X201740508Y-72878908D01*
X201708201Y-72898728D01*
X201661486Y-72918370D01*
X201661486Y-72867550D01*
X201675696Y-72793682D01*
X201717875Y-72725927D01*
X201739824Y-72703261D01*
X201789717Y-72674169D01*
X201853167Y-72661000D01*
X201918944Y-72664568D01*
G37*
X199478944Y-72633518D02*
X199534401Y-72661168D01*
X199583348Y-72712080D01*
X199596829Y-72730938D01*
X199611514Y-72755615D01*
X199621042Y-72782416D01*
X199626493Y-72818187D01*
X199628947Y-72869769D01*
X199629486Y-72937867D01*
X199627052Y-73031188D01*
X199618594Y-73101257D01*
X199602374Y-73153531D01*
X199576654Y-73193469D01*
X199539697Y-73226529D01*
X199536982Y-73228486D01*
X199500560Y-73248508D01*
X199456702Y-73258415D01*
X199400924Y-73260857D01*
X199310248Y-73260857D01*
X199310210Y-73348883D01*
X199309366Y-73397908D01*
X199304224Y-73426665D01*
X199290787Y-73443911D01*
X199265058Y-73458408D01*
X199258879Y-73461369D01*
X199229964Y-73475248D01*
X199207576Y-73484014D01*
X199190929Y-73484771D01*
X199179236Y-73474623D01*
X199171710Y-73450673D01*
X199167566Y-73410026D01*
X199166015Y-73349786D01*
X199166271Y-73267055D01*
X199167549Y-73158939D01*
X199167948Y-73126600D01*
X199169385Y-73015124D01*
X199170672Y-72942203D01*
X199310171Y-72942203D01*
X199310955Y-73004099D01*
X199314440Y-73044597D01*
X199322324Y-73071308D01*
X199336305Y-73091844D01*
X199345797Y-73101860D01*
X199384604Y-73131167D01*
X199418963Y-73133552D01*
X199454416Y-73109350D01*
X199455314Y-73108457D01*
X199469739Y-73089753D01*
X199478513Y-73064332D01*
X199482939Y-73025184D01*
X199484318Y-72965297D01*
X199484343Y-72952030D01*
X199481012Y-72869501D01*
X199470169Y-72812291D01*
X199450540Y-72777366D01*
X199420850Y-72761694D01*
X199403691Y-72760114D01*
X199362966Y-72767526D01*
X199335032Y-72791930D01*
X199318217Y-72836580D01*
X199310850Y-72904730D01*
X199310171Y-72942203D01*
X199170672Y-72942203D01*
X199170908Y-72928845D01*
X199172877Y-72863933D01*
X199175650Y-72816558D01*
X199179588Y-72782890D01*
X199185049Y-72759098D01*
X199192392Y-72741353D01*
X199201977Y-72725824D01*
X199206087Y-72719981D01*
X199260605Y-72664785D01*
X199329536Y-72633490D01*
X199409272Y-72624765D01*
X199478944Y-72633518D01*
G36*
X199478944Y-72633518D02*
G01*
X199534401Y-72661168D01*
X199583348Y-72712080D01*
X199596829Y-72730938D01*
X199611514Y-72755615D01*
X199621042Y-72782416D01*
X199626493Y-72818187D01*
X199628947Y-72869769D01*
X199629486Y-72937867D01*
X199627052Y-73031188D01*
X199618594Y-73101257D01*
X199602374Y-73153531D01*
X199576654Y-73193469D01*
X199539697Y-73226529D01*
X199536982Y-73228486D01*
X199500560Y-73248508D01*
X199456702Y-73258415D01*
X199400924Y-73260857D01*
X199310248Y-73260857D01*
X199310210Y-73348883D01*
X199309366Y-73397908D01*
X199304224Y-73426665D01*
X199290787Y-73443911D01*
X199265058Y-73458408D01*
X199258879Y-73461369D01*
X199229964Y-73475248D01*
X199207576Y-73484014D01*
X199190929Y-73484771D01*
X199179236Y-73474623D01*
X199171710Y-73450673D01*
X199167566Y-73410026D01*
X199166015Y-73349786D01*
X199166271Y-73267055D01*
X199167549Y-73158939D01*
X199167948Y-73126600D01*
X199169385Y-73015124D01*
X199170672Y-72942203D01*
X199310171Y-72942203D01*
X199310955Y-73004099D01*
X199314440Y-73044597D01*
X199322324Y-73071308D01*
X199336305Y-73091844D01*
X199345797Y-73101860D01*
X199384604Y-73131167D01*
X199418963Y-73133552D01*
X199454416Y-73109350D01*
X199455314Y-73108457D01*
X199469739Y-73089753D01*
X199478513Y-73064332D01*
X199482939Y-73025184D01*
X199484318Y-72965297D01*
X199484343Y-72952030D01*
X199481012Y-72869501D01*
X199470169Y-72812291D01*
X199450540Y-72777366D01*
X199420850Y-72761694D01*
X199403691Y-72760114D01*
X199362966Y-72767526D01*
X199335032Y-72791930D01*
X199318217Y-72836580D01*
X199310850Y-72904730D01*
X199310171Y-72942203D01*
X199170672Y-72942203D01*
X199170908Y-72928845D01*
X199172877Y-72863933D01*
X199175650Y-72816558D01*
X199179588Y-72782890D01*
X199185049Y-72759098D01*
X199192392Y-72741353D01*
X199201977Y-72725824D01*
X199206087Y-72719981D01*
X199260605Y-72664785D01*
X199329536Y-72633490D01*
X199409272Y-72624765D01*
X199478944Y-72633518D01*
G37*
X204024076Y-72669935D02*
X204065867Y-72688944D01*
X204098669Y-72711978D01*
X204122703Y-72737733D01*
X204139297Y-72770958D01*
X204149777Y-72816400D01*
X204155471Y-72878807D01*
X204157707Y-72962927D01*
X204157943Y-73018321D01*
X204157943Y-73234426D01*
X204120974Y-73251270D01*
X204091856Y-73263581D01*
X204077431Y-73268114D01*
X204074672Y-73254625D01*
X204072482Y-73218253D01*
X204071142Y-73165142D01*
X204070857Y-73122972D01*
X204069634Y-73062047D01*
X204066336Y-73013715D01*
X204061521Y-72984118D01*
X204057696Y-72977829D01*
X204031983Y-72984252D01*
X203991618Y-73000725D01*
X203944879Y-73023058D01*
X203900045Y-73047057D01*
X203865393Y-73068530D01*
X203849202Y-73083285D01*
X203849138Y-73083445D01*
X203850530Y-73110752D01*
X203863018Y-73136819D01*
X203884943Y-73157992D01*
X203916943Y-73165074D01*
X203944292Y-73164249D01*
X203983026Y-73163642D01*
X204003358Y-73172716D01*
X204015569Y-73196692D01*
X204017109Y-73201213D01*
X204022403Y-73235406D01*
X204008247Y-73256168D01*
X203971348Y-73266062D01*
X203931489Y-73267892D01*
X203859762Y-73254327D01*
X203822632Y-73234955D01*
X203776776Y-73189445D01*
X203752456Y-73133583D01*
X203750273Y-73074557D01*
X203770829Y-73019553D01*
X203801749Y-72985086D01*
X203832620Y-72965789D01*
X203881142Y-72941359D01*
X203937685Y-72916585D01*
X203947110Y-72912799D01*
X204009219Y-72885391D01*
X204045022Y-72861234D01*
X204056537Y-72837219D01*
X204045780Y-72810235D01*
X204027314Y-72789143D01*
X203983669Y-72763172D01*
X203935646Y-72761224D01*
X203891606Y-72781237D01*
X203859909Y-72821151D01*
X203855749Y-72831448D01*
X203831527Y-72869324D01*
X203796165Y-72897442D01*
X203751543Y-72920517D01*
X203751543Y-72855085D01*
X203754169Y-72815106D01*
X203765430Y-72783597D01*
X203790399Y-72749978D01*
X203814369Y-72724084D01*
X203851641Y-72687417D01*
X203880601Y-72667721D01*
X203911705Y-72659820D01*
X203946913Y-72658514D01*
X204024076Y-72669935D01*
G36*
X204024076Y-72669935D02*
G01*
X204065867Y-72688944D01*
X204098669Y-72711978D01*
X204122703Y-72737733D01*
X204139297Y-72770958D01*
X204149777Y-72816400D01*
X204155471Y-72878807D01*
X204157707Y-72962927D01*
X204157943Y-73018321D01*
X204157943Y-73234426D01*
X204120974Y-73251270D01*
X204091856Y-73263581D01*
X204077431Y-73268114D01*
X204074672Y-73254625D01*
X204072482Y-73218253D01*
X204071142Y-73165142D01*
X204070857Y-73122972D01*
X204069634Y-73062047D01*
X204066336Y-73013715D01*
X204061521Y-72984118D01*
X204057696Y-72977829D01*
X204031983Y-72984252D01*
X203991618Y-73000725D01*
X203944879Y-73023058D01*
X203900045Y-73047057D01*
X203865393Y-73068530D01*
X203849202Y-73083285D01*
X203849138Y-73083445D01*
X203850530Y-73110752D01*
X203863018Y-73136819D01*
X203884943Y-73157992D01*
X203916943Y-73165074D01*
X203944292Y-73164249D01*
X203983026Y-73163642D01*
X204003358Y-73172716D01*
X204015569Y-73196692D01*
X204017109Y-73201213D01*
X204022403Y-73235406D01*
X204008247Y-73256168D01*
X203971348Y-73266062D01*
X203931489Y-73267892D01*
X203859762Y-73254327D01*
X203822632Y-73234955D01*
X203776776Y-73189445D01*
X203752456Y-73133583D01*
X203750273Y-73074557D01*
X203770829Y-73019553D01*
X203801749Y-72985086D01*
X203832620Y-72965789D01*
X203881142Y-72941359D01*
X203937685Y-72916585D01*
X203947110Y-72912799D01*
X204009219Y-72885391D01*
X204045022Y-72861234D01*
X204056537Y-72837219D01*
X204045780Y-72810235D01*
X204027314Y-72789143D01*
X203983669Y-72763172D01*
X203935646Y-72761224D01*
X203891606Y-72781237D01*
X203859909Y-72821151D01*
X203855749Y-72831448D01*
X203831527Y-72869324D01*
X203796165Y-72897442D01*
X203751543Y-72920517D01*
X203751543Y-72855085D01*
X203754169Y-72815106D01*
X203765430Y-72783597D01*
X203790399Y-72749978D01*
X203814369Y-72724084D01*
X203851641Y-72687417D01*
X203880601Y-72667721D01*
X203911705Y-72659820D01*
X203946913Y-72658514D01*
X204024076Y-72669935D01*
G37*
X201983110Y-67955948D02*
X202061654Y-67956378D01*
X202118498Y-67957542D01*
X202157305Y-67959807D01*
X202181738Y-67963540D01*
X202195462Y-67969106D01*
X202202140Y-67976873D01*
X202205436Y-67987205D01*
X202205756Y-67988543D01*
X202210762Y-68012679D01*
X202220029Y-68060301D01*
X202232592Y-68126341D01*
X202247487Y-68205728D01*
X202263751Y-68293396D01*
X202264319Y-68296475D01*
X202280610Y-68382389D01*
X202295852Y-68458296D01*
X202309061Y-68519645D01*
X202319254Y-68561882D01*
X202325448Y-68580455D01*
X202325743Y-68580784D01*
X202343988Y-68589853D01*
X202381605Y-68604967D01*
X202430471Y-68622862D01*
X202430743Y-68622958D01*
X202492293Y-68646093D01*
X202564857Y-68675565D01*
X202633257Y-68705197D01*
X202636494Y-68706662D01*
X202747902Y-68757226D01*
X202994599Y-68588760D01*
X203070277Y-68537403D01*
X203138831Y-68491489D01*
X203196288Y-68453630D01*
X203238676Y-68426437D01*
X203262025Y-68412521D01*
X203264242Y-68411489D01*
X203281210Y-68416084D01*
X203312901Y-68438255D01*
X203360552Y-68479047D01*
X203425398Y-68539505D01*
X203491597Y-68603827D01*
X203555414Y-68667212D01*
X203612529Y-68725051D01*
X203659505Y-68773775D01*
X203692903Y-68809810D01*
X203709285Y-68829584D01*
X203709894Y-68830602D01*
X203711705Y-68844172D01*
X203704883Y-68866333D01*
X203687740Y-68900078D01*
X203658593Y-68948400D01*
X203615755Y-69014292D01*
X203558648Y-69099117D01*
X203507966Y-69173777D01*
X203462661Y-69240740D01*
X203425350Y-69296116D01*
X203398652Y-69336020D01*
X203385185Y-69356562D01*
X203384337Y-69357956D01*
X203385981Y-69377638D01*
X203398445Y-69415893D01*
X203419248Y-69465489D01*
X203426662Y-69481328D01*
X203459014Y-69551890D01*
X203493528Y-69631953D01*
X203521565Y-69701229D01*
X203541768Y-69752645D01*
X203557815Y-69791719D01*
X203567088Y-69812141D01*
X203568241Y-69813714D01*
X203585296Y-69816321D01*
X203625498Y-69823463D01*
X203683502Y-69834123D01*
X203753963Y-69847285D01*
X203831535Y-69861933D01*
X203910872Y-69877049D01*
X203986631Y-69891618D01*
X204053464Y-69904622D01*
X204106028Y-69915045D01*
X204138976Y-69921870D01*
X204147057Y-69923799D01*
X204155405Y-69928562D01*
X204161706Y-69939318D01*
X204166245Y-69959698D01*
X204169304Y-69993334D01*
X204171167Y-70043855D01*
X204172118Y-70114892D01*
X204172440Y-70210076D01*
X204172457Y-70249092D01*
X204172457Y-70566399D01*
X204096257Y-70581439D01*
X204053863Y-70589595D01*
X203990600Y-70601499D01*
X203914162Y-70615716D01*
X203832243Y-70630810D01*
X203809600Y-70634955D01*
X203734006Y-70649653D01*
X203668153Y-70664105D01*
X203617566Y-70676975D01*
X203587774Y-70686922D01*
X203582812Y-70689887D01*
X203570626Y-70710883D01*
X203553153Y-70751567D01*
X203533777Y-70803922D01*
X203529934Y-70815200D01*
X203504539Y-70885123D01*
X203473017Y-70964018D01*
X203442169Y-71034866D01*
X203442017Y-71035195D01*
X203390647Y-71146333D01*
X203559599Y-71394853D01*
X203728552Y-71643372D01*
X203511629Y-71860658D01*
X203446019Y-71925326D01*
X203386179Y-71982333D01*
X203335467Y-72028633D01*
X203297246Y-72061184D01*
X203274875Y-72076943D01*
X203271666Y-72077943D01*
X203252826Y-72070069D01*
X203214380Y-72048178D01*
X203160530Y-72014867D01*
X203095476Y-71972731D01*
X203025140Y-71925543D01*
X202953755Y-71877410D01*
X202890108Y-71835528D01*
X202838241Y-71802471D01*
X202802195Y-71780818D01*
X202786067Y-71773143D01*
X202766389Y-71779637D01*
X202729075Y-71796750D01*
X202681821Y-71820926D01*
X202676812Y-71823613D01*
X202613177Y-71855527D01*
X202569541Y-71871179D01*
X202542402Y-71871345D01*
X202528257Y-71856804D01*
X202528175Y-71856600D01*
X202521105Y-71839379D01*
X202504242Y-71798499D01*
X202478895Y-71737125D01*
X202446371Y-71658419D01*
X202407978Y-71565547D01*
X202365022Y-71461672D01*
X202323422Y-71361102D01*
X202277704Y-71250116D01*
X202235726Y-71147303D01*
X202198748Y-71055815D01*
X202168027Y-70978801D01*
X202144822Y-70919415D01*
X202130390Y-70880809D01*
X202125943Y-70866400D01*
X202137096Y-70849872D01*
X202166269Y-70823530D01*
X202205171Y-70794487D01*
X202315957Y-70702639D01*
X202402551Y-70597359D01*
X202463916Y-70480866D01*
X202499015Y-70355376D01*
X202506808Y-70223107D01*
X202501143Y-70162057D01*
X202470278Y-70035395D01*
X202417120Y-69923541D01*
X202344967Y-69827601D01*
X202257117Y-69748676D01*
X202156865Y-69687870D01*
X202047510Y-69646287D01*
X201932347Y-69625028D01*
X201814675Y-69625199D01*
X201697790Y-69647901D01*
X201584989Y-69694238D01*
X201479569Y-69765313D01*
X201435568Y-69805511D01*
X201351179Y-69908729D01*
X201292422Y-70021525D01*
X201258904Y-70140610D01*
X201250235Y-70262695D01*
X201266023Y-70384493D01*
X201305878Y-70502716D01*
X201369407Y-70614075D01*
X201456221Y-70715284D01*
X201553229Y-70794487D01*
X201593637Y-70824762D01*
X201622182Y-70850819D01*
X201632457Y-70866425D01*
X201627077Y-70883443D01*
X201611775Y-70924100D01*
X201587812Y-70985242D01*
X201556444Y-71063719D01*
X201518932Y-71156380D01*
X201476533Y-71260072D01*
X201434863Y-71361126D01*
X201388890Y-71472207D01*
X201346307Y-71575141D01*
X201308421Y-71666765D01*
X201276540Y-71743916D01*
X201251971Y-71803431D01*
X201236020Y-71842144D01*
X201230110Y-71856600D01*
X201216148Y-71871285D01*
X201189140Y-71871242D01*
X201145613Y-71855699D01*
X201082090Y-71823884D01*
X201081588Y-71823613D01*
X201033760Y-71798923D01*
X200995097Y-71780938D01*
X200973295Y-71773214D01*
X200972333Y-71773143D01*
X200955921Y-71780978D01*
X200919687Y-71802765D01*
X200867674Y-71835928D01*
X200803925Y-71877891D01*
X200733260Y-71925543D01*
X200661316Y-71973791D01*
X200596474Y-72015751D01*
X200542935Y-72048827D01*
X200504897Y-72070421D01*
X200486733Y-72077943D01*
X200470008Y-72068057D01*
X200436380Y-72040426D01*
X200389210Y-71998095D01*
X200331858Y-71944105D01*
X200267684Y-71881499D01*
X200246697Y-71860583D01*
X200029699Y-71643223D01*
X200194868Y-71400820D01*
X200245064Y-71326381D01*
X200289119Y-71259572D01*
X200324562Y-71204265D01*
X200348919Y-71164329D01*
X200359722Y-71143636D01*
X200360038Y-71142163D01*
X200354343Y-71122658D01*
X200339026Y-71083422D01*
X200316737Y-71031030D01*
X200301093Y-70995955D01*
X200271841Y-70928801D01*
X200244294Y-70860958D01*
X200222937Y-70803634D01*
X200217135Y-70786172D01*
X200200652Y-70739538D01*
X200184540Y-70703505D01*
X200175690Y-70689887D01*
X200156160Y-70681552D01*
X200113534Y-70669737D01*
X200053345Y-70655781D01*
X199981122Y-70641022D01*
X199948800Y-70634955D01*
X199866722Y-70619873D01*
X199787995Y-70605269D01*
X199720309Y-70592580D01*
X199671360Y-70583242D01*
X199662143Y-70581439D01*
X199585943Y-70566399D01*
X199585943Y-70249092D01*
X199586114Y-70144754D01*
X199586816Y-70065813D01*
X199588334Y-70008638D01*
X199590949Y-69969599D01*
X199594946Y-69945065D01*
X199600609Y-69931405D01*
X199608220Y-69924989D01*
X199611343Y-69923799D01*
X199630178Y-69919580D01*
X199671788Y-69911162D01*
X199730830Y-69899561D01*
X199801957Y-69885795D01*
X199879825Y-69870880D01*
X199959087Y-69855832D01*
X200034398Y-69841669D01*
X200100413Y-69829406D01*
X200151787Y-69820061D01*
X200183175Y-69814650D01*
X200190159Y-69813714D01*
X200196485Y-69801196D01*
X200210490Y-69767846D01*
X200229555Y-69719977D01*
X200236834Y-69701229D01*
X200266196Y-69628795D01*
X200300771Y-69548770D01*
X200331737Y-69481328D01*
X200354523Y-69429759D01*
X200369682Y-69387385D01*
X200374742Y-69361434D01*
X200373936Y-69357956D01*
X200363241Y-69341536D01*
X200338820Y-69305017D01*
X200303295Y-69252287D01*
X200259287Y-69187235D01*
X200209417Y-69113751D01*
X200199556Y-69099245D01*
X200141692Y-69013304D01*
X200099156Y-68947861D01*
X200070254Y-68899904D01*
X200053290Y-68866420D01*
X200046567Y-68844395D01*
X200048390Y-68830817D01*
X200048436Y-68830731D01*
X200062786Y-68812897D01*
X200094523Y-68778417D01*
X200140210Y-68730868D01*
X200196404Y-68673822D01*
X200259668Y-68610855D01*
X200266802Y-68603827D01*
X200346530Y-68526620D01*
X200408057Y-68469930D01*
X200452621Y-68432710D01*
X200481457Y-68413915D01*
X200494158Y-68411489D01*
X200512694Y-68422071D01*
X200551161Y-68446516D01*
X200605586Y-68482212D01*
X200671998Y-68526547D01*
X200746425Y-68576911D01*
X200763801Y-68588760D01*
X201010497Y-68757226D01*
X201121906Y-68706662D01*
X201189657Y-68677195D01*
X201262383Y-68647559D01*
X201324903Y-68623930D01*
X201327657Y-68622958D01*
X201376560Y-68605057D01*
X201414257Y-68589920D01*
X201432625Y-68580810D01*
X201432656Y-68580784D01*
X201438485Y-68564317D01*
X201448392Y-68523819D01*
X201461395Y-68463842D01*
X201476509Y-68388940D01*
X201492752Y-68303664D01*
X201494081Y-68296475D01*
X201510375Y-68208614D01*
X201525333Y-68128860D01*
X201537991Y-68062281D01*
X201547386Y-68013947D01*
X201552554Y-67988925D01*
X201552644Y-67988543D01*
X201555789Y-67977899D01*
X201561904Y-67969862D01*
X201574653Y-67964067D01*
X201597700Y-67960147D01*
X201634709Y-67957735D01*
X201689344Y-67956465D01*
X201765267Y-67955971D01*
X201866144Y-67955886D01*
X201879200Y-67955886D01*
X201983110Y-67955948D01*
G36*
X201983110Y-67955948D02*
G01*
X202061654Y-67956378D01*
X202118498Y-67957542D01*
X202157305Y-67959807D01*
X202181738Y-67963540D01*
X202195462Y-67969106D01*
X202202140Y-67976873D01*
X202205436Y-67987205D01*
X202205756Y-67988543D01*
X202210762Y-68012679D01*
X202220029Y-68060301D01*
X202232592Y-68126341D01*
X202247487Y-68205728D01*
X202263751Y-68293396D01*
X202264319Y-68296475D01*
X202280610Y-68382389D01*
X202295852Y-68458296D01*
X202309061Y-68519645D01*
X202319254Y-68561882D01*
X202325448Y-68580455D01*
X202325743Y-68580784D01*
X202343988Y-68589853D01*
X202381605Y-68604967D01*
X202430471Y-68622862D01*
X202430743Y-68622958D01*
X202492293Y-68646093D01*
X202564857Y-68675565D01*
X202633257Y-68705197D01*
X202636494Y-68706662D01*
X202747902Y-68757226D01*
X202994599Y-68588760D01*
X203070277Y-68537403D01*
X203138831Y-68491489D01*
X203196288Y-68453630D01*
X203238676Y-68426437D01*
X203262025Y-68412521D01*
X203264242Y-68411489D01*
X203281210Y-68416084D01*
X203312901Y-68438255D01*
X203360552Y-68479047D01*
X203425398Y-68539505D01*
X203491597Y-68603827D01*
X203555414Y-68667212D01*
X203612529Y-68725051D01*
X203659505Y-68773775D01*
X203692903Y-68809810D01*
X203709285Y-68829584D01*
X203709894Y-68830602D01*
X203711705Y-68844172D01*
X203704883Y-68866333D01*
X203687740Y-68900078D01*
X203658593Y-68948400D01*
X203615755Y-69014292D01*
X203558648Y-69099117D01*
X203507966Y-69173777D01*
X203462661Y-69240740D01*
X203425350Y-69296116D01*
X203398652Y-69336020D01*
X203385185Y-69356562D01*
X203384337Y-69357956D01*
X203385981Y-69377638D01*
X203398445Y-69415893D01*
X203419248Y-69465489D01*
X203426662Y-69481328D01*
X203459014Y-69551890D01*
X203493528Y-69631953D01*
X203521565Y-69701229D01*
X203541768Y-69752645D01*
X203557815Y-69791719D01*
X203567088Y-69812141D01*
X203568241Y-69813714D01*
X203585296Y-69816321D01*
X203625498Y-69823463D01*
X203683502Y-69834123D01*
X203753963Y-69847285D01*
X203831535Y-69861933D01*
X203910872Y-69877049D01*
X203986631Y-69891618D01*
X204053464Y-69904622D01*
X204106028Y-69915045D01*
X204138976Y-69921870D01*
X204147057Y-69923799D01*
X204155405Y-69928562D01*
X204161706Y-69939318D01*
X204166245Y-69959698D01*
X204169304Y-69993334D01*
X204171167Y-70043855D01*
X204172118Y-70114892D01*
X204172440Y-70210076D01*
X204172457Y-70249092D01*
X204172457Y-70566399D01*
X204096257Y-70581439D01*
X204053863Y-70589595D01*
X203990600Y-70601499D01*
X203914162Y-70615716D01*
X203832243Y-70630810D01*
X203809600Y-70634955D01*
X203734006Y-70649653D01*
X203668153Y-70664105D01*
X203617566Y-70676975D01*
X203587774Y-70686922D01*
X203582812Y-70689887D01*
X203570626Y-70710883D01*
X203553153Y-70751567D01*
X203533777Y-70803922D01*
X203529934Y-70815200D01*
X203504539Y-70885123D01*
X203473017Y-70964018D01*
X203442169Y-71034866D01*
X203442017Y-71035195D01*
X203390647Y-71146333D01*
X203559599Y-71394853D01*
X203728552Y-71643372D01*
X203511629Y-71860658D01*
X203446019Y-71925326D01*
X203386179Y-71982333D01*
X203335467Y-72028633D01*
X203297246Y-72061184D01*
X203274875Y-72076943D01*
X203271666Y-72077943D01*
X203252826Y-72070069D01*
X203214380Y-72048178D01*
X203160530Y-72014867D01*
X203095476Y-71972731D01*
X203025140Y-71925543D01*
X202953755Y-71877410D01*
X202890108Y-71835528D01*
X202838241Y-71802471D01*
X202802195Y-71780818D01*
X202786067Y-71773143D01*
X202766389Y-71779637D01*
X202729075Y-71796750D01*
X202681821Y-71820926D01*
X202676812Y-71823613D01*
X202613177Y-71855527D01*
X202569541Y-71871179D01*
X202542402Y-71871345D01*
X202528257Y-71856804D01*
X202528175Y-71856600D01*
X202521105Y-71839379D01*
X202504242Y-71798499D01*
X202478895Y-71737125D01*
X202446371Y-71658419D01*
X202407978Y-71565547D01*
X202365022Y-71461672D01*
X202323422Y-71361102D01*
X202277704Y-71250116D01*
X202235726Y-71147303D01*
X202198748Y-71055815D01*
X202168027Y-70978801D01*
X202144822Y-70919415D01*
X202130390Y-70880809D01*
X202125943Y-70866400D01*
X202137096Y-70849872D01*
X202166269Y-70823530D01*
X202205171Y-70794487D01*
X202315957Y-70702639D01*
X202402551Y-70597359D01*
X202463916Y-70480866D01*
X202499015Y-70355376D01*
X202506808Y-70223107D01*
X202501143Y-70162057D01*
X202470278Y-70035395D01*
X202417120Y-69923541D01*
X202344967Y-69827601D01*
X202257117Y-69748676D01*
X202156865Y-69687870D01*
X202047510Y-69646287D01*
X201932347Y-69625028D01*
X201814675Y-69625199D01*
X201697790Y-69647901D01*
X201584989Y-69694238D01*
X201479569Y-69765313D01*
X201435568Y-69805511D01*
X201351179Y-69908729D01*
X201292422Y-70021525D01*
X201258904Y-70140610D01*
X201250235Y-70262695D01*
X201266023Y-70384493D01*
X201305878Y-70502716D01*
X201369407Y-70614075D01*
X201456221Y-70715284D01*
X201553229Y-70794487D01*
X201593637Y-70824762D01*
X201622182Y-70850819D01*
X201632457Y-70866425D01*
X201627077Y-70883443D01*
X201611775Y-70924100D01*
X201587812Y-70985242D01*
X201556444Y-71063719D01*
X201518932Y-71156380D01*
X201476533Y-71260072D01*
X201434863Y-71361126D01*
X201388890Y-71472207D01*
X201346307Y-71575141D01*
X201308421Y-71666765D01*
X201276540Y-71743916D01*
X201251971Y-71803431D01*
X201236020Y-71842144D01*
X201230110Y-71856600D01*
X201216148Y-71871285D01*
X201189140Y-71871242D01*
X201145613Y-71855699D01*
X201082090Y-71823884D01*
X201081588Y-71823613D01*
X201033760Y-71798923D01*
X200995097Y-71780938D01*
X200973295Y-71773214D01*
X200972333Y-71773143D01*
X200955921Y-71780978D01*
X200919687Y-71802765D01*
X200867674Y-71835928D01*
X200803925Y-71877891D01*
X200733260Y-71925543D01*
X200661316Y-71973791D01*
X200596474Y-72015751D01*
X200542935Y-72048827D01*
X200504897Y-72070421D01*
X200486733Y-72077943D01*
X200470008Y-72068057D01*
X200436380Y-72040426D01*
X200389210Y-71998095D01*
X200331858Y-71944105D01*
X200267684Y-71881499D01*
X200246697Y-71860583D01*
X200029699Y-71643223D01*
X200194868Y-71400820D01*
X200245064Y-71326381D01*
X200289119Y-71259572D01*
X200324562Y-71204265D01*
X200348919Y-71164329D01*
X200359722Y-71143636D01*
X200360038Y-71142163D01*
X200354343Y-71122658D01*
X200339026Y-71083422D01*
X200316737Y-71031030D01*
X200301093Y-70995955D01*
X200271841Y-70928801D01*
X200244294Y-70860958D01*
X200222937Y-70803634D01*
X200217135Y-70786172D01*
X200200652Y-70739538D01*
X200184540Y-70703505D01*
X200175690Y-70689887D01*
X200156160Y-70681552D01*
X200113534Y-70669737D01*
X200053345Y-70655781D01*
X199981122Y-70641022D01*
X199948800Y-70634955D01*
X199866722Y-70619873D01*
X199787995Y-70605269D01*
X199720309Y-70592580D01*
X199671360Y-70583242D01*
X199662143Y-70581439D01*
X199585943Y-70566399D01*
X199585943Y-70249092D01*
X199586114Y-70144754D01*
X199586816Y-70065813D01*
X199588334Y-70008638D01*
X199590949Y-69969599D01*
X199594946Y-69945065D01*
X199600609Y-69931405D01*
X199608220Y-69924989D01*
X199611343Y-69923799D01*
X199630178Y-69919580D01*
X199671788Y-69911162D01*
X199730830Y-69899561D01*
X199801957Y-69885795D01*
X199879825Y-69870880D01*
X199959087Y-69855832D01*
X200034398Y-69841669D01*
X200100413Y-69829406D01*
X200151787Y-69820061D01*
X200183175Y-69814650D01*
X200190159Y-69813714D01*
X200196485Y-69801196D01*
X200210490Y-69767846D01*
X200229555Y-69719977D01*
X200236834Y-69701229D01*
X200266196Y-69628795D01*
X200300771Y-69548770D01*
X200331737Y-69481328D01*
X200354523Y-69429759D01*
X200369682Y-69387385D01*
X200374742Y-69361434D01*
X200373936Y-69357956D01*
X200363241Y-69341536D01*
X200338820Y-69305017D01*
X200303295Y-69252287D01*
X200259287Y-69187235D01*
X200209417Y-69113751D01*
X200199556Y-69099245D01*
X200141692Y-69013304D01*
X200099156Y-68947861D01*
X200070254Y-68899904D01*
X200053290Y-68866420D01*
X200046567Y-68844395D01*
X200048390Y-68830817D01*
X200048436Y-68830731D01*
X200062786Y-68812897D01*
X200094523Y-68778417D01*
X200140210Y-68730868D01*
X200196404Y-68673822D01*
X200259668Y-68610855D01*
X200266802Y-68603827D01*
X200346530Y-68526620D01*
X200408057Y-68469930D01*
X200452621Y-68432710D01*
X200481457Y-68413915D01*
X200494158Y-68411489D01*
X200512694Y-68422071D01*
X200551161Y-68446516D01*
X200605586Y-68482212D01*
X200671998Y-68526547D01*
X200746425Y-68576911D01*
X200763801Y-68588760D01*
X201010497Y-68757226D01*
X201121906Y-68706662D01*
X201189657Y-68677195D01*
X201262383Y-68647559D01*
X201324903Y-68623930D01*
X201327657Y-68622958D01*
X201376560Y-68605057D01*
X201414257Y-68589920D01*
X201432625Y-68580810D01*
X201432656Y-68580784D01*
X201438485Y-68564317D01*
X201448392Y-68523819D01*
X201461395Y-68463842D01*
X201476509Y-68388940D01*
X201492752Y-68303664D01*
X201494081Y-68296475D01*
X201510375Y-68208614D01*
X201525333Y-68128860D01*
X201537991Y-68062281D01*
X201547386Y-68013947D01*
X201552554Y-67988925D01*
X201552644Y-67988543D01*
X201555789Y-67977899D01*
X201561904Y-67969862D01*
X201574653Y-67964067D01*
X201597700Y-67960147D01*
X201634709Y-67957735D01*
X201689344Y-67956465D01*
X201765267Y-67955971D01*
X201866144Y-67955886D01*
X201879200Y-67955886D01*
X201983110Y-67955948D01*
G37*
D14*
%TO.C,R7*%
X155599000Y-40259000D02*
X156369000Y-40259000D01*
X163679000Y-40259000D02*
X162909000Y-40259000D01*
X162909000Y-41629000D02*
X156369000Y-41629000D01*
X156369000Y-38889000D01*
X162909000Y-38889000D01*
X162909000Y-41629000D01*
%TD*%
M02*
